<?xml version="1.0" encoding="utf-8"?>
<!-- Generator: Adobe Illustrator 16.0.3, SVG Export Plug-In . SVG Version: 6.00 Build 0)  -->
<!DOCTYPE svg PUBLIC "-//W3C//DTD SVG 1.1//EN" "http://www.w3.org/Graphics/SVG/1.1/DTD/svg11.dtd">
<svg version="1.1" id="Isolation_Mode" xmlns="http://www.w3.org/2000/svg" xmlns:xlink="http://www.w3.org/1999/xlink" x="0px"
	 y="0px" width="444.23px" height="361.896px" viewBox="0 0 444.23 361.896" enable-background="new 0 0 444.23 361.896"
	 xml:space="preserve">
<g>
	<path id="NSW" fill="#C133B1" d="M432.46,177.321l-1.432,0.888l-1.075,0.89l-1.789,0.133l-1.48,0.134l-0.154,1.064l0.46,1.512
		l1.176-0.088l-1.073,1.108l-0.202,0.802l-1.689,0.666l-1.277-0.4l-0.666-0.978l-1.071,1.111l-1.075,1.155l-0.51,0.8l-1.126,0.623
		l-0.77-1.513l-0.1-1.022l-0.717-0.978l-0.664-0.711l-1.075-1.201l-1.84-0.355l-2.659-0.045l-0.974-0.444l-1.226-0.399l-1.179,0.089
		l-0.356-0.755l-1.482,0.133l-2.352,0.71l-2.097-0.31l-2.147-0.577l-0.921,0.044l-1.277,1.688l-1.789-0.134l-0.155,1.599
		l-1.173,0.09l0.1,0.757l-1.431,0.666l-86.928-0.089v64.097v0.045l0.103,0.312l1.842-0.267l3.017,1.244l1.688-1.021l2.863,0.397
		l3.478,0.354l2.812,2.045l0.817,2.89l1.79,1.379l0.053-1.379l1.737-0.754l1.585,0.312l2.812,0.178l1.636,0.578l1.023,3.91
		l2.354,2.936l1.84,0.043l2.656,0.979l3.223,2.533l0.613,1.822l2.097,1.334l2.659,0.977l2.148-0.266l-0.409-2.088l0.816-0.936
		l1.178-0.134l1.381,0.623l3.016-0.399l2.353,1.022l1.484-0.178l1.993,0.799l1.942,0.312l1.073-0.978l1.433-0.444l1.738,0.844
		l3.17,0.668l2.403-0.578l1.736-0.488l1.229-0.178l1.176-0.4l1.482-0.49l2.304,1.068l-0.309,1.645l0.92,1.732l1.178,1.467
		l0.562,1.557l-0.254,1.91l13.396,5.779l2.812,0.178l1.176,0.935h1.074l-0.255,0.623l0.204,0.133l1.79-0.756l-0.359-2.445
		l0.716-0.312h0.718l-0.718-1.512l-1.378-0.311l0.662-1.201l-0.662-1.512l0.662,0.312l0.716-2.136l1.382-4.844l-0.357-3.021
		l0.717-1.822h-0.717l1.738-1.201l-1.021-1.201l1.378,0.268l2.813-5.733l2.403-0.623l-1.023-1.822l1.023-0.267v1.201l0.717-0.312
		l-0.717-1.821l-0.664,0.311l0.356-0.621l-1.431-0.268l2.454-0.935l0.714-2.133l-0.714-0.892l1.072-0.311v-2.133l2.762-2.4
		l-1.023-0.311l1.739-0.312l-2.097-0.576l2.403-0.312l0.356-1.511l-1.021,0.576l-0.717-0.576l1.073,0.312l-0.356-0.935l1.021,0.623
		l0.358-2.444v-0.312l-0.716,0.623v-0.89l-0.308,0.267l-0.356-0.89l1.021,0.623l0.358-1.512v1.198l1.382-0.621l0.356-1.512
		l-0.664-0.578h1.381l1.021-2.442l-1.021,1.198l-0.357-1.198h1.021v-1.201l0.357,1.201l1.436-2.136l-0.359-0.575h0.664v0.887
		l4.192-2.133l-1.38-0.269l-1.381,0.892l-0.359-0.312l0.666-0.578l-0.307-0.621l1.381,0.621l1.022-0.621l0.356,0.621l1.381-1.822
		l2.455-1.244l0.355-2.4l-1.073-0.311v0.623l-1.379-0.623h1.379h0.359l0.357-2.133l2.454-1.777l3.118-8.803l-0.356-6.045
		l2.453-5.467l0.357-0.935l1.022-5.11l-1.022-0.623l1.022,0.311l-0.308-1.199l2.762-4.578h-0.715l0.715-0.268l0.358-2.443
		l-1.073-1.202l0.306-2.71l-1.585,0.044l-1.482-0.133l-0.869,0.578l-0.815,0.312l-0.921,0.089l-1.535-0.4l-1.688,0.667l-1.33-1.156
		L432.46,177.321z M390.991,257.329c0.748-0.025,1.545,0.074,2.249,0.355c0.605,0.239,0.805,0.596,0.767,0.979
		c-0.037,0.381-0.364,0.783-0.715,1.244c-0.697,0.924-1.639,1.949-1.585,2.844c-0.126,0.492-0.716,1.555-1.535,1.689
		c-0.408,0.067-0.897-0.097-1.38-0.666c-0.482-0.57-0.993-1.539-1.482-3.111c-0.297-0.961,0.053-1.775,0.767-2.357
		C388.792,257.726,389.869,257.368,390.991,257.329z"/>
	<g id="NT" opacity="0.03">
		<path id="NT-mainland" fill="#C133B1" d="M174.852,41.083v118.813h97.458V55.839l-1.227-1.422l-3.478-0.933l-4.55-2.712
			l-1.023,0.312l0.357,0.623l-1.738-0.623l-1.073,0.312V50.15l-3.836-1.511l-1.381-2.401l-5.571-3.022l-0.358,0.311v-0.622
			l-1.023,0.312l-1.737-1.512l-0.717-2.133l2.098-0.623l1.739-3.601l2.098-0.934l0.354-1.822l1.742-3.333l-1.433,0.934l-0.664-0.311
			l-0.359-2.712l0.714,0.267l0.666-0.578l-1.021-0.311l0.354-0.889l1.023-0.623l0.358,0.89l1.023-1.778l0.355,1.512l0.357-1.512
			l1.022,0.267l0.357-0.889l0.718,1.511l-0.718,0.89l1.382-0.578l1.074-1.822l-1.074-0.934l2.098,0.312l-2.098-2.089l0.715,0.267
			l0.359-0.579l0.716,0.889l-0.358-1.2h1.022l0.714-1.512l-0.355-0.934h0.716v0.934l2.097-2.133l-2.097-1.822l-1.073,0.622
			l0.714,0.578h-1.07l-1.383-2.711h-0.715l1.074-1.2l-4.194,2.712l2.456,0.622l-1.074,1.822l-1.023,0.578l-1.378-0.266l-0.719,0.578
			v-0.889h-0.715l1.073-1.511l-1.073,0.266l-0.31-0.578l1.383-1.512l-2.812,1.2l-0.356,0.934l-1.022-0.622l2.811-2.711l-3.834,1.778
			l-0.356-0.578l-1.737,0.312l-1.739,0.889l1.38,0.623l-2.097-0.312l0.717,0.889l-4.193-1.511l-1.07-2.089l-1.383,1.511
			l-4.193-0.934l-1.021,1.822l0.716-1.511l-0.716-1.2l-0.716,0.311l-0.356-0.933l-1.383,0.933l-1.022-0.933l1.022-0.889
			l-1.382-0.312l-3.115,1.511l0.306-1.2l-0.665,0.578l-0.717-0.889l-1.022,0.578l0.31-0.889l-2.047,0.311l-2.454-3.645h-0.715
			l0.357,0.934l-0.716-0.311l-1.738,1.2l-2.404-3.023l-0.716,0.889l-0.357-1.823l-1.021,0.623l0.357,0.889l-1.789-1.512l0.356,1.823
			l0.717,0.311l-0.717,0.934l-0.664-2.134l-1.432-0.934V5.97l-1.738-0.312l0.358,0.578l-0.666,0.622l1.739-0.311l0.307,0.623
			l-0.307,0.312l1.381,0.311l0.357,0.889l1.381-0.622l3.118-0.267v0.578h0.716l-0.716,0.312l1.074,0.311h-0.716l0.716,0.312
			l-0.716,0.267h1.739h0.356l-1.738,1.511l1.382,0.933l-0.665,0.312l-0.358,1.822l1.739,0.578l-2.404-0.578l-1.074,0.578
			l-0.357,1.822l-0.665-1.512l-1.073,0.623l-0.357-0.934l-1.738,1.511l-1.738-0.889l-4.857,0.578l-1.381-0.889l-0.357-1.511
			l-0.716,1.822l-2.762-0.622l0.665,2.133l-1.737-0.311l-0.665,0.622l1.737,1.2l-1.431-0.311l0.665,0.934l-0.665,0.578l-0.666-1.2
			v0.311l-0.715,0.312l0.358-1.556l-2.097-0.267l0.357,2.089h-0.715l2.096,0.934h-1.023v0.578l-1.737-1.511l-1.073,0.311
			l0.356,0.623l-0.715-0.623v2.134l-2.403,0.577v2.134l2.046,2.134l-0.666-0.311l-2.812,1.822l-1.022-0.311v-0.579l-1.073,0.579
			l-0.307,2.71l0.663-0.266l-1.38,0.889l0.357,1.511l-1.074,0.623l-0.665-0.623l0.665,1.512l-0.665-0.578l-0.716,1.2l-0.358-0.934
			l-1.38,2.134v0.934l1.022,0.889l0.715-0.623v0.933l1.381-0.311l0.357,0.622l1.382-0.622l-0.308,0.622l-1.739,0.889h1.023v0.622
			h-0.358l0.256,0.4l0.256,0.089l0.87-0.489l-0.308,0.889l2.404-1.2v0.889h-1.382l0.717,0.622l-1.074-0.312h-0.664h-1.432l0.716,1.2
			l-0.716-0.577l0.357,2.133l-1.022,0.267l-1.074-2.089l-1.022-0.311l0.357,1.511l-1.432-1.822l0.358,0.622h-0.665h-0.358
			l0.664,0.889l-0.664,0.623l1.022,0.311h-1.022l-0.358,1.2v-0.933L177,45.039l0.716-1.512l-0.357-0.311l-0.716-0.623v-1.199
			l-0.665,0.889v-1.2H174.852z"/>
	</g>
	<g id="QLD" opacity="0.55">
		<path id="QLD-mainland" fill="#C133B1" d="M323.7,0.5l-1.381,0.312l-1.075,1.822l-2.045,0.578l0.308,1.511l-1.022,3.957h-0.357
			l-0.356,2.134h1.074l-1.384,0.267l-0.356,1.823l0.666,0.933l0.715-0.622l-0.715,0.934l-0.666-0.312l-0.356,1.2l-0.356-2.133
			l-1.742,2.444l1.022,0.312h-1.022l-1.378,3.022h1.022l-0.358-1.2l1.072,0.266l-0.714,0.312l1.378,0.934h1.79l-1.79,0.578
			l1.79,0.623l-0.714,0.311l0.356,1.512l-1.434-2.134l-0.664,1.511l-1.736,1.2l1.022,2.756l-0.358,0.889l0.714-0.311l-0.354,0.311
			l0.714,0.311h-1.38l-1.79,4.534l1.79,3.333l-1.072,3.023l1.38,5.467l-2.098,4.845l-1.022,3.645l0.719,1.511l-2.456,6.045
			l-2.812,3.022l-0.664,3.956l-3.17,2.134l-5.882,1.2l-0.714-0.311l-2.099-1.201l-2.452-0.311L289.9,65.93l-2.454-0.934
			l-0.664-2.711l-1.383-1.2l-4.551-1.2l-5.573-0.623l-2.966-3.423v104.057h33.952v24.091l86.928,0.088l1.431-0.666l-0.1-0.756
			l1.173-0.09l0.155-1.6l1.789,0.134l1.277-1.688l0.921-0.044l2.147,0.577l2.097,0.31l2.352-0.71l1.482-0.133l0.356,0.755
			l1.179-0.089l1.226,0.399l0.974,0.444l2.659,0.045l1.84,0.355l1.075,1.202l0.664,0.711l0.717,0.977l0.1,1.023l0.77,1.512
			l1.126-0.623l0.51-0.799l1.075-1.156l1.071-1.111l0.666,0.978l1.277,0.399l1.689-0.666l0.202-0.801l1.073-1.109l-1.176,0.088
			l-0.46-1.511l0.154-1.064l1.48-0.134l1.789-0.133l1.075-0.89l1.432-0.888l1.532,0.399l1.33,1.156l1.688-0.667l1.535,0.4
			l0.921-0.089l0.815-0.312l0.869-0.578l1.482,0.133l1.585-0.044l0.053-0.622l-1.381-1.201l-0.972-3.645l-0.769-2.711l-1.021-1.244
			l-1.075,0.622l0.718-0.933l-1.434-0.579l1.073-0.933l-1.073-0.89l1.434-0.623l-1.075-0.889v-0.934l1.739,1.823l-1.023-2.711
			l-0.357,0.888l0.718-2.399l-0.718-0.4l0.357-2.623h-0.716l1.433-4.845h-0.717l-0.716-1.244l-0.666,1.822l0.31-1.512h-1.023
			l0.715-0.577l-1.431-0.934v-1.822l1.075-0.889l-2.098,0.579l1.737-0.579l-0.356-1.511l-3.835-0.934l1.072-0.578l-2.095-2.134
			l0.355-1.2l-1.074-0.622l-0.355,0.622l0.355-0.934l-2.096-0.889v0.311l-1.738-1.511l-1.737-3.957l-1.381-0.311l0.358-1.2
			l-0.717,0.888v-0.888l-1.025-0.312l0.666,1.2l-1.38-0.578v0.578l-1.38-0.578v0.578l-4.551-5.423l-1.023,1.201l-1.431-1.823
			l0.714-0.311l-1.021-1.823l0.663-0.578l-1.022-3.333h0.666l0.356-2.445l-0.663-1.511v0.934l-0.718-0.312l-0.716-1.2l1.073,0.312
			l0.358-0.312l-1.075-1.511v1.2l-0.356-1.2l-0.664-0.311l-0.358,0.889l1.022,1.511l-0.664-0.267l0.664,1.511l-4.856-3.067
			l-1.738-2.401l-0.359,0.623l-1.021,1.511l1.021,2.089l0.717,1.245l-0.717-0.623l-2.096-2.133l-2.095,2.133l1.07-2.133h-1.431
			l0.716-0.311l-0.355-0.578l-1.384,0.311l1.384-0.622l-2.098-4.223l0.714-3.333l-0.356,0.578l-1.38-1.2l-0.359,0.622v-2.756
			l-1.381,0.622l0.359-0.933h-0.359l0.666-1.511l-1.382-1.2l-1.021,0.623l0.309-1.2h-2.404l-0.359-0.934l0.72-0.311l-1.739-0.889
			l0.307-0.622l-1.022-0.889l1.022-0.311l-0.664-0.622l1.021,0.311l0.355-0.623l1.74,1.245l-2.097-3.022l-0.664,0.267V93.8h-1.074
			l-0.357-1.201h-1.023h-0.357V93.8l-1.022-0.312l-1.432-1.2l0.359-0.312v-0.311l-1.739-0.889l-2.097,0.312l-0.664-2.134h-1.073
			l0.714,1.512l-1.431-0.312l-2.047-1.822l1.381,0.622l-2.097-3.956v1.245l-3.118,0.267l-1.433-2.712l-0.308,1.2h-1.073l-1.022-1.2
			l-3.527-1.2l-2.047-2.134l0.666-3.333h-1.38l-2.454-3.645l1.737-5.156h-0.664v-2.4l-2.097-3.333l0.663-1.512l-1.736,0.312
			l-4.145-4.845V55.04h0.666v-2.134l-1.38-1.511l-0.356-3.334l-1.383-1.2l1.739-1.822v-0.312l-1.075,0.312l-0.308-1.512l1.383-1.511
			h-0.716l-0.667-1.245l-2.095-0.266l-1.433-1.823l-2.403-0.623l-1.737-3.956l-2.097,1.511l-1.382-0.578l-0.716,1.822l-2.097,0.889
			l-1.737-1.201l-1.022-3.956l-1.79-2.4l0.717-3.023l-1.023-3.022l0.308-2.756l-2.045,0.623l1.021-2.756l-2.095-1.2v-1.2
			l-1.739-0.311l-0.356-2.134l2.097-1.511l-1.739-0.578l-1.381,0.311l-1.073-0.933V7.167l-1.382-3.645h-1.021l-0.718-1.201V2.9
			l-1.38,0.623l1.739-2.445l-0.359-0.266L323.7,0.5z"/>
	</g>
	<path id="WA" opacity="0.31" fill="#C133B1" d="M174.852,215.323v-55.427l0,0V41.083h-2.045l-0.665-0.622l-1.381-0.267
		l-2.098,0.267l1.381,0.934l0.357,1.199l-1.38-1.511l1.021,1.511l-0.357-0.311l-0.357,0.622l-0.665-0.622l-0.357,1.244l-0.717-1.556
		l-0.663,0.934l1.737,4.223h-0.716l-0.358-1.511l-1.738-1.511v2.445l-1.021,0.889l0.664-1.2l-0.664-0.933l0.664-0.267l-0.357-1.822
		l1.073-2.134h-0.716l1.433-0.312l-0.717-0.889l0.717-0.311l-2.455-1.512l-0.358,0.623l-3.12-4.268l-2.454-1.199l-0.357-1.201
		l-1.022-0.311l0.357,0.889l-1.074-0.889l-0.716,0.578v-0.578l-0.665,0.578l-0.716-1.511l-2.097-0.578v0.578l-1.38-0.267
		l0.716,1.511l1.381,0.578l-0.613-0.044l-1.84-0.267l0.357,0.934l-0.717,0.622l-0.306-0.622l-0.358,1.822l-1.074-1.822l-0.664,0.311
		l0.664-1.511l-2.097,1.201l-0.306,0.622l0.664,0.577l-1.381,0.623l-0.357-1.512h-0.665l0.665-0.622h-0.665l0.665-0.623
		l-1.022,0.623l-1.074-0.312v0.623l-0.307-0.623v0.623l2.046,0.889l-1.381,0.934l0.358,0.889l-1.023,0.622l0.666,1.201h-1.381v1.511
		l-1.073-0.889l0.358-1.201l-1.381,0.267V36.55l-1.022,2.4l0.309-2.711l0.715-0.889l-1.38-0.622v3.333l-1.073-0.311l-0.665,1.2
		l-0.359-0.889l-0.715,0.623l0.358-1.245l-1.38,1.245l0.665,0.267l-2.098,0.934l1.074,1.2h1.023l-1.381,0.934l2.097,0.577
		l0.356-0.577l0.665,0.267l-1.38,1.244l1.739,0.578h-1.739l-0.665-0.889l-1.432,0.889l-1.023-2.089l-0.715,0.267l0.357,1.244
		l-2.098,0.267l0.717,0.311l-0.357,0.934l2.096-1.245l-2.096,1.555l0.716,0.578l1.739-0.889v0.578h0.665l-1.023,0.934l2.098,1.511
		l-1.739-1.2l-0.716,0.578l-0.717-1.2l-1.381-0.311v-0.622l-1.021,0.622l-0.716,1.2l-0.358-0.578l-0.357,0.889l-1.381-0.311
		l0.358,0.311l-1.38,0.934l0.665,0.267l-1.022,0.311l1.38,3.334l0.358-0.533v0.222l0.716-0.889l-0.613,0.489l0.921-1.423
		l1.073-0.578l-0.716,0.578h1.074l-1.432,0.934l-0.308,2.134h0.665l-1.38,0.578l0.716,0.311l-0.716,0.311l-0.716-1.511l-0.665,2.711
		l2.403-0.311l1.381,0.622l-3.119,0.311l-0.665-0.623l-0.716,0.623l0.612,0.311l-1.636,0.267l1.023-0.267l-1.023-0.311l-1.074-1.2
		l-2.402-0.934l1.021,0.934h-0.715l0.715,0.889l-1.38-0.889v0.267l-1.739-0.579h0.665L118.1,54.11h0.715l-1.38-0.622v0.622
		l-1.074-0.311l0.358,0.622l-0.664-0.622l0.664,0.933l-0.664,0.312l1.38,0.267l0.356,0.622l-1.074-0.312l1.074,0.623h-0.716h-0.356
		h-1.381l1.738,0.889h-2.402l0.665,0.934l0.358-0.623l1.022,0.311l-1.381,0.889l2.454,0.622l0.665,1.822l1.433-0.622v-0.578
		l0.665,0.266l-1.738,1.512l0.716,0.622l-1.074-0.311l1.791,2.756l-3.171-2.756l-1.021,0.311l1.38,2.134l-0.716-0.312l-0.664,1.511
		v1.512l-2.099-1.822l-1.073-3.023l-1.381-0.889v-2.445h-1.021l-1.075-0.889l0.358-1.245l1.072-0.267l-0.716-0.934l-1.074,0.312
		l-2.045,3.022l1.023,0.934l-2.812-0.311l-0.307,0.889l0.665,1.2l-1.38-0.578v0.578l-1.38,0.311l-1.074,1.245l0.715,0.267
		l-1.739,1.245l-0.356,2.711l1.021,2.134l-0.665,2.089l2.455,0.312v1.2l-4.908,3.067l-1.381,0.267l-1.083,1.24l0.718,0.889
		l-1.738,0.312l0.357,1.2l-1.737,2.756l-4.193,4.534l-9.766,3.645l-2.455,0.266H74.58l-1.073,0.623l-1.381,0.889l-1.021-0.889
		l-3.17-0.623l0.356,0.623v0.312l-0.356-0.312l-0.666-0.311l-0.357,0.311l-2.454,2.711l-7.312,1.245v-0.623l-2.762,1.512
		l0.307,0.622h-1.022l-0.715,1.2l-1.739,0.311v-0.311l-2.761,1.2l-2.097-0.889l-0.357-0.934l-2.455,1.245l-1.021-0.312l-0.716-0.311
		l1.073-1.511h-0.716l-1.738,1.822l0.357,0.312h-0.716l-3.478,1.511l-1.073-0.622l-0.307,1.511l-2.812,1.2l-1.022,1.822
		l-1.737,0.312l-1.739,2.444l-6.646,1.511l-2.762,1.512l-0.357,1.822l-0.716,0.267l-0.716-0.267l0.358,1.2l-1.022,1.512l0.664,0.622
		l-0.664-0.311l0.357,0.578l-1.432,1.511l-0.666-0.889l-1.737,0.889l0.665-2.089l-0.665,0.578l-0.358-2.089l1.381-3.645
		l-2.455,0.622l-3.477,7.246l1.738,3.956l-0.665,1.822l0.356,3.601l-3.526,4.267l-0.665,5.423l2.761,3.957l-0.357,0.622l0.715,2.4
		l1.382,0.934l3.835,6.668l1.073,0.266l0.358,1.512h-1.073l0.358,3.333l-1.739,1.822l-1.738-2.4l-0.357-3.333v1.511l-1.738,1.2
		l0.358-3.333l-2.813-3.911l-1.021,2.4l0.665,0.623v-1.245l1.073,4.579l3.478,2.401l-0.357,2.755l-2.097,0.889l-0.357-2.134
		l-0.308,1.823l-0.715-3.645l-0.359,1.822l-1.38-4.846l0.358,3.957l-1.074-0.622v-3.335l-0.306,2.445l-1.434-0.933l9.051,11.512
		l2.097,4.846l-0.665,1.511l0.665,3.066l3.835,3.911l1.073,1.822l-0.357,1.199l3.119,3.646l1.432,4.268l-0.356,5.422v0.621
		l1.021,4.847l6.954,12.713l0.358,4.532l1.738-0.889v0.578l-1.738,0.311l0.357,1.513l-0.716,0.935l0.358,2.133l-1.381,2.401
		l1.022,6.978l-3.784,3.912h-1.789l-2.046-1.201v6.356l1.381,3.335l0.358-0.578l2.045-0.312l3.835,1.821l3.171,4.224l4.193,1.199
		l0.306-0.89l1.432,0.89H37.31l2.761,1.512l1.074-0.889l2.045,0.889l4.909-0.578l2.761,1.513l0.716-1.244l3.119,0.932l0.716-0.309
		l-1.739-0.623l0.717-1.201l0.665-0.311l-0.358,1.243h2.812l-0.357-0.934l2.454-0.312l0.357-1.822l3.119-1.2l0.357-1.199
		l1.738-0.623l-0.715-0.576l4.551,1.199l0.358-1.199l1.38,0.312v-1.246l1.738,0.312l-1.38-1.198l4.856-3.957h1.023l4.55,0.623
		l1.739-1.201l8.744-0.935l4.5,1.201l2.455-0.89l1.38,2.134h1.739l0.715-1.244l2.402,0.621l0.358-0.89l4.551-0.311l1.023,0.578
		l0.357,1.244l2.454-1.512l1.739,0.578l4.857-4.224l1.432-4.846l1.38-1.244l6.29-1.779l12.528-6.397l2.761-0.578l5.267,0.578
		l5.88-0.269l11.198-3.021L174.852,215.323z M131.338,55.929l-1.737,0.622l-0.614-0.578l0.614,0.267L131.338,55.929z M2.788,153.771
		L0,148.319v3.029l2.789,3.938L2.788,153.771L2.788,153.771z"/>
	<path id="VIC" opacity="0.83" fill="#C133B1" d="M402.802,282.798l-1.023-0.889h0.307l-1.176-0.934l-2.812-0.179l-13.396-5.778
		l0.254-1.91l-0.562-1.558l-1.179-1.467l-0.919-1.731l0.309-1.646l-2.304-1.067l-1.482,0.489l-1.176,0.399l-1.229,0.179
		l-1.736,0.487l-2.403,0.578l-3.17-0.668l-1.738-0.844l-1.433,0.445l-1.073,0.977l-1.942-0.311l-1.994-0.799l-1.483,0.178
		l-2.353-1.023l-3.016,0.4l-1.381-0.623l-1.178,0.133l-0.816,0.937l0.409,2.088l-2.148,0.267l-2.659-0.978l-2.097-1.334
		l-0.613-1.822l-3.223-2.532l-2.656-0.979l-1.84-0.043l-2.354-2.937l-1.023-3.91l-1.636-0.578l-2.812-0.178l-1.585-0.311
		l-1.737,0.754l-0.053,1.379l-1.79-1.379l-0.817-2.889l-2.812-2.045l-3.478-0.355l-2.863-0.398l-1.688,1.021l-3.017-1.244
		l-1.842,0.266l-0.104-0.311v40.404l0.718,0.045l3.834,2.711v1.51l1.076-0.309l1.021,0.621l2.097-2.135l4.193,1.821l2.761-0.621
		l12.886,6.091l5.268-4.533l4.144-2.445h2.453l0.717-1.822l-2.455,0.623l-1.381-0.936h1.739l4.498-3.021l2.097,3.645l-2.097,2.4
		l-3.118-0.578l3.118,2.4l2.097-1.201l1.073,0.312l0.309-2.443h2.454l0.718,1.822l-1.383,0.309l-0.356,1.824l2.403,1.512
		l2.454-0.312l0.355,0.623l-1.021-0.311l1.736,2.711l1.381-0.889l1.383,0.621l-0.359-0.934l1.431,2.444l1.74,1.512l0.666-3.956
		l-2.097,1.2l-0.666-2.399h3.477l4.145-1.201l6.646-6.09l4.548-2.398l-5.57,2.09l3.12-1.779l-0.104-0.133l-0.921-0.801l2.403,0.623
		l2.812-0.934l-0.358,0.621l15.339-1.199L402.802,282.798z"/>
	<g id="SA" opacity="0.29">
		<path id="SA-mainland" fill="#C133B1" d="M306.261,288.532v-40.404v-0.045v-64.096v-24.091h-33.952l0,0h-97.458v55.427
			l0.767-0.355l10.79-0.934l1.738-0.311l7.004,0.623l3.836-1.822l6.596,3.021l4.908,3.334h3.12l-0.359-0.578l0.717-0.311h2.402
			l4.193,3.021h4.193l-1.075-0.889l0.717-0.311l0.716,0.578l0.663-0.892l3.837,3.334l-1.023,0.312v1.51l2.098-0.932l1.381,0.312
			l1.38,2.442l-1.022,1.201l0.358-0.934h-1.739l0.666,1.246l-0.666,0.887l1.381,0.312l-0.715,0.889l2.098,1.822l-0.666-1.822
			l1.022,1.822l1.023-0.578l2.095,1.201l-1.023-0.89l1.741,0.267l-0.718,0.623l2.097,2.444v1.777l3.836,3.065l2.098,8.18
			l0.356-0.936l0.356,0.936l0.667,0.267l-1.381,0.312l-0.716-1.199l0.355-0.312l-1.38-0.311v-0.576l-1.073,1.822l1.432-0.623
			l4.192,4.533l1.739-0.89l1.737,1.822l0.664-3.334l-2.401,0.89l1.022-0.621l0.354-2.4l1.383-0.623l0.716,0.623v-2.135l5.216-5.154
			l4.192-1.824l-1.073,0.312l0.716-1.201l0.716,0.623l2.402-0.623l2.456-6.045l2.096-2.133l1.381,0.623v-6.09l1.739,3.331
			l0.356,2.759l1.022,0.889l-2.762,2.133l2.098,3.334l-4.193,3.645l-1.022,2.711l-0.715,0.312l0.715,1.822l-1.073,1.777l0.717-0.267
			l0.356,1.776l-0.715,3.646l-0.716,0.621l-4.144-0.933l-1.788,4.576l3.526-0.309l2.762-1.822l2.454,0.887l1.381-0.577l-0.717-0.621
			l1.738-3.334l0.357-3.023l2.097-4.221l4.91,7.334l0.307,0.533l-0.664,0.311l-0.358-0.934l-0.359,6.668l-3.834,3.021l4.91,0.312
			l2.044-1.512l1.79,0.311l5.217,3.602l-5.217-3.289l4.5,3.021l2.966,3.334l-2.249-3.021l1.737,1.199l2.097,3.955l-0.921-1.244
			l2.658,6.09l-0.356,1.513l-1.737,1.512l1.379,1.822l-0.662,0.889l2.761,3.332l4.037,4.714l0.154,0.444l2.097,1.51L306.261,288.532
			z"/>
	</g>
	<g id="TAS" opacity="0.06">
		<path id="TAS-mainland" fill="#C133B1" d="M379.823,349.456l-0.696,1.816l1.394,0.303l-0.696,0.606l1.045,1.209l1.046-0.303
			v-1.211l1.396,1.514l-0.7-2.725l-1.74,0.303L379.823,349.456z M386.791,332.489l-0.694-1.814l1.045-2.424l-1.045-0.908
			l1.045-2.424l-2.789-3.029l-1.743-0.305l-0.694,1.82l-2.091-0.91l-2.438,2.424l-1.742-0.91l-1.743,1.213l-1.394-0.604
			l-2.438,0.908l1.741,1.516l-0.352,0.605l-2.091-2.121l-1.74,1.213l0.345,1.213l-0.692-1.516l-3.137,0.604l-8.017-4.244h-2.09
			l-0.698-1.512v1.211l-1.393-0.303v0.604l-4.88-2.117l0.352,2.423l-1.048,1.817l1.394,5.148l2.443,3.03l-0.701,0.604l3.487,3.938
			v2.726l1.044-0.908l1.743,2.728h0.696l-0.696,2.12l-0.349-1.815l-3.14-2.426l1.046,5.453l1.048,0.303l1.74,4.543l1.744,0.606
			l1.739,3.33h1.05l-0.7-0.303l0.7-1.211l0.696,1.818h2.786l-0.35,0.604l-2.438-0.604v0.907l-0.696-0.303l1.043,2.426l2.439-0.912
			l3.829,0.607l-0.345-0.908l1.392,2.119h2.091l1.396-1.818l-1.047-0.907l1.395,0.305l0.35-1.213l-1.046-0.303l1.396-0.607
			l-1.396-1.512l0.35-0.607v0.908l0.696,0.604l0.352-0.905v0.905l1.391,0.605l0.35-3.33l1.05,0.303v-1.815l-1.747-2.424l2.438,2.727
			l0.696-0.303l-0.696,1.815l1.396-0.91l-0.352-1.512l1.047-0.303l-1.743-0.91l1.743,0.301l0.696,1.519l1.396-0.304l1.74-2.729
			l-1.045-1.514l1.396-0.605l0.347-2.424l-1.047,0.303l1.743-3.029h1.047l-1.047-0.301l1.395-1.819l-0.696,1.819l1.741,0.603v1.819
			l0.701-0.909l-1.048-2.121L386.791,332.489z"/>
	</g>
	<path id="ACT" opacity="0.05" fill="#C133B1" d="M391.01,257.319c0.745-0.025,1.517,0.082,2.222,0.363
		c0.604,0.241,0.804,0.584,0.764,0.967c-0.038,0.381-0.345,0.805-0.69,1.268c-0.701,0.924-1.656,1.943-1.601,2.84
		c-0.127,0.49-0.71,1.557-1.529,1.691c-0.408,0.068-0.903-0.096-1.388-0.664c-0.48-0.572-0.974-1.568-1.463-3.141
		c-0.295-0.961,0.052-1.775,0.767-2.357C388.803,257.706,389.885,257.358,391.01,257.319z"/>
</g>
<g opacity="0.2">
	<path id="NSW_1_" fill="none" stroke="#C133B1" stroke-width="0.5" stroke-miterlimit="10" d="M432.46,177.321l-1.432,0.888
		l-1.075,0.89l-1.789,0.133l-1.48,0.134l-0.154,1.064l0.46,1.512l1.176-0.088l-1.073,1.108l-0.202,0.802l-1.689,0.666l-1.277-0.4
		l-0.666-0.978l-1.071,1.111l-1.075,1.155l-0.51,0.8l-1.126,0.623l-0.77-1.513l-0.1-1.022l-0.717-0.978l-0.664-0.711l-1.075-1.201
		l-1.84-0.355l-2.659-0.045l-0.974-0.444l-1.226-0.399l-1.179,0.089l-0.356-0.755l-1.482,0.133l-2.352,0.71l-2.097-0.31
		l-2.147-0.577l-0.921,0.044l-1.277,1.688l-1.789-0.134l-0.155,1.599l-1.173,0.09l0.1,0.757l-1.431,0.666l-86.928-0.089v64.097
		v0.045l0.103,0.312l1.842-0.267l3.017,1.244l1.688-1.021l2.863,0.397l3.478,0.354l2.812,2.045l0.817,2.89l1.79,1.379l0.053-1.379
		l1.737-0.754l1.585,0.312l2.812,0.178l1.636,0.578l1.023,3.91l2.354,2.936l1.84,0.043l2.656,0.979l3.223,2.533l0.613,1.822
		l2.097,1.334l2.659,0.977l2.148-0.266l-0.409-2.088l0.816-0.936l1.178-0.134l1.381,0.623l3.016-0.399l2.353,1.022l1.484-0.178
		l1.993,0.799l1.942,0.312l1.073-0.978l1.433-0.444l1.738,0.844l3.17,0.668l2.403-0.578l1.736-0.488l1.229-0.178l1.176-0.4
		l1.482-0.49l2.304,1.068l-0.309,1.645l0.92,1.732l1.178,1.467l0.562,1.557l-0.254,1.91l13.396,5.779l2.812,0.178l1.176,0.935h1.074
		l-0.255,0.623l0.204,0.133l1.79-0.756l-0.359-2.445l0.716-0.312h0.718l-0.718-1.512l-1.378-0.311l0.662-1.201l-0.662-1.512
		l0.662,0.312l0.716-2.136l1.382-4.844l-0.357-3.021l0.717-1.822h-0.717l1.738-1.201l-1.021-1.201l1.378,0.268l2.813-5.733
		l2.403-0.623l-1.023-1.822l1.023-0.267v1.201l0.717-0.312l-0.717-1.821l-0.664,0.311l0.356-0.621l-1.431-0.268l2.454-0.935
		l0.714-2.133l-0.714-0.892l1.072-0.311v-2.133l2.762-2.4l-1.023-0.311l1.739-0.312l-2.097-0.576l2.403-0.312l0.356-1.511
		l-1.021,0.576l-0.717-0.576l1.073,0.312l-0.356-0.935l1.021,0.623l0.358-2.444v-0.312l-0.716,0.623v-0.89l-0.308,0.267l-0.356-0.89
		l1.021,0.623l0.358-1.512v1.198l1.382-0.621l0.356-1.512l-0.664-0.578h1.381l1.021-2.442l-1.021,1.198l-0.357-1.198h1.021v-1.201
		l0.357,1.201l1.436-2.136l-0.359-0.575h0.664v0.887l4.192-2.133l-1.38-0.269l-1.381,0.892l-0.359-0.312l0.666-0.578l-0.307-0.621
		l1.381,0.621l1.022-0.621l0.356,0.621l1.381-1.822l2.455-1.244l0.355-2.4l-1.073-0.311v0.623l-1.379-0.623h1.379h0.359l0.357-2.133
		l2.454-1.777l3.118-8.803l-0.356-6.045l2.453-5.467l0.357-0.935l1.022-5.11l-1.022-0.623l1.022,0.311l-0.308-1.199l2.762-4.578
		h-0.715l0.715-0.268l0.358-2.443l-1.073-1.202l0.306-2.71l-1.585,0.044l-1.482-0.133l-0.869,0.578l-0.815,0.312l-0.921,0.089
		l-1.535-0.4l-1.688,0.667l-1.33-1.156L432.46,177.321z M390.991,257.329c0.748-0.025,1.545,0.074,2.249,0.355
		c0.605,0.239,0.805,0.596,0.767,0.979c-0.037,0.381-0.364,0.783-0.715,1.244c-0.697,0.924-1.639,1.949-1.585,2.844
		c-0.126,0.492-0.716,1.555-1.535,1.689c-0.408,0.067-0.897-0.097-1.38-0.666c-0.482-0.57-0.993-1.539-1.482-3.111
		c-0.297-0.961,0.053-1.775,0.767-2.357C388.792,257.726,389.869,257.368,390.991,257.329z"/>
	<g id="NT_1_">
		<path id="NT-mainland_1_" fill="none" stroke="#C133B1" stroke-width="0.5" stroke-miterlimit="10" d="M174.852,41.083v118.813
			h97.458V55.839l-1.227-1.422l-3.478-0.933l-4.55-2.712l-1.023,0.312l0.357,0.623l-1.738-0.623l-1.073,0.312V50.15l-3.836-1.511
			l-1.381-2.401l-5.571-3.022l-0.358,0.311v-0.622l-1.023,0.312l-1.737-1.512l-0.717-2.133l2.098-0.623l1.739-3.601l2.098-0.934
			l0.354-1.822l1.742-3.333l-1.433,0.934l-0.664-0.311l-0.359-2.712l0.714,0.267l0.666-0.578l-1.021-0.311l0.354-0.889l1.023-0.623
			l0.358,0.89l1.023-1.778l0.355,1.512l0.357-1.512l1.022,0.267l0.357-0.889l0.718,1.511l-0.718,0.89l1.382-0.578l1.074-1.822
			l-1.074-0.934l2.098,0.312l-2.098-2.089l0.715,0.267l0.359-0.579l0.716,0.889l-0.358-1.2h1.022l0.714-1.512l-0.355-0.934h0.716
			v0.934l2.097-2.133l-2.097-1.822l-1.073,0.622l0.714,0.578h-1.07l-1.383-2.711h-0.715l1.074-1.2l-4.194,2.712l2.456,0.622
			l-1.074,1.822l-1.023,0.578l-1.378-0.266l-0.719,0.578v-0.889h-0.715l1.073-1.511l-1.073,0.266l-0.31-0.578l1.383-1.512
			l-2.812,1.2l-0.356,0.934l-1.022-0.622l2.811-2.711l-3.834,1.778l-0.356-0.578l-1.737,0.312l-1.739,0.889l1.38,0.623l-2.097-0.312
			l0.717,0.889l-4.193-1.511l-1.07-2.089l-1.383,1.511l-4.193-0.934l-1.021,1.822l0.716-1.511l-0.716-1.2l-0.716,0.311l-0.356-0.933
			l-1.383,0.933l-1.022-0.933l1.022-0.889l-1.382-0.312l-3.115,1.511l0.306-1.2l-0.665,0.578l-0.717-0.889l-1.022,0.578l0.31-0.889
			l-2.047,0.311l-2.454-3.645h-0.715l0.357,0.934l-0.716-0.311l-1.738,1.2l-2.404-3.023l-0.716,0.889l-0.357-1.823l-1.021,0.623
			l0.357,0.889l-1.789-1.512l0.356,1.823l0.717,0.311l-0.717,0.934l-0.664-2.134l-1.432-0.934V5.97l-1.738-0.312l0.358,0.578
			l-0.666,0.622l1.739-0.311l0.307,0.623l-0.307,0.312l1.381,0.311l0.357,0.889l1.381-0.622l3.118-0.267v0.578h0.716l-0.716,0.312
			l1.074,0.311h-0.716l0.716,0.312l-0.716,0.267h1.739h0.356l-1.738,1.511l1.382,0.933l-0.665,0.312l-0.358,1.822l1.739,0.578
			l-2.404-0.578l-1.074,0.578l-0.357,1.822l-0.665-1.512l-1.073,0.623l-0.357-0.934l-1.738,1.511l-1.738-0.889l-4.857,0.578
			l-1.381-0.889l-0.357-1.511l-0.716,1.822l-2.762-0.622l0.665,2.133l-1.737-0.311l-0.665,0.622l1.737,1.2l-1.431-0.311l0.665,0.934
			l-0.665,0.578l-0.666-1.2v0.311l-0.715,0.312l0.358-1.556l-2.097-0.267l0.357,2.089h-0.715l2.096,0.934h-1.023v0.578l-1.737-1.511
			l-1.073,0.311l0.356,0.623l-0.715-0.623v2.134l-2.403,0.577v2.134l2.046,2.134l-0.666-0.311l-2.812,1.822l-1.022-0.311v-0.579
			l-1.073,0.579l-0.307,2.71l0.663-0.266l-1.38,0.889l0.357,1.511l-1.074,0.623l-0.665-0.623l0.665,1.512l-0.665-0.578l-0.716,1.2
			l-0.358-0.934l-1.38,2.134v0.934l1.022,0.889l0.715-0.623v0.933l1.381-0.311l0.357,0.622l1.382-0.622l-0.308,0.622l-1.739,0.889
			h1.023v0.622h-0.358l0.256,0.4l0.256,0.089l0.87-0.489l-0.308,0.889l2.404-1.2v0.889h-1.382l0.717,0.622l-1.074-0.312h-0.664
			h-1.432l0.716,1.2l-0.716-0.577l0.357,2.133l-1.022,0.267l-1.074-2.089l-1.022-0.311l0.357,1.511l-1.432-1.822l0.358,0.622h-0.665
			h-0.358l0.664,0.889l-0.664,0.623l1.022,0.311h-1.022l-0.358,1.2v-0.933L177,45.039l0.716-1.512l-0.357-0.311l-0.716-0.623v-1.199
			l-0.665,0.889v-1.2H174.852z"/>
	</g>
	<g id="QLD_1_">
		<path id="QLD-mainland_1_" fill="none" stroke="#C133B1" stroke-width="0.5" stroke-miterlimit="10" d="M323.7,0.5l-1.381,0.312
			l-1.075,1.822l-2.045,0.578l0.308,1.511l-1.022,3.957h-0.357l-0.356,2.134h1.074l-1.384,0.267l-0.356,1.823l0.666,0.933
			l0.715-0.622l-0.715,0.934l-0.666-0.312l-0.356,1.2l-0.356-2.133l-1.742,2.444l1.022,0.312h-1.022l-1.378,3.022h1.022l-0.358-1.2
			l1.072,0.266l-0.714,0.312l1.378,0.934h1.79l-1.79,0.578l1.79,0.623l-0.714,0.311l0.356,1.512l-1.434-2.134l-0.664,1.511
			l-1.736,1.2l1.022,2.756l-0.358,0.889l0.714-0.311l-0.354,0.311l0.714,0.311h-1.38l-1.79,4.534l1.79,3.333l-1.072,3.023
			l1.38,5.467l-2.098,4.845l-1.022,3.645l0.719,1.511l-2.456,6.045l-2.812,3.022l-0.664,3.956l-3.17,2.134l-5.882,1.2l-0.714-0.311
			l-2.099-1.201l-2.452-0.311L289.9,65.93l-2.454-0.934l-0.664-2.711l-1.383-1.2l-4.551-1.2l-5.573-0.623l-2.966-3.423v104.057
			h33.952v24.091l86.928,0.088l1.431-0.666l-0.1-0.756l1.173-0.09l0.155-1.6l1.789,0.134l1.277-1.688l0.921-0.044l2.147,0.577
			l2.097,0.31l2.352-0.71l1.482-0.133l0.356,0.755l1.179-0.089l1.226,0.399l0.974,0.444l2.659,0.045l1.84,0.355l1.075,1.202
			l0.664,0.711l0.717,0.977l0.1,1.023l0.77,1.512l1.126-0.623l0.51-0.799l1.075-1.156l1.071-1.111l0.666,0.978l1.277,0.399
			l1.689-0.666l0.202-0.801l1.073-1.109l-1.176,0.088l-0.46-1.511l0.154-1.064l1.48-0.134l1.789-0.133l1.075-0.89l1.432-0.888
			l1.532,0.399l1.33,1.156l1.688-0.667l1.535,0.4l0.921-0.089l0.815-0.312l0.869-0.578l1.482,0.133l1.585-0.044l0.053-0.622
			l-1.381-1.201l-0.972-3.645l-0.769-2.711l-1.021-1.244l-1.075,0.622l0.718-0.933l-1.434-0.579l1.073-0.933l-1.073-0.89
			l1.434-0.623l-1.075-0.889v-0.934l1.739,1.823l-1.023-2.711l-0.357,0.888l0.718-2.399l-0.718-0.4l0.357-2.623h-0.716l1.433-4.845
			h-0.717l-0.716-1.244l-0.666,1.822l0.31-1.512h-1.023l0.715-0.577l-1.431-0.934v-1.822l1.075-0.889l-2.098,0.579l1.737-0.579
			l-0.356-1.511l-3.835-0.934l1.072-0.578l-2.095-2.134l0.355-1.2l-1.074-0.622l-0.355,0.622l0.355-0.934l-2.096-0.889v0.311
			l-1.738-1.511l-1.737-3.957l-1.381-0.311l0.358-1.2l-0.717,0.888v-0.888l-1.025-0.312l0.666,1.2l-1.38-0.578v0.578l-1.38-0.578
			v0.578l-4.551-5.423l-1.023,1.201l-1.431-1.823l0.714-0.311l-1.021-1.823l0.663-0.578l-1.022-3.333h0.666l0.356-2.445
			l-0.663-1.511v0.934l-0.718-0.312l-0.716-1.2l1.073,0.312l0.358-0.312l-1.075-1.511v1.2l-0.356-1.2l-0.664-0.311l-0.358,0.889
			l1.022,1.511l-0.664-0.267l0.664,1.511l-4.856-3.067l-1.738-2.401l-0.359,0.623l-1.021,1.511l1.021,2.089l0.717,1.245
			l-0.717-0.623l-2.096-2.133l-2.095,2.133l1.07-2.133h-1.431l0.716-0.311l-0.355-0.578l-1.384,0.311l1.384-0.622l-2.098-4.223
			l0.714-3.333l-0.356,0.578l-1.38-1.2l-0.359,0.622v-2.756l-1.381,0.622l0.359-0.933h-0.359l0.666-1.511l-1.382-1.2l-1.021,0.623
			l0.309-1.2h-2.404l-0.359-0.934l0.72-0.311l-1.739-0.889l0.307-0.622l-1.022-0.889l1.022-0.311l-0.664-0.622l1.021,0.311
			l0.355-0.623l1.74,1.245l-2.097-3.022l-0.664,0.267V93.8h-1.074l-0.357-1.201h-1.023h-0.357V93.8l-1.022-0.312l-1.432-1.2
			l0.359-0.312v-0.311l-1.739-0.889l-2.097,0.312l-0.664-2.134h-1.073l0.714,1.512l-1.431-0.312l-2.047-1.822l1.381,0.622
			l-2.097-3.956v1.245l-3.118,0.267l-1.433-2.712l-0.308,1.2h-1.073l-1.022-1.2l-3.527-1.2l-2.047-2.134l0.666-3.333h-1.38
			l-2.454-3.645l1.737-5.156h-0.664v-2.4l-2.097-3.333l0.663-1.512l-1.736,0.312l-4.145-4.845V55.04h0.666v-2.134l-1.38-1.511
			l-0.356-3.334l-1.383-1.2l1.739-1.822v-0.312l-1.075,0.312l-0.308-1.512l1.383-1.511h-0.716l-0.667-1.245l-2.095-0.266
			l-1.433-1.823l-2.403-0.623l-1.737-3.956l-2.097,1.511l-1.382-0.578l-0.716,1.822l-2.097,0.889l-1.737-1.201l-1.022-3.956
			l-1.79-2.4l0.717-3.023l-1.023-3.022l0.308-2.756l-2.045,0.623l1.021-2.756l-2.095-1.2v-1.2l-1.739-0.311l-0.356-2.134
			l2.097-1.511l-1.739-0.578l-1.381,0.311l-1.073-0.933V7.167l-1.382-3.645h-1.021l-0.718-1.201V2.9l-1.38,0.623l1.739-2.445
			l-0.359-0.266L323.7,0.5z"/>
	</g>
	<path id="WA_1_" fill="none" stroke="#C133B1" stroke-width="0.5" stroke-miterlimit="10" d="M174.852,215.323v-55.427l0,0V41.083
		h-2.045l-0.665-0.622l-1.381-0.267l-2.098,0.267l1.381,0.934l0.357,1.199l-1.38-1.511l1.021,1.511l-0.357-0.311l-0.357,0.622
		l-0.665-0.622l-0.357,1.244l-0.717-1.556l-0.663,0.934l1.737,4.223h-0.716l-0.358-1.511l-1.738-1.511v2.445l-1.021,0.889l0.664-1.2
		l-0.664-0.933l0.664-0.267l-0.357-1.822l1.073-2.134h-0.716l1.433-0.312l-0.717-0.889l0.717-0.311l-2.455-1.512l-0.358,0.623
		l-3.12-4.268l-2.454-1.199l-0.357-1.201l-1.022-0.311l0.357,0.889l-1.074-0.889l-0.716,0.578v-0.578l-0.665,0.578l-0.716-1.511
		l-2.097-0.578v0.578l-1.38-0.267l0.716,1.511l1.381,0.578l-0.613-0.044l-1.84-0.267l0.357,0.934l-0.717,0.622l-0.306-0.622
		l-0.358,1.822l-1.074-1.822l-0.664,0.311l0.664-1.511l-2.097,1.201l-0.306,0.622l0.664,0.577l-1.381,0.623l-0.357-1.512h-0.665
		l0.665-0.622h-0.665l0.665-0.623l-1.022,0.623l-1.074-0.312v0.623l-0.307-0.623v0.623l2.046,0.889l-1.381,0.934l0.358,0.889
		l-1.023,0.622l0.666,1.201h-1.381v1.511l-1.073-0.889l0.358-1.201l-1.381,0.267V36.55l-1.022,2.4l0.309-2.711l0.715-0.889
		l-1.38-0.622v3.333l-1.073-0.311l-0.665,1.2l-0.359-0.889l-0.715,0.623l0.358-1.245l-1.38,1.245l0.665,0.267l-2.098,0.934
		l1.074,1.2h1.023l-1.381,0.934l2.097,0.577l0.356-0.577l0.665,0.267l-1.38,1.244l1.739,0.578h-1.739l-0.665-0.889l-1.432,0.889
		l-1.023-2.089l-0.715,0.267l0.357,1.244l-2.098,0.267l0.717,0.311l-0.357,0.934l2.096-1.245l-2.096,1.555l0.716,0.578l1.739-0.889
		v0.578h0.665l-1.023,0.934l2.098,1.511l-1.739-1.2l-0.716,0.578l-0.717-1.2l-1.381-0.311v-0.622l-1.021,0.622l-0.716,1.2
		l-0.358-0.578l-0.357,0.889l-1.381-0.311l0.358,0.311l-1.38,0.934l0.665,0.267l-1.022,0.311l1.38,3.334l0.358-0.533v0.222
		l0.716-0.889l-0.613,0.489l0.921-1.423l1.073-0.578l-0.716,0.578h1.074l-1.432,0.934l-0.308,2.134h0.665l-1.38,0.578l0.716,0.311
		l-0.716,0.311l-0.716-1.511l-0.665,2.711l2.403-0.311l1.381,0.622l-3.119,0.311l-0.665-0.623l-0.716,0.623l0.612,0.311
		l-1.636,0.267l1.023-0.267l-1.023-0.311l-1.074-1.2l-2.402-0.934l1.021,0.934h-0.715l0.715,0.889l-1.38-0.889v0.267l-1.739-0.579
		h0.665L118.1,54.11h0.715l-1.38-0.622v0.622l-1.074-0.311l0.358,0.622l-0.664-0.622l0.664,0.933l-0.664,0.312l1.38,0.267
		l0.356,0.622l-1.074-0.312l1.074,0.623h-0.716h-0.356h-1.381l1.738,0.889h-2.402l0.665,0.934l0.358-0.623l1.022,0.311l-1.381,0.889
		l2.454,0.622l0.665,1.822l1.433-0.622v-0.578l0.665,0.266l-1.738,1.512l0.716,0.622l-1.074-0.311l1.791,2.756l-3.171-2.756
		l-1.021,0.311l1.38,2.134l-0.716-0.312l-0.664,1.511v1.512l-2.099-1.822l-1.073-3.023l-1.381-0.889v-2.445h-1.021l-1.075-0.889
		l0.358-1.245l1.072-0.267l-0.716-0.934l-1.074,0.312l-2.045,3.022l1.023,0.934l-2.812-0.311l-0.307,0.889l0.665,1.2l-1.38-0.578
		v0.578l-1.38,0.311l-1.074,1.245l0.715,0.267l-1.739,1.245l-0.356,2.711l1.021,2.134l-0.665,2.089l2.455,0.312v1.2l-4.908,3.067
		l-1.381,0.267l-1.083,1.24l0.718,0.889l-1.738,0.312l0.357,1.2l-1.737,2.756l-4.193,4.534l-9.766,3.645l-2.455,0.266H74.58
		l-1.073,0.623l-1.381,0.889l-1.021-0.889l-3.17-0.623l0.356,0.623v0.312l-0.356-0.312l-0.666-0.311l-0.357,0.311l-2.454,2.711
		l-7.312,1.245v-0.623l-2.762,1.512l0.307,0.622h-1.022l-0.715,1.2l-1.739,0.311v-0.311l-2.761,1.2l-2.097-0.889l-0.357-0.934
		l-2.455,1.245l-1.021-0.312l-0.716-0.311l1.073-1.511h-0.716l-1.738,1.822l0.357,0.312h-0.716l-3.478,1.511l-1.073-0.622
		l-0.307,1.511l-2.812,1.2l-1.022,1.822l-1.737,0.312l-1.739,2.444l-6.646,1.511l-2.762,1.512l-0.357,1.822l-0.716,0.267
		l-0.716-0.267l0.358,1.2l-1.022,1.512l0.664,0.622l-0.664-0.311l0.357,0.578l-1.432,1.511l-0.666-0.889l-1.737,0.889l0.665-2.089
		l-0.665,0.578l-0.358-2.089l1.381-3.645l-2.455,0.622l-3.477,7.246l1.738,3.956l-0.665,1.822l0.356,3.601l-3.526,4.267
		l-0.665,5.423l2.761,3.957l-0.357,0.622l0.715,2.4l1.382,0.934l3.835,6.668l1.073,0.266l0.358,1.512h-1.073l0.358,3.333
		l-1.739,1.822l-1.738-2.4l-0.357-3.333v1.511l-1.738,1.2l0.358-3.333l-2.813-3.911l-1.021,2.4l0.665,0.623v-1.245l1.073,4.579
		l3.478,2.401l-0.357,2.755l-2.097,0.889l-0.357-2.134l-0.308,1.823l-0.715-3.645l-0.359,1.822l-1.38-4.846l0.358,3.957
		l-1.074-0.622v-3.335l-0.306,2.445l-1.434-0.933l9.051,11.512l2.097,4.846l-0.665,1.511l0.665,3.066l3.835,3.911l1.073,1.822
		l-0.357,1.199l3.119,3.646l1.432,4.268l-0.356,5.422v0.621l1.021,4.847l6.954,12.713l0.358,4.532l1.738-0.889v0.578l-1.738,0.311
		l0.357,1.513l-0.716,0.935l0.358,2.133l-1.381,2.401l1.022,6.978l-3.784,3.912h-1.789l-2.046-1.201v6.356l1.381,3.335l0.358-0.578
		l2.045-0.312l3.835,1.821l3.171,4.224l4.193,1.199l0.306-0.89l1.432,0.89H37.31l2.761,1.512l1.074-0.889l2.045,0.889l4.909-0.578
		l2.761,1.513l0.716-1.244l3.119,0.932l0.716-0.309l-1.739-0.623l0.717-1.201l0.665-0.311l-0.358,1.243h2.812l-0.357-0.934
		l2.454-0.312l0.357-1.822l3.119-1.2l0.357-1.199l1.738-0.623l-0.715-0.576l4.551,1.199l0.358-1.199l1.38,0.312v-1.246l1.738,0.312
		l-1.38-1.198l4.856-3.957h1.023l4.55,0.623l1.739-1.201l8.744-0.935l4.5,1.201l2.455-0.89l1.38,2.134h1.739l0.715-1.244
		l2.402,0.621l0.358-0.89l4.551-0.311l1.023,0.578l0.357,1.244l2.454-1.512l1.739,0.578l4.857-4.224l1.432-4.846l1.38-1.244
		l6.29-1.779l12.528-6.397l2.761-0.578l5.267,0.578l5.88-0.269l11.198-3.021L174.852,215.323z M131.338,55.929l-1.737,0.622
		l-0.614-0.578l0.614,0.267L131.338,55.929z M2.788,153.771L0,148.319v3.029l2.789,3.938L2.788,153.771L2.788,153.771z"/>
	<path id="VIC_1_" fill="none" stroke="#C133B1" stroke-width="0.5" stroke-miterlimit="10" d="M402.802,282.798l-1.023-0.889h0.307
		l-1.176-0.934l-2.812-0.179l-13.396-5.778l0.254-1.91l-0.562-1.558l-1.179-1.467l-0.919-1.731l0.309-1.646l-2.304-1.067
		l-1.482,0.489l-1.176,0.399l-1.229,0.179l-1.736,0.487l-2.403,0.578l-3.17-0.668l-1.738-0.844l-1.433,0.445l-1.073,0.977
		l-1.942-0.311l-1.994-0.799l-1.483,0.178l-2.353-1.023l-3.016,0.4l-1.381-0.623l-1.178,0.133l-0.816,0.937l0.409,2.088
		l-2.148,0.267l-2.659-0.978l-2.097-1.334l-0.613-1.822l-3.223-2.532l-2.656-0.979l-1.84-0.043l-2.354-2.937l-1.023-3.91
		l-1.636-0.578l-2.812-0.178l-1.585-0.311l-1.737,0.754l-0.053,1.379l-1.79-1.379l-0.817-2.889l-2.812-2.045l-3.478-0.355
		l-2.863-0.398l-1.688,1.021l-3.017-1.244l-1.842,0.266l-0.104-0.311v40.404l0.718,0.045l3.834,2.711v1.51l1.076-0.309l1.021,0.621
		l2.097-2.135l4.193,1.821l2.761-0.621l12.886,6.091l5.268-4.533l4.144-2.445h2.453l0.717-1.822l-2.455,0.623l-1.381-0.936h1.739
		l4.498-3.021l2.097,3.645l-2.097,2.4l-3.118-0.578l3.118,2.4l2.097-1.201l1.073,0.312l0.309-2.443h2.454l0.718,1.822l-1.383,0.309
		l-0.356,1.824l2.403,1.512l2.454-0.312l0.355,0.623l-1.021-0.311l1.736,2.711l1.381-0.889l1.383,0.621l-0.359-0.934l1.431,2.444
		l1.74,1.512l0.666-3.956l-2.097,1.2l-0.666-2.399h3.477l4.145-1.201l6.646-6.09l4.548-2.398l-5.57,2.09l3.12-1.779l-0.104-0.133
		l-0.921-0.801l2.403,0.623l2.812-0.934l-0.358,0.621l15.339-1.199L402.802,282.798z"/>
	<g id="SA_1_">
		<path id="SA-mainland_1_" fill="none" stroke="#C133B1" stroke-width="0.5" stroke-miterlimit="10" d="M306.261,288.532v-40.404
			v-0.045v-64.096v-24.091h-33.952l0,0h-97.458v55.427l0.767-0.355l10.79-0.934l1.738-0.311l7.004,0.623l3.836-1.822l6.596,3.021
			l4.908,3.334h3.12l-0.359-0.578l0.717-0.311h2.402l4.193,3.021h4.193l-1.075-0.889l0.717-0.311l0.716,0.578l0.663-0.892
			l3.837,3.334l-1.023,0.312v1.51l2.098-0.932l1.381,0.312l1.38,2.442l-1.022,1.201l0.358-0.934h-1.739l0.666,1.246l-0.666,0.887
			l1.381,0.312l-0.715,0.889l2.098,1.822l-0.666-1.822l1.022,1.822l1.023-0.578l2.095,1.201l-1.023-0.89l1.741,0.267l-0.718,0.623
			l2.097,2.444v1.777l3.836,3.065l2.098,8.18l0.356-0.936l0.356,0.936l0.667,0.267l-1.381,0.312l-0.716-1.199l0.355-0.312
			l-1.38-0.311v-0.576l-1.073,1.822l1.432-0.623l4.192,4.533l1.739-0.89l1.737,1.822l0.664-3.334l-2.401,0.89l1.022-0.621l0.354-2.4
			l1.383-0.623l0.716,0.623v-2.135l5.216-5.154l4.192-1.824l-1.073,0.312l0.716-1.201l0.716,0.623l2.402-0.623l2.456-6.045
			l2.096-2.133l1.381,0.623v-6.09l1.739,3.331l0.356,2.759l1.022,0.889l-2.762,2.133l2.098,3.334l-4.193,3.645l-1.022,2.711
			l-0.715,0.312l0.715,1.822l-1.073,1.777l0.717-0.267l0.356,1.776l-0.715,3.646l-0.716,0.621l-4.144-0.933l-1.788,4.576
			l3.526-0.309l2.762-1.822l2.454,0.887l1.381-0.577l-0.717-0.621l1.738-3.334l0.357-3.023l2.097-4.221l4.91,7.334l0.307,0.533
			l-0.664,0.311l-0.358-0.934l-0.359,6.668l-3.834,3.021l4.91,0.312l2.044-1.512l1.79,0.311l5.217,3.602l-5.217-3.289l4.5,3.021
			l2.966,3.334l-2.249-3.021l1.737,1.199l2.097,3.955l-0.921-1.244l2.658,6.09l-0.356,1.513l-1.737,1.512l1.379,1.822l-0.662,0.889
			l2.761,3.332l4.037,4.714l0.154,0.444l2.097,1.51L306.261,288.532z"/>
	</g>
	<g id="TAS_1_">
		<path id="TAS-mainland_1_" fill="none" stroke="#C133B1" stroke-width="0.5" stroke-miterlimit="10" d="M379.823,349.456
			l-0.696,1.816l1.394,0.303l-0.696,0.606l1.045,1.209l1.046-0.303v-1.211l1.396,1.514l-0.7-2.725l-1.74,0.303L379.823,349.456z
			 M386.791,332.489l-0.694-1.814l1.045-2.424l-1.045-0.908l1.045-2.424l-2.789-3.029l-1.743-0.305l-0.694,1.82l-2.091-0.91
			l-2.438,2.424l-1.742-0.91l-1.743,1.213l-1.394-0.604l-2.438,0.908l1.741,1.516l-0.352,0.605l-2.091-2.121l-1.74,1.213
			l0.345,1.213l-0.692-1.516l-3.137,0.604l-8.017-4.244h-2.09l-0.698-1.512v1.211l-1.393-0.303v0.604l-4.88-2.117l0.352,2.423
			l-1.048,1.817l1.394,5.148l2.443,3.03l-0.701,0.604l3.487,3.938v2.726l1.044-0.908l1.743,2.728h0.696l-0.696,2.12l-0.349-1.815
			l-3.14-2.426l1.046,5.453l1.048,0.303l1.74,4.543l1.744,0.606l1.739,3.33h1.05l-0.7-0.303l0.7-1.211l0.696,1.818h2.786
			l-0.35,0.604l-2.438-0.604v0.907l-0.696-0.303l1.043,2.426l2.439-0.912l3.829,0.607l-0.345-0.908l1.392,2.119h2.091l1.396-1.818
			l-1.047-0.907l1.395,0.305l0.35-1.213l-1.046-0.303l1.396-0.607l-1.396-1.512l0.35-0.607v0.908l0.696,0.604l0.352-0.905v0.905
			l1.391,0.605l0.35-3.33l1.05,0.303v-1.815l-1.747-2.424l2.438,2.727l0.696-0.303l-0.696,1.815l1.396-0.91l-0.352-1.512
			l1.047-0.303l-1.743-0.91l1.743,0.301l0.696,1.519l1.396-0.304l1.74-2.729l-1.045-1.514l1.396-0.605l0.347-2.424l-1.047,0.303
			l1.743-3.029h1.047l-1.047-0.301l1.395-1.819l-0.696,1.819l1.741,0.603v1.819l0.701-0.909l-1.048-2.121L386.791,332.489z"/>
	</g>
	<path id="ACT_1_" opacity="0.05" fill="none" stroke="#C133B1" stroke-width="0.5" stroke-miterlimit="10" d="M391.01,257.319
		c0.745-0.025,1.517,0.082,2.222,0.363c0.604,0.241,0.804,0.584,0.764,0.967c-0.038,0.381-0.345,0.805-0.69,1.268
		c-0.701,0.924-1.656,1.943-1.601,2.84c-0.127,0.49-0.71,1.557-1.529,1.691c-0.408,0.068-0.903-0.096-1.388-0.664
		c-0.48-0.572-0.974-1.568-1.463-3.141c-0.295-0.961,0.052-1.775,0.767-2.357C388.803,257.706,389.885,257.358,391.01,257.319z"/>
</g>
</svg>
