<?xml version="1.0" encoding="utf-8"?>
<!-- Generator: Adobe Illustrator 16.0.3, SVG Export Plug-In . SVG Version: 6.00 Build 0)  -->
<!DOCTYPE svg PUBLIC "-//W3C//DTD SVG 1.1//EN" "http://www.w3.org/Graphics/SVG/1.1/DTD/svg11.dtd">
<svg version="1.1" id="Layer_1" xmlns="http://www.w3.org/2000/svg" xmlns:xlink="http://www.w3.org/1999/xlink" x="0px" y="0px"
	 width="476px" height="411px" viewBox="0 0 476 411" enable-background="new 0 0 476 411" xml:space="preserve">
<rect y="15" fill="#0B6EB8" width="476" height="396"/>
<rect x="8" y="23.123" fill="#D0E3F0" width="462" height="381.754"/>
<path fill="#FFFFFF" d="M469.5,314c0-47,0-290.877,0-290.877H290H187.5H8C8,23.123,8,267,8,314c0,69-5,86-5,86l471.5-10
	C474.5,390,469.5,384,469.5,314z"/>
<rect x="8" y="23.123" fill="#79B5E0" width="462" height="90"/>
<g>
	<path fill="#FFFFFF" d="M145.141,90.5h-9.688V52.875h-12.406v-8.062h34.5v8.062h-12.406V90.5z"/>
	<path fill="#FFFFFF" d="M206.047,67.594c0,7.562-1.875,13.375-5.625,17.438s-9.125,6.094-16.125,6.094s-12.375-2.031-16.125-6.094
		s-5.625-9.896-5.625-17.5c0-7.604,1.88-13.411,5.641-17.422c3.76-4.01,9.151-6.016,16.172-6.016c7.021,0,12.391,2.021,16.109,6.062
		C204.188,54.198,206.047,60.011,206.047,67.594z M172.703,67.594c0,5.104,0.969,8.948,2.906,11.531
		c1.938,2.583,4.833,3.875,8.688,3.875c7.729,0,11.594-5.135,11.594-15.406c0-10.292-3.844-15.438-11.531-15.438
		c-3.854,0-6.761,1.297-8.719,3.891C173.682,58.641,172.703,62.49,172.703,67.594z"/>
	<path fill="#FFFFFF" d="M253.422,67.219c0,7.521-2.141,13.281-6.422,17.281s-10.464,6-18.547,6h-12.938V44.812h14.344
		c7.458,0,13.25,1.969,17.375,5.906S253.422,60.156,253.422,67.219z M243.359,67.469c0-9.812-4.334-14.719-13-14.719h-5.156V82.5
		h4.156C238.692,82.5,243.359,77.49,243.359,67.469z"/>
	<path fill="#FFFFFF" d="M290.859,90.5l-3.312-10.875h-16.656L267.578,90.5h-10.438l16.125-45.875h11.844L301.297,90.5H290.859z
		 M285.234,71.5c-3.062-9.854-4.787-15.427-5.172-16.719c-0.386-1.292-0.662-2.312-0.828-3.062
		c-0.688,2.667-2.656,9.261-5.906,19.781H285.234z"/>
	<path fill="#FFFFFF" d="M321.266,63.625l9.531-18.812h10.438l-15.156,27.906V90.5h-9.625V73.031l-15.156-28.219h10.5
		L321.266,63.625z"/>
</g>
<path fill="#FFFFFF" d="M187.5,23.123"/>
<circle fill="#0B6EB8" cx="85.5" cy="68.123" r="17.5"/>
<circle fill="#0B6EB8" cx="377.5" cy="68.123" r="17.5"/>
<g>
	<path fill="#D0E3F0" d="M97,14c0-7.7-5.4-14-12-14S73,6.3,73,14v51c0,7.7,5.4,14,12,14s12-6.3,12-14V14z"/>
</g>
<g>
	<path fill="#D0E3F0" d="M389.25,14c0-7.7-5.4-14-12-14s-12,6.3-12,14v51c0,7.7,5.4,14,12,14s12-6.3,12-14V14z"/>
</g>
</svg>
