<?xml version="1.0" encoding="utf-8"?>
<!-- Generator: Adobe Illustrator 16.0.3, SVG Export Plug-In . SVG Version: 6.00 Build 0)  -->
<!DOCTYPE svg PUBLIC "-//W3C//DTD SVG 1.1//EN" "http://www.w3.org/Graphics/SVG/1.1/DTD/svg11.dtd">
<svg version="1.1" id="Layer_1" xmlns="http://www.w3.org/2000/svg" xmlns:xlink="http://www.w3.org/1999/xlink" x="0px" y="0px"
	 width="110px" height="805.062px" viewBox="0 0 110 805.062" enable-background="new 0 0 110 805.062" xml:space="preserve">
<g>
	<path fill="#C133B1" d="M75.425,781.827v1.531c0.484,0.826,0.984,1.656,1.501,2.491l0.01,0.007l0.008,0.005l0.001,0.008
		l0.003,0.014c3.203,5.17,7.031,10.503,11.482,15.999h0.525c0.521,0,0.992,0.167,1.34,0.439c0.038,0.027,0.075,0.057,0.111,0.087
		l0.001-0.001c0.335,0.281,0.543,0.667,0.543,1.088v1.304v0.263h-0.379H77.04h-0.38v-0.048h-0.064v-0.263v-2.229
		c0-0.146,0.066-0.283,0.175-0.392c-0.803-3.14-2.99-5.95-6.109-8.112c-3.983-2.763-9.487-4.472-15.564-4.472
		c-6.076,0-11.58,1.709-15.563,4.472c-3.149,2.185-5.349,5.027-6.132,8.205c0.084,0.1,0.133,0.219,0.133,0.346v2.229v0.263h-0.379
		H19.623h-0.379v-0.263v-1.304c0-0.421,0.208-0.807,0.543-1.088l0.001,0.001c0.353-0.296,0.843-0.479,1.387-0.479h0.537
		c5.204-6.421,9.557-12.62,13.058-18.596v-1.507h-0.346h-0.03v-0.021v-0.521v-0.021h0.03h0.346v-0.5v-0.021h0.03h0.364v-1.913H34.8
		h-0.03v-0.021v-0.521v-0.021h0.03h2.761c0.094-0.181,0.187-0.362,0.278-0.543c1.638-3.229,3.016-6.39,4.134-9.483h-0.001
		l0.003-0.005c1.148-3.179,2.021-6.286,2.619-9.321l-1.075-0.951h-0.074h-0.03v-0.021v-0.078v-1.226v-0.021h0.03h0.722v-0.813
		v-0.021h0.03h1.037c0.587-2.222,1.135-4.758,1.645-7.606l-0.005-0.005l0.007-0.005c0.813-4.553,1.527-9.903,2.143-16.057
		c1.064-10.644,1.831-23.671,2.301-39.079l-0.116-0.744l-1.021-2.217h-0.02v-0.021v-1.303v-0.021h0.03h0.311v-0.003l0.83,0.002
		l0.042-0.03v-0.841l-0.113-0.08l-0.677,0.002l-0.002-0.275h-0.03v-0.021v-0.912v-0.021h0.03h0.346v-0.35h-0.346h-0.03v-0.021
		v-0.913v-0.021h0.03h0.339l3.007-2.084v-0.002c0.114-0.078,0.28-0.106,0.457-0.087c0.037,0.005,0.075,0.01,0.114,0.019v-0.809
		h-0.346h-0.03v-0.021v-0.652v-0.021h0.03h0.346v-0.688h-0.346h-0.03v-0.021v-0.651v-0.021h0.03h0.346v-0.558h-0.346h-0.03v-0.021
		v-0.652v-0.021h0.03h0.346v-0.531h-0.346h-0.03v-0.021v-0.651v-0.021h0.03h0.346v-0.648v-0.021h0.029h0.252v-5.163v-0.021h0.03
		h0.563h0.031v0.021v5.164h0.251h0.03v0.021v0.646h0.346h0.03v0.021v0.652v0.021h-0.03h-0.346v0.53h0.346h0.03v0.021v0.652v0.021
		h-0.03h-0.346v0.558h0.346h0.03v0.021v0.651v0.021h-0.03h-0.346v0.688h0.346h0.03v0.021v0.651v0.021h-0.03h-0.346v0.804
		c0.027-0.005,0.055-0.009,0.081-0.012c0.176-0.02,0.343,0.008,0.457,0.087l3.006,2.086h0.373h0.03v0.021v0.913v0.021h-0.03h-0.346
		v0.349h0.346h0.03v0.021v0.912v0.021h-0.03h-0.001l0.002,0.249l-0.651,0.002l-0.127,0.092v0.865l0.053,0.037l0.566,0.002l0,0h0.03
		h0.515h0.03v0.021v1.304v0.02H60l-0.993,2.125l-0.147,0.906c0.135,4.396,0.294,8.597,0.477,12.603l0.011,0.009l-0.011,0.009
		c0.457,9.998,1.063,18.787,1.821,26.368c1.001,10.008,2.264,17.899,3.789,23.674h1.052h0.03v0.021v0.812h0.722h0.03v0.021v1.226
		v0.078v0.021h-0.03h-0.091l-1.098,0.827c1.174,6.027,3.434,12.339,6.779,18.933c0.092,0.182,0.185,0.362,0.277,0.544h2.776h0.03
		v0.021v0.521v0.021h-0.03H75.03v1.913h0.364h0.03v0.021v0.5h0.346h0.03v0.021v0.521v0.021h-0.03H75.425L75.425,781.827
		L75.425,781.827z M46.771,778.266h16.638c-0.062-0.173-0.125-0.346-0.187-0.521l-0.015-0.006l0.009-0.012
		c-1.416-4.02-2.574-8.566-3.787-14.299h-8.68c-0.749,3.546-1.479,6.638-2.261,9.432l0.004,0.004l-0.006,0.004
		C47.948,774.792,47.385,776.574,46.771,778.266L46.771,778.266z"/>
</g>
<path fill-rule="evenodd" clip-rule="evenodd" fill="#C133B1" d="M11.38,365.283c0.098,0.41,0.195,0.82,0.292,1.23
	c0,0.582,0,1.164,0,1.745c0.16,0.786,0.319,1.568,0.479,2.351c0,0.421,0,0.834,0,1.251c0.239,0.68,0.479,1.361,0.718,2.04
	c0.312,1.424,0.626,2.854,0.937,4.281c0.319,1.44,0.637,2.88,0.955,4.318c0.521,2.037,1.162,4.172,1.893,6.045
	c0.588,1.506,1.026,3.074,1.782,4.371c0.179,0.35,0.354,0.702,0.533,1.048c0.34,0.42,0.923,0.65,1.507,0.827
	c0.24,0.062,0.479,0.123,0.719,0.184c0.354,0.215,0.706,0.43,1.063,0.646c0.901,0.548,1.803,1.101,2.7,1.652
	c1.053,0.497,2.107,0.992,3.162,1.488c1.648,0.818,3.294,1.641,4.94,2.46c0.179,1.047,0.799,1.723,1.712,2.021
	c0.108,0.896,0.356,1.513,0.936,1.932c0.43-0.031,0.709-0.072,0.975-0.22c0.056,0.507,0.109,1.017,0.164,1.523
	c0.312,0.145,0.625,0.294,0.938,0.441c0.257,0.15,0.459,0.416,0.844,0.422c0.115,0.694,0.235,1.384,0.351,2.075
	c0.229,0.533,1.047,1.229,1.582,1.451c0.28,0.059,0.562,0.111,0.843,0.169c0.394-0.48,0.782-0.957,1.177-1.436
	c0.338,0.325,0.673,0.647,1.01,0.973c0.062,0.835,0.122,1.668,0.185,2.504c0.104,1.449,0.207,2.9,0.312,4.353
	c0.066,0.901,0.136,1.799,0.202,2.7c-0.118,0.423-0.231,0.846-0.352,1.267c-0.064,0.265-0.13,0.527-0.199,0.792
	c-0.595,0.894-1.189,1.788-1.783,2.681c-0.573,1.428-1.151,2.856-1.726,4.281c-1.027,2.423-2.166,4.71-2.757,7.549
	c-0.104,1.26-0.208,2.515-0.313,3.772c-0.164,1.335-0.329,2.669-0.493,4.007c-0.045,1.437-0.088,2.875-0.13,4.312
	c-0.098,1.848-0.195,3.692-0.294,5.533c-0.058,0.776-0.11,1.554-0.166,2.335c-0.056,0.629-0.109,1.264-0.165,1.896
	c-0.394,2.426-0.307,5.074-0.737,7.417c-0.255,1.975-0.512,3.948-0.768,5.919c-0.076,0.237-1.062,0.971-1.289,1.211
	c-0.084,0.152-0.17,0.302-0.256,0.453h45.953c-0.018-0.021-0.037-0.043-0.055-0.064c-0.275-0.339-1.344-0.506-1.581-0.811
	c-0.604-1.082-1.21-2.166-1.819-3.252c-0.35-0.598-0.689-1.224-1.084-1.779c-0.298-0.432-0.601-0.861-0.898-1.291
	c-0.926-2.104-1.606-4.322-2.336-6.631c-0.39-1.151-0.783-2.301-1.174-3.454c-0.388-1.284-0.773-2.573-1.157-3.856
	c-0.412-1.222-0.821-2.44-1.232-3.657c-0.024-0.878-0.049-1.753-0.071-2.633c-0.189-0.907-0.38-1.821-0.572-2.733
	c-0.282-0.617-0.563-1.239-0.845-1.857c0.026-0.5,0.048-1.001,0.073-1.506c0.003-0.239-0.043-0.648-0.018-0.735
	c0.839-0.617,1.679-1.239,2.516-1.854c0.611-0.405,1.226-0.81,1.838-1.213c0.471-0.171,0.946-0.346,1.416-0.516
	c0.228-0.176,0.453-0.356,0.679-0.532c1.177-0.887,2.353-1.777,3.529-2.666c2.268-2.217,4.531-4.434,6.799-6.648
	c0.324-0.318,0.649-0.639,0.974-0.957c1.202-0.963,2.08-2.235,3.015-3.472c0.367-0.473,0.731-0.943,1.101-1.413
	c0.253-0.571,0.503-1.142,0.753-1.711c0.354-0.771,0.711-1.544,1.067-2.315c0.248-0.99-0.254-1.637-0.534-2.278
	c-0.269-0.636-0.537-1.275-0.811-1.911c-0.342-0.515-0.685-1.03-1.026-1.544c-0.241-0.375-0.479-0.747-0.717-1.121
	c1.177-2.062,2.352-4.129,3.528-6.19c-0.009-0.011-0.013-0.026-0.02-0.039c-0.458-0.34-0.917-0.686-1.377-1.026
	c-0.148-0.109-0.438-0.217-0.479-0.421c0.049-0.254,0.098-0.505,0.146-0.755c-1.188-0.583-2.377-1.165-3.564-1.746
	c0.009-0.569-0.017-1.157-0.166-1.582c-0.194-0.089-0.392-0.183-0.589-0.275c-0.509-0.126-1.312-0.1-1.815-0.016
	c-0.496,0.022-0.993,0.047-1.491,0.07c-1.164,0.223-2.352,0.615-3.711,0.681c-0.898-1.181-2.062-2.204-3.288-3.066
	c-0.196-0.143-0.391-0.282-0.586-0.424c-0.57-0.164-1.143-0.33-1.712-0.496c-0.771-0.049-1.542-0.098-2.314-0.146
	c-2.062-0.373-4.294-0.622-5.971-1.342c-0.258-0.107-0.516-0.21-0.773-0.313c-0.134-0.201-0.27-0.405-0.403-0.605
	c-0.229-0.342-1.12-2.26-0.974-2.849c0.166-0.237,0.331-0.477,0.496-0.718c0.338-0.204,0.816,0.152,1.176,0.203
	c0.434-0.378,0.962-0.634,1.322-1.084c0.202-0.29,0.405-0.576,0.606-0.863c0.619-0.514,1.464-0.416,1.908-1.159
	c0.053-0.231,0.101-0.466,0.151-0.698c0.22-0.903,0.274-1.683,0.274-2.884c0-0.335,0-0.674,0-1.012
	c-0.055-0.427-0.11-0.854-0.165-1.282c0.189-0.192,0.379-0.383,0.568-0.57c0.362-0.126,0.723-0.245,1.083-0.369
	c0.139-0.901,0.764-2.058,0.461-3.067c-0.243-0.276-0.489-0.552-0.734-0.827c-0.565-0.708-1.887-1.278-2.774-1.674
	c-0.367-0.208-0.737-0.417-1.102-0.623c-0.411,0.055-0.819,0.108-1.232,0.166c-0.427-0.569-0.855-1.139-1.288-1.71
	c-0.929-0.755-1.93-1.277-3.123-1.782c-0.312-0.136-0.623-0.27-0.937-0.405c-0.772-0.146-1.542-0.294-2.316-0.439
	c-0.426,0.035-0.856,0.072-1.283,0.11c-0.258,0.015-0.517,0.035-0.772,0.057c-1.096,0.304-2.248,0.788-3.104,1.375
	c-0.332,0.312-0.663,0.626-0.993,0.938c-0.482,0.402-0.968,0.809-1.45,1.212c-0.124,0.323-0.246,0.648-0.369,0.977
	c-0.71,1.732-1.229,4.247-0.79,6.428c0.062,0.418,0.122,0.834,0.185,1.249c-0.275-0.06-0.549-0.122-0.826-0.182
	c0,0.013,0,0.025,0,0.038c-0.301,0.604,0.188,1.219,0.313,1.688c-0.034,0.338-0.062,0.672-0.097,1.011
	c0.225,0.83,0.803,1.605,1.142,2.354c0.081,0.494,0.159,0.991,0.237,1.486c0.251,0.021,0.608,0.103,0.792,0.221
	c0.165,0.271,0.332,0.538,0.496,0.808c0.288,0.485,0.576,0.968,0.863,1.452c0.239,0.228,0.479,0.452,0.716,0.679
	c0.257,0.253,0.515,0.506,0.772,0.754c0.022,0.02,0.096,0.07,0.111,0.039c0.047,0.328,0.099,0.66,0.146,0.989
	c0.204,1.045-0.019,2.258-0.294,3.106c-0.056,0.201-0.11,0.403-0.166,0.604c-0.353,0.303-0.709,0.604-1.064,0.902
	c-0.364,0.286-0.656,0.789-1.229,0.846c-0.652-0.489-2.235-1.151-3.162-1.321c0.012-0.577,0.024-1.156,0.038-1.727
	c0.373-0.785,0.745-1.569,1.118-2.354c-0.028-0.273-0.059-0.553-0.091-0.825c-0.115-0.66-0.126-1.324-0.126-2.04
	c-1.659-0.82-3.909,0.681-5.863,0.145c0.081,0.215,0.159,0.432,0.236,0.643c-0.036,0.149-0.071,0.299-0.108,0.442
	c-0.833,0.044-1.665,0.088-2.499,0.129c-0.278,0.27-0.551,0.54-0.827,0.809c-0.459,0.101-0.92,0.195-1.377,0.294
	c-0.021,0.286-0.036,0.576-0.056,0.866c-0.007,0-0.014,0-0.019,0c-0.17-0.615-0.341-1.228-0.514-1.841
	c-0.607,0.271-1.212,0.541-1.818,0.812c-0.542,0.368-0.938,0.955-1.415,1.395c-0.891-0.24-1.778-0.479-2.667-0.719
	c-1.408-0.531-2.816-1.064-4.226-1.598c-0.287-0.256-0.575-0.515-0.86-0.771c-0.371-0.298-0.734-1.188-0.978-1.637
	c-0.063-0.12-0.287-0.474-0.236-0.551c0.287-0.189,0.574-0.381,0.864-0.569c1.142-0.762,2.483-1.332,3.693-2.04
	c0.343-0.171,0.687-0.343,1.026-0.512c0.664-0.604,1.323-1.203,1.985-1.803c0.688-0.606,1.373-1.212,2.06-1.819
	c0.685-0.923,1.37-1.849,2.056-2.773c0.59-0.805,1.275-1.584,1.802-2.442c0.612-1.392,1.226-2.783,1.838-4.173
	c0.129-0.717,0.258-1.432,0.385-2.147c0.946-4.295,0.471-9.429-0.88-12.902c-0.189-0.558-0.379-1.113-0.573-1.672
	c-0.416-0.758-0.831-1.52-1.248-2.277c-0.227-0.434-0.451-0.869-0.681-1.303c-0.275-0.295-0.55-0.588-0.824-0.885
	c-0.573-0.708-1.217-1.362-1.858-2.003c-0.477-0.495-0.954-0.991-1.434-1.486c-0.808-0.639-1.614-1.273-2.425-1.911
	c-1.834-1.236-4.159-2.373-6.413-3.143c-0.377-0.073-0.759-0.146-1.136-0.219c-1.366-0.338-2.908-0.449-4.393-0.734
	c-0.104,0.973-0.21,1.947-0.312,2.918c-0.218,2.016-0.43,4.031-0.647,6.047c-0.108,0.942-0.218,1.888-0.326,2.829
	c-0.328,1.858-0.458,4.005-0.46,6.1c-1.115-0.14-2.283-0.567-2.867,0.46c0.165,0.727,0.33,1.459,0.496,2.188
	c-0.317,0.298-1.369,1.782-1.434,2.258c0.031,0.205,0.06,0.406,0.09,0.608c-0.145,0.159-0.291,0.319-0.439,0.478
	C11.317,364.536,11.347,364.91,11.38,365.283z M66.115,437.75c-0.004,0-0.013,0-0.02,0c0-0.116,0-0.232,0-0.348
	c0.372-0.222,0.736-0.442,1.106-0.662C67.093,437.033,66.381,437.556,66.115,437.75z M67.255,434.389
	c-0.287,0.248-0.574,0.499-0.863,0.75c-0.007,0-0.011,0-0.018,0c0.027-0.562,0.048-1.122,0.073-1.687c0.08,0,0.16,0,0.237,0
	c0.216,0.279,0.431,0.564,0.646,0.842C67.304,434.326,67.281,434.357,67.255,434.389z M70.047,417.372
	c0.44-1.731,0.882-3.466,1.324-5.198c0.227-0.081,0.453-0.159,0.678-0.239c-0.009,0.577-0.044,1.397,0.168,1.802
	c0.185,0.097,0.368,0.194,0.552,0.292c0.159-0.115,0.317-0.232,0.478-0.348c0.043-0.178,0.084-0.356,0.129-0.534
	c0.087-0.184,0.169-0.367,0.256-0.549c0.007,0,0.013,0,0.021,0c0.137,1.061,0.35,2.299,0.716,3.212
	c0.227,0.057,0.452,0.114,0.679,0.168c0.355-0.339,0.71-0.675,1.065-1.013c0.192-0.277,0.232-0.644,0.479-0.86
	c0.343,0.105,1.858,0.315,2.222,0.163c0.325-0.133,1.569-0.896,1.839-0.809c0.491,0.59,0.979,1.177,1.469,1.764
	c-0.226,0.104-0.61,1.19-0.751,1.471c-0.7,1.415-1.396,2.829-2.097,4.245c-0.582,0.758-1.162,1.516-1.743,2.277
	c-0.478,0.478-0.956,0.956-1.433,1.433c-0.545,0.675-1.236,1.33-1.913,1.875c-0.528,0.497-1.055,0.993-1.579,1.488
	c-1.093,0.738-2.478,0.854-4.063,1.139c-0.489,0.061-0.978,0.123-1.47,0.184c-0.161-0.344-0.556-0.396-1.063-0.402
	C67.397,425.072,68.816,421.334,70.047,417.372z M16.875,369.858c0.232,1.09,0.462,2.18,0.696,3.271
	c0.294,1.18,0.636,2.278,0.514,3.653c-0.004-0.011-0.011-0.024-0.017-0.035c-0.173-0.467-0.344-0.931-0.515-1.396
	C17.012,373.969,16.01,371.518,16.875,369.858z"/>
<path fill="#C133B1" d="M101.05,191.073c1.699-0.894,3.456-1.817,3.963-3.546l0.216-0.733l-0.759,0.097
	c-1.39,0.177-2.388,0.918-3.268,1.571c-0.619,0.458-1.167,0.866-1.739,0.994c0.322-1.051,1.4-1.743,2.533-2.469
	c1.291-0.828,2.625-1.684,2.995-3.174l0.182-0.733l-0.745,0.119c-1.127,0.179-1.844,0.96-2.419,1.588
	c-0.34,0.371-0.645,0.703-0.954,0.84c0.257-0.954,1.203-2.104,1.864-2.908c0.812-0.986,1.301-1.582,0.863-2.08l-0.443-0.505
	l-0.356,0.57c-0.294,0.47-0.54,0.763-0.771,0.959l-0.094-0.349c0.066-0.417,0.284-0.925,0.496-1.417
	c0.378-0.876,0.734-1.705,0.425-2.375c-0.152-0.329-0.438-0.559-0.849-0.685l-0.517-0.159l-0.118,0.528
	c-0.064,0.29-0.181,0.627-0.304,0.989c-0.324,0.95-0.689,2.02-0.493,2.962l-0.062,0.217c-0.309-1.128-0.413-1.212-0.775-1.212
	l-0.224,0.004l-0.148,0.158c-0.187,0.199-0.176,0.37-0.116,1.318c0.071,1.126,0.09,2.025,0.056,2.693
	c-0.225-1.071-0.46-2.175-1.222-2.618l-0.597-0.347l-0.144,0.675c-0.208,0.979,0.003,2.146,0.206,3.274
	c0.292,1.614,0.45,2.808-0.059,3.528c-0.142-0.588-0.156-1.21-0.171-1.818c-0.026-1.104-0.054-2.245-0.883-3.064l-0.609-0.602
	l-0.225,0.826c-0.361,1.329-0.152,2.937,0.049,4.493c0.21,1.613,0.41,3.157,0.015,4.307c-0.207-0.87-0.25-1.506-0.295-2.169
	c-0.062-0.917-0.127-1.865-0.604-3.448l-0.211-0.698l-0.575,0.448c-1.631,1.272-1.245,3.527-0.872,5.708
	c0.281,1.641,0.549,3.208-0.033,4.21c-0.304-1.122-0.433-2.316-0.558-3.478c-0.154-1.422-0.299-2.767-0.771-3.74l-0.365-0.752
	l-0.49,0.677c-1.158,1.6-0.776,3.958-0.407,6.237c0.352,2.174,0.688,4.248-0.255,5.519c-0.137-2.755-0.523-5.423-1.178-8.122
	l-0.168-0.69l-0.593,0.39c-2.142,1.407-1.562,4.479-1.002,7.452c0.539,2.865,0.802,4.78-0.257,5.555
	c-0.025-0.356-0.048-0.725-0.07-1.103c-0.174-2.871-0.371-6.124-1.804-8.636l-0.324-0.567l-0.463,0.46
	c-1.697,1.686-1.212,4.758-0.743,7.729c0.397,2.518,0.776,4.915-0.233,6.022c-0.109-0.857-0.198-1.636-0.283-2.379
	c-0.28-2.453-0.521-4.571-1.348-7.82l-0.167-0.658l-0.579,0.354c-2.636,1.616-1.935,4.953-1.258,8.18
	c0.596,2.835,1.161,5.528-0.474,6.883c-0.098-0.753-0.187-1.474-0.272-2.172c-0.443-3.609-0.826-6.726-1.987-10.281l-0.253-0.773
	l-0.576,0.575c-2.301,2.298-1.643,5.945-1.006,9.471c0.628,3.477,1.223,6.777-1.097,8.371c-0.114-3.955-0.438-8.568-2.068-13.874
	l-0.229-0.748l-0.582,0.523c-2.912,2.615-2.083,8.017-1.281,13.242c0.223,1.457,0.436,2.84,0.558,4.119
	c-0.363,0.194-0.676,0.49-0.98,0.779c-0.321,0.304-0.651,0.618-0.918,0.661c0.17-4.628-0.656-9.868-2.457-15.582l-0.272-0.866
	l-0.586,0.693c-2.777,3.286-1.915,8.54-1.081,13.622c0.262,1.593,0.531,3.237,0.682,4.786c-0.561,0.666-1.105,1.298-2.065,1.686
	c-0.067-5.3-1.576-12.481-2.729-17.509l-0.257-1.12l-0.645,0.952c-3.245,4.791-2.09,10.675-0.753,17.489
	c0.165,0.84,0.333,1.694,0.496,2.562c-0.585,0.775-1.149,1.426-2.014,1.895c-0.302-3.93-1.079-8.162-1.832-12.264
	c-0.354-1.932-0.709-3.864-1.017-5.769l-0.17-1.053l-0.701,0.804c-4.057,4.654-2.173,12.52-0.084,20.885
	c-0.65,0.353-1.098,0.803-1.534,1.24c-0.369,0.37-0.724,0.726-1.197,1.005c0.369-3.633-0.583-7.831-1.587-12.254
	c-0.5-2.203-1.016-4.479-1.378-6.742l-0.152-0.948l-0.689,0.668c-4.458,4.318-2.542,14.322-0.298,22.682
	c-0.62,0.391-1.034,0.879-1.437,1.354c-0.394,0.465-0.75,0.884-1.275,1.197c0.157-4.578-1.279-11.369-4.377-20.707l-0.313-0.943
	l-0.571,0.813c-3.655,5.207-3.22,13.487,1.291,24.614c-0.4,0.342-0.765,0.774-1.121,1.195c-0.684,0.809-1.333,1.576-2.153,1.729
	c0.547-4.148-0.899-9.548-2.425-15.248c-0.716-2.672-1.456-5.436-1.965-8.037l-0.193-0.988l-0.67,0.751
	c-5.144,5.765-2.491,16.72,1.002,28.43c-0.437,0.395-0.757,0.839-1.068,1.271c-0.363,0.503-0.692,0.959-1.172,1.317
	c0.483-4.744-1.369-9.824-3.322-15.181c-1.212-3.324-2.465-6.761-3.148-10.17l-0.16-0.8l-0.64,0.506
	c-2.882,2.28-3.777,7.135-2.588,14.04c0.878,5.1,2.921,11.332,5.479,16.729c-0.316,0.504-0.584,1.029-0.845,1.539
	c-0.651,1.274-1.271,2.489-2.569,3.306c-0.194-8.771-4.016-17.188-7.4-24.641c-0.69-1.521-1.361-2.997-1.974-4.42l-0.396-0.918
	l-0.497,0.867c-4.89,8.53,0.285,24.756,6.248,36.165c-1.451,3.063-3.312,6.235-5.114,9.306c-2.287,3.897-4.652,7.928-6.285,11.892
	c-0.204,0.495-0.467,1.026-0.728,1.554c-0.783,1.582-1.459,2.948-0.891,3.766l0.203,0.292l6.161-1.728l0.101-0.184
	c2.086-3.797,3.795-7.873,5.448-11.815c1.775-4.232,3.608-8.604,5.907-12.619c0.795,0.229,1.608,0.472,2.438,0.718
	c5.374,1.597,11.464,3.407,17.86,3.407c5.076,0,9.631-1.128,13.925-3.447l1.076-0.58l-1.175-0.34
	c-1.641-0.474-3.302-0.995-4.987-1.524c-6.622-2.077-13.468-4.226-21.004-4.226c-1.574,0-3.142,0.097-4.674,0.289
	c0.149-0.281,0.296-0.563,0.443-0.846c0.853-1.643,1.662-3.199,2.956-4.492l0.26,0.12c5.815,2.693,12.406,5.747,19.555,5.747
	c3.996,0,7.645-0.949,11.159-2.901l1.341-0.746l-1.522-0.188c-3.728-0.46-7.083-1.756-10.329-3.01
	c-4.147-1.602-8.437-3.258-13.61-3.258c-1.2,0-2.427,0.091-3.656,0.27c0.975-2.92,2.599-3.278,3.772-3.278
	c1.427,0,3.042,0.601,4.604,1.183c0.498,0.186,0.985,0.366,1.456,0.524c0.579,0.194,1.17,0.4,1.772,0.61
	c3.576,1.244,7.629,2.653,11.885,2.653c2.754,0,5.266-0.577,7.679-1.765l1.02-0.501l-1.059-0.413
	c-1.578-0.615-3.161-1.285-4.692-1.934c-5.916-2.503-12.026-5.089-19.43-5.245c0.874-1.233,1.874-2.461,3.229-3.457
	c1.062,0.452,2.129,0.942,3.209,1.438c4.485,2.061,9.122,4.191,14.573,4.191c2.401,0,4.734-0.408,7.134-1.249l1.147-0.401
	l-1.098-0.521c-3.221-1.531-6.154-2.57-8.992-3.574c-1.047-0.37-2.086-0.738-3.131-1.128c-0.557-0.208-1.114-0.545-1.705-0.901
	c-0.817-0.494-1.662-1.005-2.647-1.271c-0.713-0.192-1.423-0.198-2.111-0.204c-1.034-0.008-1.943-0.015-2.761-0.613
	c0.383-0.558,1.06-0.997,1.77-1.459c0.403-0.262,0.818-0.53,1.191-0.833c0.74,0.394,1.499,0.817,2.277,1.251
	c4.083,2.277,8.712,4.859,13.735,4.859c1.968,0,3.896-0.407,5.729-1.211l1.254-0.55l-1.313-0.388
	c-2.578-0.761-4.99-1.948-7.322-3.097c-3.4-1.674-6.908-3.4-11.082-3.914c0.61-0.737,1.47-1.36,2.369-2.011
	c0.185-0.134,0.37-0.268,0.553-0.402c1.317,0.649,2.604,1.412,3.85,2.151c3.502,2.078,7.123,4.226,11.931,4.226
	c0.918,0,1.867-0.079,2.821-0.236l1.05-0.173l-0.803-0.697c-3.311-2.879-8.935-5.901-15.162-8.163
	c0.905-0.708,1.797-1.054,2.71-1.054c1.535,0,3.057,0.963,4.668,1.983c1.344,0.85,2.733,1.729,4.313,2.199
	c2.076,0.617,3.923,0.7,5.454,0.7c0.642,0,1.293-0.016,1.967-0.032c0.429-0.011,0.867-0.021,1.318-0.028l1.271-0.02l-0.944-0.852
	c-4.075-3.674-9.216-5.527-14.266-7.226c0.217-0.158,0.403-0.327,0.581-0.486c0.442-0.397,0.826-0.743,1.579-0.896
	c1.317,0.36,2.692,0.892,4.146,1.453c2.934,1.134,5.968,2.306,9.084,2.306c1.669,0,3.18-0.334,4.618-1.021l0.981-0.47l-0.995-0.438
	c-4.977-2.194-9.63-3.851-14.198-5.052c0.979-0.948,2.049-1.394,3.315-1.394c1.504,0,3.114,0.62,4.819,1.275
	c1.902,0.731,3.869,1.487,5.935,1.487c1.547,0,2.946-0.424,4.278-1.296l0.818-0.535l-0.913-0.35
	c-1.006-0.385-1.976-0.806-2.913-1.213c-3.019-1.31-5.881-2.552-9.905-2.736c0.784-1.003,1.738-1.458,3.008-1.458
	c1.199,0,2.564,0.4,4.01,0.824c1.708,0.501,3.475,1.02,5.324,1.02c1.73,0,3.254-0.462,4.656-1.412l0.859-0.582l-0.99-0.309
	c-3.478-1.085-7.597-2.288-12.019-3.07c0.656-0.932,1.537-1.354,2.783-1.354c1.095,0,2.335,0.316,3.648,0.65
	c1.44,0.367,2.93,0.746,4.385,0.746c1.715,0,3.099-0.538,4.231-1.643l0.59-0.577l-0.784-0.256c-3.45-1.127-7.19-1.735-11.127-1.809
	c0.395-1.257,1.182-1.782,2.603-1.782c0.863,0,1.863,0.188,2.923,0.386c1.194,0.223,2.43,0.455,3.643,0.455
	c1.873,0,3.306-0.58,4.381-1.771l0.667-0.739l-0.991-0.094c-1.233-0.117-2.452-0.314-3.631-0.505
	c-1.972-0.319-4.002-0.649-6.229-0.629c0.335-1.384,1.29-1.914,3.308-1.914c0.659,0,1.364,0.053,2.111,0.11
	c0.784,0.059,1.594,0.121,2.391,0.121c1.561,0,3.527-0.202,4.897-1.773l0.415-0.476l-0.559-0.295
	c-0.679-0.358-1.479-0.532-2.444-0.532c-0.901,0-1.832,0.148-2.732,0.292c-0.847,0.135-1.646,0.263-2.37,0.263
	c-0.72,0-1.267-0.13-1.689-0.407c0.673-1.282,2.679-1.529,4.794-1.79c2.472-0.305,5.027-0.62,6.142-2.607l0.45-0.803l-0.919,0.06
	c-1.062,0.069-2.178,0.216-3.255,0.358c-1.575,0.208-3.211,0.421-4.645,0.388c0.479-1.096,2.312-1.564,4.237-2.056
	c2.055-0.525,4.18-1.069,4.88-2.561l0.364-0.777l-0.855,0.066c-1.435,0.111-3.146,0.597-4.655,1.025
	c-0.53,0.151-1.043,0.296-1.496,0.411C98.36,192.487,99.674,191.797,101.05,191.073z M76.64,212.451L76.64,212.451L76.64,212.451z"
	/>
<path fill="#C133B1" d="M99.235,522.692c-5.406,3.499-16.043-7.472-23.887,4.619c1.238,5.446,9.535,8.12,13.507,2.34
	c3.787,4.922,4.418,17.461-22.342,20.875c0.062-6.757-1.047-15.953-4.535-25.828c2.144-0.63,3.421-1.416,4.582-3.146
	c-5.722,2.537-12.839-5.445-15.513-3.44c-0.349,0.263-0.562,0.61-0.669,1.021c-4.359-2.21-9.272,0.253-5.288,7.257
	c2.885-2.348,5.375,0.255,6.402,2.671c-3.493-0.164-6.785-0.651-10.531-2.771c1.39,2.105,3.788,3.388,6.529,4.106
	c-1.02,0.128-2.088,0.16-3.148,0.082c2.264,1.59,4.816,1.896,7.305,1.371c-0.006,0.032-0.01,0.066-0.01,0.104
	c0.684,7.683-5.712,7.858-6.803,18.712c-27.93-3.197-27.335-16.022-23.494-21.014c3.971,5.78,12.269,3.106,13.507-2.34
	c-7.844-12.091-18.481-1.12-23.888-4.619c0.491,1.906,1.828,3.873,3.736,4.619c-1.71,1.731-3.637,3.973-3.637,9.045v77.258
	l5.406-4.537v-58.975c0.497,0.517,1.023,1.013,1.574,1.487v56.169l5.407-4.538v-48.003c0.514,0.271,1.037,0.531,1.572,0.781v45.902
	l5.407-4.537v-39.266c0.52,0.166,1.044,0.325,1.572,0.477v37.471l5.407-4.538v-31.633c0.522,0.104,1.047,0.201,1.573,0.294v30.02
	l5.407-4.537V560.94c0.215,0.023,0.432,0.048,0.647,0.07c0.531,6.213,1.672,14.568,3.755,22.541l-14.273,15.571l4.953-0.98
	l-7.548,9.405l-7.431-3.342l-2.418,2.221l-0.255,4.364l2.634-2.674l6.468,1.062l-9.188,5.398l-0.072-0.031l0.072,0.031l-0.248,0.146
	l1.946,5.701l0.689-4.797l1.828,0.806l6.016-5.741l-0.256,11.463l3.952,1.769l-1.691-3.715l-2.123-0.139l3.853,0.237l-2.044-10.027
	l7.138,3.676l0.001-0.002l0.194,3.443l2.714-3.205l-0.157-2.91l-9.339-2.614l8.138-7.54l-0.156,6.891l6.626-9.938
	c0,23.701-6.527,25.766-11.934,23.839c0.629,4.423,8.749,6.271,12.621,3.126l5.604,6.213l5.604-6.213
	c3.873,3.146,11.993,1.297,12.622-3.126c-5.407,1.927-11.935-0.138-11.935-23.839l6.626,9.938l-0.155-6.891l8.138,7.54l-9.339,2.614
	l-0.157,2.91l2.713,3.205l0.194-3.443l0.002,0.002l7.138-3.676l-2.045,10.027l3.854-0.237l-2.123,0.139l-1.691,3.715l3.952-1.769
	l-0.255-11.463l6.016,5.741l1.828-0.806l0.688,4.797l1.945-5.701l-0.247-0.146l0.07-0.031l-0.07,0.031l-9.189-5.398l6.468-1.062
	l2.635,2.674l-0.256-4.364l-2.418-2.221l-7.432,3.342l-7.547-9.405l4.952,0.98l-14.273-15.571
	c2.084-7.973,3.225-16.328,3.755-22.541c0.217-0.022,0.433-0.047,0.649-0.07v24.711l5.405,4.537v-30.02
	c0.526-0.093,1.052-0.19,1.574-0.294v31.633l5.406,4.538v-37.471c0.528-0.151,1.054-0.311,1.572-0.477v39.266l5.407,4.537v-45.902
	c0.535-0.25,1.059-0.51,1.572-0.781v48.003l5.407,4.538V551.59c0.552-0.475,1.076-0.971,1.572-1.487v58.975l5.406,4.537v-77.258
	c0-5.072-1.927-7.313-3.637-9.045C97.406,526.565,98.745,524.598,99.235,522.692z"/>
<path fill="#C133B1" d="M29.188,78.208c0.24,0.481,0.746,1.446,0.746,2.21c0,1.125-0.15,1.403-0.554,2.211
	c-0.3,0.602-0.801,1.591-0.554,2.578c0.233,0.935,0.578,0.939,1.279,1.642c0.211,0.211,2.562,1.704,2.218,2.394
	c0,0.911-0.226,1.549-0.556,2.21c-0.28,0.563-0.029,1.563-0.362,2.394c-0.183,0.457-1.3,1.635-1.3,2.21
	c0,1.092,0.158,1.673,0.384,2.575c0.158,0.632,0.303,1.762,0.917,2.01c0.646,0.258,2.196,1.096,2.196,2.21
	c-0.062,0.123-0.192,0.227-0.192,0.365c0,0.761,0.179,1.825,0.555,2.575c0.389,0.777,0.626,2.145,0.383,3.123
	c-0.239,0.959-0.496,1.327-0.938,2.211c-0.397,0.799-0.058,1.99-0.533,2.94c-0.295,0.594-0.767,1.677-1.3,2.213
	c-0.249,0.248-1.472,0.925-1.472,1.479c0,1.051,0.192,1.624,0.192,2.556c0,0.437-0.274,2.483,0,2.758
	c0.463,0.464,0.918,1.116,2.026,1.116c1.047,0,3.111-0.684,3.111,0.364c0,0.42,0.192,0.979,0.192,1.279c0,0.918,0,1.839,0,2.758
	c0,0.798,0.171,2.041-0.362,2.576c-0.416,0.415-1.412,1.206-1.663,2.21c-0.228,0.905-0.811,1.274-1.278,2.211
	c-0.344,0.687-0.591,1.803,0,2.392c0.672,0.677,2.024,1.074,2.024,2.029c0,0.453-0.045,0.859-0.092,1.282h42.612l-1.039-10.673
	l2.389,0.73l6.074-9.734c0.123,0,0.244,0.028,0.363,0c1.105-0.278,1.623-0.627,2.559-1.096c0.786-0.395,1.175-0.969,1.834-1.846
	c0.407-0.545,0.908-1.101,1.469-1.663c0.516-0.515,1.4-1.222,1.109-2.394c-0.312-1.25-0.83-1.655-1.471-2.939l2.75-5.519
	l-13.387-6.61l-4.968,6.064c-0.485,0-1.435,0.252-1.833-0.548c-0.344-0.688-2.025-0.327-2.025-1.095
	c0.121-0.484,0.191-0.808,0.192-1.48c0-0.832,0.2-1.958,0-2.76c-0.281-1.123-0.466-1.456-0.747-2.575
	c-0.161-0.65-0.193-1.853-0.553-2.576c-0.326-0.652-0.492-1.541-0.918-2.393c-0.33-0.665-0.637-1.569-1.278-2.211
	c-0.419-0.418-1.638-1.224-1.833-2.007c-0.178-0.708-0.678-1.427-1.279-2.029c-0.17-0.171-2.025-2.158-2.025-2.393
	c0-0.92,0-1.838,0-2.758c0-0.887-0.191-1.956-0.191-2.577c0-0.919,0-1.839,0-2.758c0-1.148-0.514-1.181-0.725-2.027
	c-0.119-0.476-0.875-2.257-0.193-2.941c0.174,0,1.016,0.093,1.109,0c0.061-0.06,1.859-3.125,0.17-3.125l0.191-1.642l9.552-1.116
	l-9.358-0.729l0.17-2.394l9.381-3.307L62.975,58.9l-0.555-1.458l6.631-6.267l-8.826,4.969c-0.53-0.267-1.355-0.914-2.195-0.914
	l0.555-9.187l-3.304,9.005c-0.763-0.19-1.119-0.548-2.026-0.548c-1.254,0-1.524,0.729-2.75,0.729l-5.329-6.632l3.858,7.91
	c-0.012,0.009-1.278,1.298-1.301,1.298c-0.795,0-1.592,0-2.386,0c-1.226,0-3.907,1.386-3.667,0.182V48.05
	c0-0.757-0.702-1.467-0.554-2.209l0.193-10.467c0-0.911,0.205-1.245,0.361-2.027c0.179-0.896,0.478-1.696,0.917-2.577
	c0.412-0.826,0.192-1.304,0.192-2.393c0-1.271,0.008-2.197-0.918-3.123c-0.522-0.523-0.633-0.62-1.108-1.095
	c-0.339-0.34-0.998-2.553,0.555-2.941c0.886-0.444,1.058-0.418,2.387-0.751c0.742-0.185,1.234-0.513,1.471-1.459
	c0.131-0.526,0.747-1.623,0.362-2.394c-0.172-0.345-1.012-2.365-0.725-2.941c-0.671-0.133-2.161-0.32-1.854-0.933
	c-0.25,0-2.806-0.074-2.751-0.182c0.073-0.292-0.124-2.509,0-2.758c0.667-0.334,0.756-0.569,1.11-1.278
	c0.315-0.635,1.107-1.766,1.107-2.94c-0.563,0.564-2.388,0.616-2.388-0.183c0.067-0.067,0.726-0.851,0.726-0.933
	c0-0.866,0.255-2.99-0.149-3.042c-0.059-0.008-0.126,0.013-0.214,0.1c-0.292,0.585-0.715,1.099-1.279,1.663
	c-0.564,0.566-0.586,2.386-1.3,2.028c-0.061-0.245,0.055-0.637-0.17-0.75c-0.712-0.356-2.217-1.71-2.217-0.913
	c0.433,0.868,0.192,1.403,0.192,2.575c-0.307-0.367-0.917-1.574-0.917-1.095c0,1.22-0.554,1.529-0.554,2.575
	c0,0.911,1.827,2.576,0.917,2.576c0,0.235-0.206,2.19-0.363,2.19c-0.336,0.083-1.058,0.183-1.664,0.183
	c-0.257,0-3.29,0.024-3.111,0.385c0,1.478,0.553,0.349,1.107,1.46c0,0.631-1.218,1.098-0.937,1.663c0,0.858-0.297,1.594,0,2.191
	c0.331,0.663,2.141,1.354,2.218,1.662c0,0.553-0.134,1.315,0,1.846c0.241,0.973,0.304,1.396,0.553,2.394
	c0.19,0.763,1.016,1.206,0.725,2.373c-0.062,0.245-0.13,0.505-0.192,0.75c-0.651,0.653-0.242,0.844-0.533,2.008
	c-0.163,0.653-0.375,1.642,0,2.394c0.445,0.892,2.004,1.212,2.004,2.21c0,0.306,0,0.605,0,0.913c0,1.229-0.725,1.585-0.725,2.392
	c0,0.92,0,1.841,0,2.759c0,0.984-0.128,1.64-0.362,2.576c-0.186,0.743-0.555,2.046-0.555,2.759c0,1.162-0.362,1.456-0.362,2.576
	c0,0.919,0,1.837,0,2.758c0,0.912,0.169,1.915,0.169,2.759c0,0.916,0.303,1.561,0.556,2.576c0.194,0.779,0.337,1.883,0.192,2.758
	c-0.063,0.377-0.13,3.416-0.385,3.671c-0.599,0.6-0.941,0.961-1.642,1.663c-0.492,0.491-1.199,0.938-1.47,2.027
	c-0.275,1.104-0.769,1.189-1.278,2.211c-0.373,0.746-0.746,1.21-0.746,2.373c0,0.245,0,0.506,0,0.751l-0.363,3.853
	c0,0.51-0.017,0.879,0.192,1.299C28.417,77.198,28.858,77.548,29.188,78.208z"/>
</svg>
