<?xml version="1.0" encoding="utf-8"?>
<!-- Generator: Adobe Illustrator 16.0.3, SVG Export Plug-In . SVG Version: 6.00 Build 0)  -->
<!DOCTYPE svg PUBLIC "-//W3C//DTD SVG 1.1//EN" "http://www.w3.org/Graphics/SVG/1.1/DTD/svg11.dtd">
<svg version="1.1" id="Layer_1" xmlns="http://www.w3.org/2000/svg" xmlns:xlink="http://www.w3.org/1999/xlink" x="0px" y="0px"
	 width="237.195px" height="211.93px" viewBox="0 0 237.195 211.93" enable-background="new 0 0 237.195 211.93"
	 xml:space="preserve">
<g>
	<g>
		<g>
			<defs>
				<rect id="SVGID_1_" x="0" y="0" width="237.195" height="211.93"/>
			</defs>
			<clipPath id="SVGID_2_">
				<use xlink:href="#SVGID_1_"  overflow="visible"/>
			</clipPath>
			<rect x="0" y="0" clip-path="url(#SVGID_2_)" fill="#A5C4D9" width="237.195" height="211.93"/>
		</g>
		<g>
			<defs>
				<rect id="SVGID_3_" x="0" y="0" width="237.195" height="211.93"/>
			</defs>
			<clipPath id="SVGID_4_">
				<use xlink:href="#SVGID_3_"  overflow="visible"/>
			</clipPath>
			<path clip-path="url(#SVGID_4_)" fill="#FFFFFF" d="M13.089,212.766c0,0,1.582-12.186,14.761-18.509
				c13.179-6.326,55.354-24.78,55.354-24.78l3.425-13.966h3.691c0,0,1.317-13.181,1.317-15.815c0-2.639-3.955-7.118-6.062-12.651
				c-2.108-5.535-2.371-12.125-2.371-12.125s-3.429-0.793-3.691-4.747c-0.264-3.952-3.688-17.923-2.371-19.239
				c1.316-1.315,3.951,0,3.951,0s-1.054-15.027-1.054-26.888c0-11.861,6.063-25.305,22.934-31.893
				c16.868-6.591,36.636-8.172,36.636-8.172s-5.269,5.271-2.898,7.908c2.371,2.636,22.144,10.277,22.144,31.364
				s-2.107,27.414-2.107,27.414s2.896-1.055,3.951,0.265s-2.109,14.231-2.637,17.658c-0.525,3.428-3.162,5.272-3.162,5.272
				s-1.582,8.437-3.164,12.652c-1.58,4.215-5.271,11.597-5.271,11.597l0.791,17.659h3.429l2.897,13.705
				c0,0,25.306,11.336,38.484,16.346c13.178,5.007,30.311,11.718,32.42,26.943"/>
		</g>
		<g>
			<defs>
				<rect id="SVGID_5_" x="0" y="0" width="237.195" height="211.93"/>
			</defs>
			<clipPath id="SVGID_6_">
				<use xlink:href="#SVGID_5_"  overflow="visible"/>
			</clipPath>
			<ellipse clip-path="url(#SVGID_6_)" fill="#84B7D9" cx="157.438" cy="200.816" rx="9.816" ry="9.66"/>
		</g>
		<g>
			<defs>
				<rect id="SVGID_7_" x="0" y="0" width="237.195" height="211.93"/>
			</defs>
			<clipPath id="SVGID_8_">
				<use xlink:href="#SVGID_7_"  overflow="visible"/>
			</clipPath>
			
				<path clip-path="url(#SVGID_8_)" fill="none" stroke="#3383B9" stroke-width="3" stroke-linecap="round" stroke-miterlimit="10" d="
				M156.687,202.565c0,0,7.334-13.968,7.637-20.882c0.318-7.321-4-12.466-10.869-14.959"/>
		</g>
		<g>
			<defs>
				<rect id="SVGID_9_" x="0" y="0" width="237.195" height="211.93"/>
			</defs>
			<clipPath id="SVGID_10_">
				<use xlink:href="#SVGID_9_"  overflow="visible"/>
			</clipPath>
			
				<path clip-path="url(#SVGID_10_)" fill="none" stroke="#3383B9" stroke-width="3" stroke-linecap="round" stroke-miterlimit="10" d="
				M82.356,166.725c-4.363,1.869-9.352,15.896-5.299,26.18"/>
		</g>
		<g>
			<defs>
				<rect id="SVGID_11_" x="0" y="0" width="237.195" height="211.93"/>
			</defs>
			<clipPath id="SVGID_12_">
				<use xlink:href="#SVGID_11_"  overflow="visible"/>
			</clipPath>
			<path clip-path="url(#SVGID_12_)" fill="none" stroke="#3383B9" stroke-width="3" stroke-miterlimit="10" d="M66.789,215.513
				c0,0-6.729-18.655,10.27-22.608c20.278-4.717,21.545,21.815,21.545,21.815"/>
		</g>
		<g>
			<defs>
				<rect id="SVGID_13_" x="0" y="0" width="237.195" height="211.93"/>
			</defs>
			<clipPath id="SVGID_14_">
				<use xlink:href="#SVGID_13_"  overflow="visible"/>
			</clipPath>
			<path clip-path="url(#SVGID_14_)" fill="none" stroke="#3383B9" stroke-miterlimit="10" d="M68.624,216.124
				c0,0-6.904-14.396,10.092-18.351c20.279-4.717,18.774,16.516,18.774,16.516"/>
		</g>
		<g>
			<defs>
				<rect id="SVGID_15_" x="0" y="0" width="237.195" height="211.93"/>
			</defs>
			<clipPath id="SVGID_16_">
				<use xlink:href="#SVGID_15_"  overflow="visible"/>
			</clipPath>
			
				<ellipse clip-path="url(#SVGID_16_)" fill="#9ECAE8" stroke="#FFFFFF" stroke-miterlimit="10" cx="157.438" cy="200.816" rx="5.21" ry="5.127"/>
		</g>
	</g>
</g>
</svg>
