<?xml version="1.0" encoding="utf-8"?>
<!-- Generator: Adobe Illustrator 16.0.3, SVG Export Plug-In . SVG Version: 6.00 Build 0)  -->
<!DOCTYPE svg PUBLIC "-//W3C//DTD SVG 1.1//EN" "http://www.w3.org/Graphics/SVG/1.1/DTD/svg11.dtd">
<svg version="1.1" id="Layer_1" xmlns="http://www.w3.org/2000/svg" xmlns:xlink="http://www.w3.org/1999/xlink" x="0px" y="0px"
	 width="237.195px" height="211.93px" viewBox="0 0 237.195 211.93" enable-background="new 0 0 237.195 211.93"
	 xml:space="preserve">
<g>
	<g>
		<defs>
			<rect id="SVGID_1_" width="237.195" height="211.93"/>
		</defs>
		<clipPath id="SVGID_2_">
			<use xlink:href="#SVGID_1_"  overflow="visible"/>
		</clipPath>
		<rect clip-path="url(#SVGID_2_)" fill="#A5C4D9" width="237.195" height="211.93"/>
		<path clip-path="url(#SVGID_2_)" fill="#FFFFFF" d="M13.089,212.766c0,0,1.582-12.186,14.76-18.509
			c13.179-6.326,55.354-24.78,55.354-24.78l3.425-13.966h3.691c0,0,1.317-13.181,1.317-15.815c0-2.639-3.955-7.119-6.062-12.652
			c-2.108-5.535-2.371-12.125-2.371-12.125s-3.429-0.793-3.692-4.747c-0.263-3.952-3.688-17.923-2.371-19.239s3.952,0,3.952,0
			s-1.054-15.027-1.054-26.888s6.063-25.304,22.933-31.892c16.869-6.591,36.636-8.172,36.636-8.172s-5.268,5.271-2.898,7.908
			c2.371,2.636,22.143,10.277,22.143,31.364s-2.107,27.414-2.107,27.414s2.896-1.054,3.951,0.265s-2.109,14.231-2.637,17.658
			c-0.525,3.428-3.162,5.273-3.162,5.273s-1.582,8.436-3.164,12.652c-1.58,4.215-5.271,11.597-5.271,11.597l0.791,17.659h3.428
			l2.898,13.705c0,0,25.305,11.336,38.484,16.346c13.178,5.006,30.311,11.717,32.42,26.943"/>
		<ellipse clip-path="url(#SVGID_2_)" fill="#84B7D9" cx="157.438" cy="200.816" rx="9.817" ry="9.66"/>
		
			<path clip-path="url(#SVGID_2_)" fill="none" stroke="#3383B9" stroke-width="3" stroke-linecap="round" stroke-miterlimit="10" d="
			M156.687,202.565c0,0,7.334-13.968,7.637-20.882c0.318-7.321-4-12.466-10.869-14.959"/>
		
			<path clip-path="url(#SVGID_2_)" fill="none" stroke="#3383B9" stroke-width="3" stroke-linecap="round" stroke-miterlimit="10" d="
			M82.356,166.725c-4.363,1.869-9.351,15.895-5.299,26.18"/>
		<path clip-path="url(#SVGID_2_)" fill="none" stroke="#3383B9" stroke-width="3" stroke-miterlimit="10" d="M66.789,215.513
			c0,0-6.729-18.655,10.269-22.608c20.279-4.717,21.545,21.815,21.545,21.815"/>
		<path clip-path="url(#SVGID_2_)" fill="none" stroke="#3383B9" stroke-miterlimit="10" d="M68.624,216.124
			c0,0-6.905-14.396,10.092-18.35c20.279-4.717,18.774,16.515,18.774,16.515"/>
		
			<ellipse clip-path="url(#SVGID_2_)" fill="#9ECAE8" stroke="#FFFFFF" stroke-miterlimit="10" cx="157.438" cy="200.816" rx="5.21" ry="5.127"/>
	</g>
</g>
<g>
	<path fill="#DAE6ED" d="M110.127,104.272v-3.727c0-2.83,0.578-5.22,1.733-7.169s3.206-3.848,6.151-5.697
		c2.34-1.473,4.022-2.801,5.048-3.985c1.024-1.184,1.537-2.542,1.537-4.073c0-1.213-0.55-2.172-1.646-2.88
		c-1.099-0.708-2.528-1.062-4.29-1.062c-4.36,0-9.458,1.545-15.292,4.635l-6.022-11.784c7.191-4.101,14.701-6.152,22.528-6.152
		c6.439,0,11.494,1.416,15.162,4.246c3.669,2.831,5.502,6.687,5.502,11.568c0,3.494-0.815,6.52-2.448,9.076
		c-1.631,2.556-4.237,4.975-7.818,7.256c-3.032,1.965-4.933,3.401-5.698,4.311c-0.765,0.91-1.146,1.986-1.146,3.228v2.209H110.127z
		 M108.264,119.436c0-2.657,0.773-4.707,2.319-6.152c1.544-1.443,3.819-2.166,6.823-2.166c2.888,0,5.104,0.729,6.65,2.187
		c1.545,1.459,2.317,3.503,2.317,6.131s-0.801,4.665-2.404,6.108c-1.603,1.443-3.791,2.166-6.563,2.166
		c-2.86,0-5.099-0.715-6.714-2.145C109.072,124.136,108.264,122.093,108.264,119.436z"/>
</g>
</svg>
