<?xml version="1.0" encoding="utf-8"?>
<!-- Generator: Adobe Illustrator 16.0.3, SVG Export Plug-In . SVG Version: 6.00 Build 0)  -->
<!DOCTYPE svg PUBLIC "-//W3C//DTD SVG 1.1//EN" "http://www.w3.org/Graphics/SVG/1.1/DTD/svg11.dtd">
<svg version="1.1" id="Layer_1" xmlns="http://www.w3.org/2000/svg" xmlns:xlink="http://www.w3.org/1999/xlink" x="0px" y="0px"
	 width="158.816px" height="229.511px" viewBox="0 0 158.816 229.511" enable-background="new 0 0 158.816 229.511"
	 xml:space="preserve">
<g>
	<path fill="#3383B9" d="M71.782,148.8l3.813-19.938c1.385-7.215-3.267-14.231-10.339-15.589
		c-7.068-1.354-13.989,3.442-15.373,10.663l-3.817,19.934L71.782,148.8z"/>
	<path fill="#C133B1" d="M45.69,145.835l-3.816,19.938c-1.386,7.221,3.268,14.234,10.339,15.588
		c7.075,1.357,13.991-3.439,15.376-10.66l3.816-19.936L45.69,145.835z"/>
</g>
<g>
	<path fill="#3383B9" d="M77.748,26.759l20.29-0.583c7.342-0.209,13.189-6.267,12.986-13.466
		c-0.206-7.195-6.387-12.915-13.735-12.704L77.002,0.587L77.748,26.759z"/>
	<path fill="#C133B1" d="M75.003,0.644L54.712,1.226c-7.35,0.208-13.192,6.268-12.986,13.464c0.205,7.2,6.383,12.916,13.732,12.708
		l20.29-0.583L75.003,0.644z"/>
</g>
<g>
	<path fill="#3383B9" d="M141.541,40.72l-8.73-18.324c-3.158-6.633-11.062-9.534-17.564-6.438
		c-6.499,3.095-9.235,11.058-6.073,17.696l8.729,18.323L141.541,40.72z"/>
	<path fill="#C133B1" d="M118.762,53.783l8.732,18.325c3.16,6.639,11.062,9.533,17.562,6.438c6.503-3.096,9.234-11.058,6.076-17.696
		l-8.73-18.325L118.762,53.783z"/>
</g>
<g>
	<path fill="#3383B9" d="M101.325,90.134L82.779,98.38c-6.715,2.982-9.822,10.806-6.898,17.39c2.922,6.578,10.812,9.521,17.53,6.537
		l18.546-8.246L101.325,90.134z"/>
	<path fill="#C133B1" d="M113.784,113.25l18.549-8.247c6.719-2.983,9.822-10.808,6.898-17.387
		c-2.924-6.583-10.812-9.523-17.53-6.541l-18.548,8.246L113.784,113.25z"/>
</g>
<g>
	<circle fill="#C0DBED" cx="23.673" cy="35.891" r="21.168"/>
	<line fill="none" stroke="#FFFFFF" stroke-width="2" stroke-miterlimit="10" x1="2.978" y1="40.342" x2="44.368" y2="31.44"/>
</g>
<g>
	<path fill="#E0C3DD" d="M61.319,224.014c-9.482,6.836-22.712,4.686-29.546-4.799c-6.835-9.484-4.686-22.715,4.799-29.547
		c9.486-6.834,22.715-4.688,29.55,4.801C72.956,203.952,70.807,217.182,61.319,224.014z"/>
	<line fill="none" stroke="#FFFFFF" stroke-width="2" stroke-miterlimit="10" x1="36.572" y1="189.668" x2="61.319" y2="224.014"/>
</g>
</svg>
