<?xml version="1.0" encoding="utf-8"?>
<!-- Generator: Adobe Illustrator 16.0.3, SVG Export Plug-In . SVG Version: 6.00 Build 0)  -->
<!DOCTYPE svg PUBLIC "-//W3C//DTD SVG 1.1//EN" "http://www.w3.org/Graphics/SVG/1.1/DTD/svg11.dtd">
<svg version="1.1" id="Layer_1" xmlns="http://www.w3.org/2000/svg" xmlns:xlink="http://www.w3.org/1999/xlink" x="0px" y="0px"
	 width="110px" height="446.582px" viewBox="0 0 110 446.582" enable-background="new 0 0 110 446.582" xml:space="preserve">
<g>
	<g>
		<rect fill="#FFFFFF" width="110" height="64.542"/>
		<g>
			<rect fill="#F64246" width="110" height="4.965"/>
			<rect y="9.93" fill="#F64246" width="110" height="4.965"/>
			<rect y="19.859" fill="#F64246" width="110" height="4.965"/>
			<rect y="29.789" fill="#F64246" width="110" height="4.964"/>
			<rect y="39.718" fill="#F64246" width="110" height="4.965"/>
			<rect y="49.647" fill="#F64246" width="110" height="4.965"/>
			<rect y="59.577" fill="#F64246" width="110" height="4.965"/>
		</g>
		<rect fill="#0071B8" width="49.052" height="34.753"/>
		<g>
			<polygon fill="#FFFFFF" points="4.171,1.423 3.725,2.796 2.28,2.796 3.449,3.646 3.002,5.019 4.171,4.17 5.339,5.019 
				4.893,3.646 6.062,2.796 4.617,2.796 			"/>
			<polygon fill="#FFFFFF" points="12.303,1.423 11.857,2.796 10.412,2.796 11.581,3.645 11.134,5.019 12.303,4.17 13.471,5.019 
				13.025,3.645 14.193,2.796 12.75,2.796 			"/>
			<polygon fill="#FFFFFF" points="20.436,1.423 19.989,2.796 18.545,2.796 19.713,3.646 19.267,5.019 20.436,4.17 21.604,5.019 
				21.158,3.645 22.326,2.796 20.881,2.796 			"/>
			<polygon fill="#FFFFFF" points="28.568,1.423 28.122,2.796 26.677,2.796 27.846,3.646 27.399,5.019 28.568,4.17 29.736,5.019 
				29.29,3.646 30.458,2.796 29.014,2.796 			"/>
			<polygon fill="#FFFFFF" points="36.7,1.423 36.254,2.796 34.809,2.796 35.978,3.646 35.531,5.019 36.7,4.17 37.868,5.019 
				37.422,3.645 38.59,2.796 37.146,2.796 			"/>
			<polygon fill="#FFFFFF" points="43.664,5.019 44.833,4.17 46.001,5.019 45.554,3.646 46.723,2.796 45.278,2.796 44.833,1.423 
				44.386,2.796 42.942,2.796 44.11,3.646 			"/>
			<polygon fill="#FFFFFF" points="8.237,4.908 7.791,6.282 6.347,6.282 7.515,7.131 7.069,8.504 8.237,7.655 9.406,8.504 
				8.959,7.131 10.128,6.282 8.683,6.282 			"/>
			<polygon fill="#FFFFFF" points="16.37,4.908 15.923,6.282 14.479,6.282 15.647,7.131 15.201,8.504 16.369,7.656 17.538,8.504 
				17.091,7.13 18.26,6.282 16.816,6.282 			"/>
			<polygon fill="#FFFFFF" points="24.502,4.908 24.056,6.282 22.611,6.282 23.779,7.131 23.333,8.504 24.501,7.655 25.67,8.504 
				25.224,7.131 26.392,6.282 24.948,6.282 			"/>
			<polygon fill="#FFFFFF" points="32.634,4.908 32.188,6.282 30.744,6.282 31.912,7.131 31.466,8.504 32.634,7.655 33.803,8.504 
				33.356,7.13 34.524,6.282 33.08,6.282 			"/>
			<polygon fill="#FFFFFF" points="40.767,4.908 40.32,6.282 38.875,6.282 40.044,7.131 39.598,8.504 40.766,7.656 41.935,8.504 
				41.488,7.13 42.657,6.282 41.213,6.282 			"/>
			<polygon fill="#FFFFFF" points="4.171,8.296 3.724,9.67 2.28,9.67 3.449,10.519 3.002,11.893 4.171,11.043 5.339,11.893 
				4.893,10.519 6.062,9.67 4.618,9.67 			"/>
			<polygon fill="#FFFFFF" points="12.303,8.296 11.857,9.67 10.412,9.67 11.581,10.519 11.134,11.893 12.303,11.044 13.471,11.893 
				13.025,10.519 14.193,9.67 12.75,9.67 			"/>
			<polygon fill="#FFFFFF" points="20.436,8.296 19.989,9.67 18.545,9.67 19.713,10.519 19.267,11.893 20.436,11.044 21.604,11.893 
				21.158,10.519 22.326,9.67 20.881,9.67 			"/>
			<polygon fill="#FFFFFF" points="28.568,8.296 28.122,9.67 26.677,9.67 27.846,10.519 27.399,11.893 28.568,11.043 29.736,11.893 
				29.29,10.519 30.458,9.67 29.014,9.67 			"/>
			<polygon fill="#FFFFFF" points="36.7,8.296 36.254,9.67 34.809,9.67 35.978,10.519 35.531,11.893 36.7,11.044 37.868,11.893 
				37.422,10.519 38.59,9.67 37.146,9.67 			"/>
			<polygon fill="#FFFFFF" points="44.833,8.296 44.386,9.67 42.942,9.67 44.11,10.519 43.664,11.893 44.833,11.043 46.001,11.893 
				45.554,10.519 46.723,9.67 45.279,9.67 			"/>
			<polygon fill="#FFFFFF" points="8.237,11.782 7.791,13.155 6.347,13.155 7.515,14.004 7.069,15.378 8.237,14.529 9.406,15.378 
				8.959,14.004 10.128,13.155 8.683,13.155 			"/>
			<polygon fill="#FFFFFF" points="16.37,11.782 15.923,13.155 14.479,13.155 15.647,14.004 15.201,15.378 16.369,14.529 
				17.538,15.378 17.091,14.004 18.26,13.155 16.816,13.155 			"/>
			<polygon fill="#FFFFFF" points="24.502,11.782 24.056,13.155 22.611,13.155 23.779,14.004 23.333,15.378 24.501,14.529 
				25.67,15.378 25.224,14.004 26.392,13.155 24.948,13.155 			"/>
			<polygon fill="#FFFFFF" points="32.634,11.782 32.188,13.155 30.744,13.155 31.912,14.004 31.466,15.378 32.634,14.529 
				33.803,15.378 33.356,14.004 34.524,13.155 33.08,13.155 			"/>
			<polygon fill="#FFFFFF" points="40.767,11.782 40.32,13.155 38.875,13.155 40.044,14.004 39.598,15.378 40.766,14.529 
				41.935,15.378 41.488,14.004 42.657,13.155 41.213,13.155 			"/>
			<polygon fill="#FFFFFF" points="4.171,15.17 3.724,16.544 2.28,16.544 3.449,17.393 3.002,18.766 4.171,17.917 5.339,18.766 
				4.893,17.393 6.062,16.544 4.618,16.544 			"/>
			<polygon fill="#FFFFFF" points="12.303,15.17 11.857,16.544 10.412,16.544 11.581,17.393 11.134,18.766 12.303,17.917 
				13.471,18.766 13.025,17.393 14.193,16.544 12.75,16.544 			"/>
			<polygon fill="#FFFFFF" points="20.436,15.17 19.989,16.544 18.545,16.544 19.713,17.393 19.267,18.766 20.436,17.917 
				21.604,18.766 21.158,17.393 22.326,16.544 20.882,16.544 			"/>
			<polygon fill="#FFFFFF" points="28.568,15.17 28.121,16.544 26.677,16.544 27.846,17.393 27.399,18.766 28.568,17.917 
				29.736,18.766 29.29,17.393 30.458,16.544 29.015,16.544 			"/>
			<polygon fill="#FFFFFF" points="36.7,15.17 36.254,16.544 34.809,16.544 35.978,17.393 35.531,18.766 36.7,17.917 37.868,18.766 
				37.422,17.393 38.59,16.544 37.146,16.544 			"/>
			<polygon fill="#FFFFFF" points="44.833,15.17 44.386,16.544 42.942,16.544 44.11,17.393 43.664,18.766 44.833,17.917 
				46.001,18.766 45.554,17.393 46.723,16.544 45.279,16.544 			"/>
			<polygon fill="#FFFFFF" points="8.237,18.655 7.791,20.029 6.347,20.029 7.515,20.878 7.069,22.251 8.237,21.402 9.406,22.251 
				8.959,20.878 10.128,20.029 8.683,20.029 			"/>
			<polygon fill="#FFFFFF" points="16.37,18.655 15.923,20.029 14.479,20.029 15.647,20.878 15.201,22.251 16.369,21.403 
				17.538,22.251 17.091,20.877 18.26,20.029 16.816,20.029 			"/>
			<polygon fill="#FFFFFF" points="24.502,18.655 24.056,20.029 22.611,20.029 23.779,20.878 23.333,22.251 24.501,21.402 
				25.67,22.251 25.224,20.878 26.392,20.029 24.948,20.029 			"/>
			<polygon fill="#FFFFFF" points="32.634,18.655 32.188,20.029 30.744,20.029 31.912,20.878 31.466,22.251 32.634,21.402 
				33.803,22.251 33.356,20.877 34.524,20.029 33.08,20.029 			"/>
			<polygon fill="#FFFFFF" points="40.767,18.655 40.32,20.029 38.875,20.029 40.044,20.878 39.598,22.251 40.766,21.403 
				41.935,22.251 41.488,20.877 42.657,20.029 41.213,20.029 			"/>
			<polygon fill="#FFFFFF" points="4.171,22.043 3.724,23.417 2.28,23.417 3.449,24.266 3.002,25.64 4.171,24.791 5.339,25.64 
				4.893,24.266 6.062,23.417 4.618,23.417 			"/>
			<polygon fill="#FFFFFF" points="12.303,22.043 11.857,23.417 10.412,23.417 11.581,24.266 11.134,25.64 12.303,24.791 
				13.471,25.64 13.025,24.266 14.193,23.417 12.75,23.417 			"/>
			<polygon fill="#FFFFFF" points="20.436,22.043 19.989,23.417 18.545,23.417 19.713,24.266 19.267,25.64 20.436,24.791 
				21.604,25.64 21.158,24.266 22.326,23.417 20.882,23.417 			"/>
			<polygon fill="#FFFFFF" points="28.568,22.043 28.121,23.417 26.677,23.417 27.846,24.266 27.399,25.64 28.568,24.791 
				29.736,25.64 29.29,24.266 30.458,23.417 29.015,23.417 			"/>
			<polygon fill="#FFFFFF" points="36.7,22.043 36.254,23.417 34.809,23.417 35.978,24.266 35.531,25.64 36.7,24.791 37.868,25.64 
				37.422,24.266 38.59,23.417 37.146,23.417 			"/>
			<polygon fill="#FFFFFF" points="44.833,22.043 44.386,23.417 42.942,23.417 44.11,24.266 43.664,25.64 44.833,24.791 
				46.001,25.64 45.554,24.266 46.723,23.417 45.279,23.417 			"/>
			<polygon fill="#FFFFFF" points="4.618,30.408 4.171,29.034 3.724,30.408 2.28,30.408 3.449,31.257 3.002,32.63 4.171,31.781 
				5.339,32.63 4.893,31.257 6.062,30.408 			"/>
			<polygon fill="#FFFFFF" points="12.75,30.408 12.303,29.034 11.857,30.408 10.412,30.408 11.581,31.256 11.134,32.63 
				12.303,31.781 13.471,32.63 13.025,31.256 14.193,30.408 			"/>
			<polygon fill="#FFFFFF" points="20.882,30.408 20.436,29.034 19.989,30.408 18.545,30.408 19.713,31.257 19.267,32.63 
				20.436,31.781 21.604,32.63 21.158,31.256 22.326,30.408 			"/>
			<polygon fill="#FFFFFF" points="29.015,30.408 28.568,29.034 28.121,30.408 26.677,30.408 27.846,31.257 27.399,32.63 
				28.568,31.781 29.736,32.63 29.29,31.257 30.458,30.408 			"/>
			<polygon fill="#FFFFFF" points="37.146,30.408 36.7,29.034 36.254,30.408 34.809,30.408 35.978,31.257 35.531,32.63 36.7,31.781 
				37.868,32.63 37.422,31.256 38.59,30.408 			"/>
			<polygon fill="#FFFFFF" points="45.279,30.408 44.833,29.034 44.386,30.408 42.942,30.408 44.11,31.256 43.664,32.63 
				44.833,31.781 46.001,32.63 45.554,31.257 46.723,30.408 			"/>
			<polygon fill="#FFFFFF" points="8.683,26.902 8.237,25.529 7.791,26.902 6.347,26.902 7.515,27.751 7.069,29.125 8.237,28.276 
				9.406,29.125 8.959,27.751 10.128,26.902 			"/>
			<polygon fill="#FFFFFF" points="16.816,26.902 16.37,25.529 15.923,26.902 14.479,26.902 15.647,27.751 15.201,29.125 
				16.369,28.276 17.538,29.125 17.091,27.751 18.26,26.902 			"/>
			<polygon fill="#FFFFFF" points="24.948,26.902 24.502,25.529 24.056,26.902 22.611,26.902 23.779,27.751 23.333,29.125 
				24.501,28.276 25.67,29.125 25.224,27.751 26.392,26.902 			"/>
			<polygon fill="#FFFFFF" points="33.08,26.902 32.634,25.529 32.188,26.902 30.744,26.902 31.912,27.751 31.466,29.125 
				32.634,28.276 33.803,29.125 33.356,27.751 34.524,26.902 			"/>
			<polygon fill="#FFFFFF" points="41.213,26.902 40.767,25.529 40.32,26.902 38.875,26.902 40.044,27.751 39.598,29.125 
				40.766,28.276 41.935,29.125 41.489,27.751 42.657,26.902 			"/>
		</g>
	</g>
	<rect id="rect908" y="95.624" fill="#0071B8" width="110" height="64.542"/>
	<path id="path4640" fill="#FFFFFF" d="M0,127.895h5.484l43.568-28.663v-3.608h-5.484L0,124.287V127.895z"/>
	<path id="path6505" fill="#FFFFFF" d="M49.052,127.895h-5.483L0,99.232v-3.608h5.484l43.568,28.663L49.052,127.895L49.052,127.895z
		"/>
	<path id="rect1530" fill="#FFFFFF" d="M20.438,95.624v10.757H0v10.757h20.438v10.757h8.176v-10.757h20.438v-10.757H28.614V95.624
		H20.438z"/>
	<path id="rect3395" fill="#F64246" d="M22.074,95.624v12.908H0v6.454h22.073v12.909h4.905v-12.909h22.073v-6.454H26.979V95.624
		H22.074z"/>
	<path id="path8371" fill="#F64246" d="M29.046,106.381h3.656l16.35-10.757h-3.656L29.046,106.381z"/>
	<path id="path9616" fill="#F64246" d="M0,95.624v2.405l12.694,8.352h3.657L0,95.624z"/>
	<path id="path9616_1_" fill="#F64246" d="M49.052,127.895v-2.406l-12.694-8.351h-3.656L49.052,127.895z"/>
	<path id="path8371_1_" fill="#F64246" d="M0,127.895h3.656l16.351-10.756h-3.656L0,127.895z"/>
	<path id="path11001" fill="#FFFFFF" d="M75.938,107.218h3.801l1.174-3.614l1.175,3.614h3.801l-3.075,2.234l1.174,3.615
		l-3.074-2.234l-3.074,2.234l1.174-3.615L75.938,107.218z"/>
	<path id="path11000" fill="#F64246" d="M77.625,107.77h2.512l0.776-2.39l0.776,2.39h2.513l-2.032,1.477l0.775,2.39l-2.032-1.477
		l-2.032,1.477l0.776-2.39L77.625,107.77z"/>
	<path id="path11001_1_" fill="#FFFFFF" d="M60.74,122.509h3.801l1.174-3.614l1.174,3.614h3.801l-3.074,2.234l1.174,3.615
		l-3.074-2.234l-3.074,2.234l1.174-3.615L60.74,122.509z"/>
	<path id="path11000_1_" fill="#F64246" d="M62.426,123.061h2.513l0.776-2.39l0.776,2.39h2.513l-2.032,1.477l0.775,2.39
		l-2.032-1.477l-2.032,1.477l0.776-2.39L62.426,123.061z"/>
	<path id="path11001_2_" fill="#FFFFFF" d="M89.517,118.716h3.382l1.045-3.216l1.045,3.216h3.382l-2.735,1.987l1.045,3.216
		l-2.736-1.987l-2.736,1.987l1.046-3.216L89.517,118.716z"/>
	<path id="path11000_2_" fill="#F64246" d="M91.018,119.207h2.235l0.69-2.126l0.69,2.126h2.236l-1.809,1.314l0.69,2.127
		l-1.809-1.314l-1.809,1.314l0.69-2.127L91.018,119.207z"/>
	<path id="path11001_3_" fill="#FFFFFF" d="M75.393,146.51h4.22l1.303-4.02l1.304,4.02h4.22l-3.413,2.484l1.304,4.02l-3.414-2.484
		l-3.413,2.484l1.304-4.02L75.393,146.51z"/>
	<path id="path11000_3_" fill="#F64246" d="M77.265,147.124h2.789l0.861-2.658l0.862,2.658h2.789l-2.256,1.643l0.861,2.658
		l-2.257-1.643l-2.256,1.643l0.861-2.658L77.265,147.124z"/>
	<g>
		<rect y="191.248" fill="#F64246" width="110" height="64.086"/>
		<rect y="207.269" fill="#F4BE00" width="110" height="32.043"/>
		<g>
			<path fill="#F64246" d="M21.033,219.439c0,0,0.062,0.019,0.086,0.041c0.035,0.032,0.082,0.095,0.084,0.094
				c0.004-0.005,0.004-0.009,0.007-0.016c-0.004,0.016-0.007,0.033,0.01,0.048c0.022,0.019,0.051,0.022,0.067,0.007
				c0.018,0.025,0.067,0.093,0.117,0.122c0.032,0.02,0.082,0.04,0.122,0.033c0.007-0.001,0.009-0.011,0.015-0.014l0.01,0.027
				c0.026-0.007,0.062-0.011,0.09-0.019c-0.04,0.01-0.092,0.015-0.128,0.026c-0.016,0.005-0.028,0.025-0.022,0.041
				c0.005,0.015,0.025,0.028,0.042,0.022l0,0c0,0,0.023,0.037,0.046,0.082h-0.001l-0.04,0.064l0.075,0.023l0.002-0.003
				c0.012,0.032,0.021,0.06,0.019,0.06c0.005-0.002,0.014-0.003,0.02-0.005c-0.024,0.01-0.042,0.028-0.046,0.049
				c-0.009,0.043,0.04,0.081,0.125,0.106c0.067,0.018,0.195,0.039,0.347,0.055h-0.985v0.749h0.353c-0.073,0-0.131,0.038-0.131,0.084
				c0,0.047,0.059,0.086,0.131,0.086c-0.021,0-0.042,0-0.06-0.007l0.011,0.002c0.077,0.023,0.121,0.091,0.121,0.166
				c0,0.072-0.049,0.144-0.125,0.168c0.018-0.008,0.031-0.009,0.053-0.009c-0.073,0-0.131,0.045-0.131,0.101
				c0,0.055,0.059,0.101,0.131,0.101h2.14c0.072,0,0.13-0.045,0.13-0.101c0-0.056-0.059-0.101-0.13-0.101
				c0.021,0,0.041,0.004,0.058,0.01c-0.073-0.024-0.126-0.091-0.126-0.169c0-0.078,0.057-0.146,0.132-0.172
				c-0.017,0.006-0.042,0.011-0.063,0.011c0.072,0,0.131-0.039,0.131-0.086c0-0.046-0.059-0.084-0.131-0.084h0.364v-0.749h-0.999
				c0.15-0.016,0.278-0.037,0.345-0.055c0.086-0.025,0.135-0.063,0.126-0.106c-0.004-0.021-0.022-0.04-0.047-0.05
				c-0.187-0.06-0.521-0.102-0.859-0.103c-0.322,0.001-0.64,0.04-0.83,0.095c0.188-0.057,0.499-0.095,0.827-0.096
				c0.357,0,0.647,0.037,0.873,0.105c-0.001,0,0.011-0.028,0.025-0.058L23.486,220l-0.031-0.067
				c0.027-0.046,0.047-0.082,0.047-0.082s0,0-0.001,0c0.017,0.004,0.037-0.008,0.042-0.022c0.005-0.016-0.007-0.036-0.023-0.041
				c-0.092-0.028-0.211-0.047-0.329-0.067c0.106,0.018,0.216,0.034,0.302,0.059l0.008-0.021c0.004,0.001,0.004,0.007,0.008,0.007
				c0.038,0.007,0.088-0.013,0.121-0.033c0.051-0.028,0.098-0.1,0.113-0.124c0.016,0.004,0.034,0.009,0.05-0.005
				c0.015-0.013,0.01-0.027,0.01-0.041c0.002,0.004,0.001,0.006,0.004,0.009c0.001,0.001,0.048-0.062,0.084-0.094
				c0.024-0.022,0.086-0.041,0.086-0.041c0-0.012-0.036-0.037-0.075-0.037c-0.011,0-0.018,0.008-0.028,0.012
				c0.014-0.021,0.029-0.044,0.035-0.06c0.014-0.035,0.014-0.108,0-0.143c-0.014-0.035-0.021-0.087-0.058-0.135
				c-0.036-0.048-0.08-0.106-0.153-0.141c-0.042-0.02-0.11-0.037-0.176-0.052c0.029-0.017,0.053-0.025,0.068-0.016
				c-0.014-0.042-0.028-0.073-0.061-0.092c-0.06-0.036-0.149-0.013-0.245,0.038c-0.067-0.023-0.134-0.047-0.151-0.055
				c-0.03-0.015-0.13-0.049-0.189-0.055c-0.057-0.006-0.094,0-0.144,0c-0.028,0-0.089,0.003-0.15,0.007
				c-0.014-0.036-0.031-0.055-0.052-0.077c0.013-0.012,0.016-0.029,0.022-0.045h0.062v-0.075h-0.064
				c-0.013-0.028-0.033-0.047-0.063-0.058v-0.109h0.08v-0.074h-0.08v-0.073h-0.078v0.073h-0.079v0.074h0.079v0.111
				c-0.029,0.011-0.049,0.029-0.061,0.057h-0.059v0.075h0.057c0.006,0.015,0.008,0.033,0.02,0.044
				c-0.022,0.023-0.04,0.043-0.055,0.08c-0.028-0.001-0.059-0.002-0.071-0.002c-0.037,0-0.144-0.014-0.21-0.012
				c-0.043,0.002-0.116,0.026-0.145,0.033c-0.029,0.007-0.08,0.007-0.116,0.021c-0.037,0.014-0.073,0.034-0.073,0.034
				s-0.025,0.006-0.044,0.011c-0.082-0.036-0.157-0.053-0.209-0.021c-0.034,0.019-0.048,0.049-0.06,0.092
				c0.006-0.004,0.018,0.003,0.027,0.004c-0.008,0.003-0.025,0.01-0.025,0.01s-0.137,0.041-0.202,0.075
				c-0.066,0.034-0.139,0.076-0.182,0.192c-0.04,0.109,0.034,0.236,0.045,0.255c-0.002,0-0.003-0.002-0.006-0.002
				C21.069,219.402,21.033,219.427,21.033,219.439z M21.217,219.543c0,0,0.001-0.001,0.001-0.002l0.003,0.002
				C21.22,219.544,21.218,219.543,21.217,219.543z M23.79,219.544l0.001-0.003l0.001,0.002
				C23.792,219.544,23.79,219.544,23.79,219.544z"/>
			<path fill="#F64246" d="M24.013,233.521c-0.008-0.004-0.019-0.006-0.027-0.01v-0.731h0.005c-0.198,0-0.36-0.149-0.36-0.337
				c0-0.027,0.005-0.053,0.013-0.079c-0.017,0.006-0.038,0.007-0.057,0.007c0.072,0,0.13-0.045,0.13-0.102
				c0-0.055-0.059-0.1-0.13-0.1h-2.14c-0.073,0-0.131,0.045-0.131,0.1c0,0.057,0.059,0.102,0.131,0.102
				c-0.017,0-0.038-0.002-0.053-0.007c0.007,0.024,0.017,0.051,0.017,0.079c0,0.188-0.163,0.337-0.36,0.337h0.003v0.729
				c-0.007,0.004-0.018,0.006-0.025,0.01c-0.13,0.068-0.31,0.111-0.505,0.111v0.311v0.309v0.309c0.196,0,0.375-0.045,0.505-0.113
				c-0.13,0.068-0.31,0.115-0.505,0.115v0.307c0.196,0,0.375-0.044,0.505-0.113c0.129-0.066,0.302-0.104,0.494-0.104
				c0.188,0,0.359,0.039,0.486,0.102c0.131,0.068,0.306,0.115,0.504,0.115c-0.198,0-0.374-0.047-0.504-0.115
				c-0.127-0.062-0.298-0.102-0.486-0.102c-0.192,0-0.365,0.037-0.494,0.104c-0.13,0.068-0.31,0.115-0.505,0.115v0.307
				c0.196,0,0.375-0.045,0.505-0.113c0.129-0.066,0.302-0.104,0.494-0.104c0.188,0,0.359,0.039,0.486,0.103
				c0.131,0.068,0.306,0.115,0.504,0.115c0.196,0,0.373-0.043,0.503-0.109c0.129-0.066,0.307-0.107,0.501-0.107
				c0.192,0,0.366,0.041,0.494,0.107c0.13,0.068,0.304,0.11,0.501,0.11l0.002-0.309c0,0-0.001,0-0.002,0l0.002-0.31
				c0,0-0.001,0-0.002,0l0.002-0.308c0,0-0.001,0-0.002,0l0.002-0.31c0,0-0.001,0-0.002,0l0.002-0.31
				C24.32,233.631,24.143,233.59,24.013,233.521z M22.514,233.631c-0.185,0-0.347-0.042-0.475-0.104h0.963
				C22.873,233.591,22.704,233.631,22.514,233.631z M23.518,234.65c-0.194,0-0.372,0.041-0.501,0.105
				C23.146,234.691,23.325,234.65,23.518,234.65c0.192,0,0.366,0.041,0.494,0.105C23.885,234.691,23.71,234.65,23.518,234.65z"/>
			<path fill="#F64246" d="M40.323,219.574c0.004-0.005,0.003-0.008,0.006-0.015c-0.003,0.016-0.006,0.033,0.012,0.047
				c0.021,0.02,0.053,0.023,0.066,0.007v-0.001c0.017,0.025,0.066,0.095,0.118,0.123c0.032,0.02,0.081,0.04,0.121,0.033
				c0.008-0.001,0.009-0.012,0.016-0.015l0.01,0.027c0.017-0.005,0.041-0.007,0.058-0.011c-0.029,0.007-0.069,0.011-0.097,0.02
				c-0.016,0.005-0.028,0.025-0.023,0.041c0.006,0.014,0.026,0.026,0.042,0.022l0,0c0,0,0.023,0.037,0.047,0.082l0,0l-0.04,0.064
				l0.075,0.023l0.001-0.002c0.012,0.032,0.021,0.059,0.019,0.059c0.005-0.002,0.013-0.003,0.018-0.005
				c-0.023,0.01-0.041,0.027-0.044,0.048c-0.01,0.043,0.04,0.081,0.125,0.106c0.067,0.018,0.195,0.039,0.347,0.055h-0.99v0.749
				h0.362c-0.072,0-0.131,0.038-0.131,0.084c0,0.047,0.059,0.086,0.131,0.086c-0.021,0-0.045-0.005-0.062-0.011
				c0.074,0.026,0.131,0.094,0.131,0.172c0,0.079-0.053,0.145-0.126,0.169c0.018-0.006,0.038-0.01,0.06-0.01
				c-0.073,0-0.132,0.045-0.132,0.101c0,0.055,0.059,0.101,0.132,0.101h2.139c0.072,0,0.131-0.045,0.131-0.101
				c0-0.056-0.059-0.101-0.131-0.101c0.021,0,0.034,0.001,0.052,0.009c-0.076-0.024-0.125-0.096-0.125-0.168
				c0-0.074,0.044-0.142,0.121-0.166l0.011-0.002c-0.018,0.006-0.038,0.007-0.059,0.007c0.072,0,0.131-0.039,0.131-0.086
				c0-0.046-0.059-0.084-0.131-0.084h0.353v-0.749h-0.995c0.151-0.016,0.279-0.037,0.346-0.055c0.085-0.025,0.134-0.063,0.125-0.106
				c-0.004-0.021-0.023-0.04-0.047-0.05c-0.186-0.061-0.521-0.103-0.86-0.104c-0.331,0.001-0.657,0.042-0.847,0.1
				c0.186-0.06,0.507-0.1,0.846-0.101c0.356,0,0.647,0.037,0.872,0.105c-0.001,0,0.011-0.027,0.025-0.058L42.605,220l-0.031-0.067
				c0.027-0.046,0.046-0.082,0.046-0.082l0,0c0.016,0.004,0.036-0.008,0.041-0.022c0.006-0.016-0.006-0.036-0.022-0.041
				c-0.096-0.029-0.22-0.05-0.344-0.07c0.112,0.018,0.227,0.036,0.317,0.062l0.007-0.02c0.003,0.001,0.004,0.006,0.008,0.007
				c0.04,0.007,0.089-0.013,0.122-0.033c0.05-0.029,0.097-0.1,0.113-0.124c0.016,0.004,0.033,0.009,0.05-0.005
				c0.015-0.013,0.009-0.027,0.009-0.041c0.002,0.004,0.001,0.006,0.004,0.009c0.001,0.001,0.049-0.062,0.083-0.094
				c0.025-0.022,0.087-0.041,0.087-0.041c0-0.012-0.036-0.037-0.075-0.037c-0.016,0-0.028,0.009-0.04,0.018
				c0-0.003,0.003-0.011,0.003-0.013c0.003-0.021,0.011-0.072,0.011-0.072c0.017-0.083-0.112-0.18-0.294-0.221
				c-0.095-0.021-0.171-0.017-0.236-0.002c0.021-0.008,0.043-0.018,0.043-0.041c0-0.031-0.025-0.055-0.058-0.055
				c-0.032,0-0.058,0.024-0.058,0.055c0,0.022,0.022,0.031,0.042,0.04c-0.074-0.062-0.227-0.104-0.408-0.104
				c-0.088,0-0.167,0.011-0.237,0.028c0.006-0.026,0.022-0.046,0.022-0.076c0-0.096-0.044-0.164-0.099-0.206
				c0.015-0.012,0.02-0.029,0.027-0.047H41.8v-0.074h-0.064c-0.012-0.028-0.032-0.047-0.062-0.058v-0.11h0.079v-0.075h-0.079v-0.073
				h-0.078v0.073h-0.079v0.075h0.079v0.11c-0.029,0.011-0.049,0.03-0.062,0.058h-0.058v0.074h0.056
				c0.007,0.017,0.011,0.035,0.025,0.046c-0.056,0.042-0.101,0.11-0.101,0.207c0,0.029,0.015,0.048,0.021,0.073
				c-0.068-0.016-0.146-0.026-0.23-0.026c-0.183,0-0.337,0.043-0.41,0.105c-0.002,0-0.007,0-0.009,0
				c0.021-0.008,0.043-0.018,0.043-0.041c0-0.031-0.026-0.055-0.058-0.055c-0.032,0-0.058,0.024-0.058,0.055
				c0,0.023,0.023,0.033,0.044,0.041c-0.064-0.013-0.137-0.02-0.227,0.001c-0.184,0.041-0.312,0.138-0.295,0.221
				c0,0,0.007,0.049,0.01,0.07l-0.003,0.022c-0.014-0.016-0.035-0.025-0.058-0.025c-0.039,0-0.074,0.025-0.074,0.037
				c0,0,0.061,0.019,0.085,0.041C40.275,219.512,40.321,219.575,40.323,219.574z M41.588,219.667
				c-0.174,0.001-0.342,0.011-0.493,0.03C41.246,219.678,41.413,219.669,41.588,219.667z M41.636,219.664L41.636,219.664
				c0.196,0,0.381,0.012,0.55,0.033C42.017,219.677,41.831,219.664,41.636,219.664z"/>
			<path fill="#F64246" d="M43.105,233.51v-0.729h0.004c-0.198,0-0.359-0.149-0.359-0.337c0-0.027,0.009-0.053,0.016-0.079h-0.001
				c-0.014,0.005-0.034,0.006-0.051,0.006c0.072,0,0.13-0.045,0.13-0.101s-0.059-0.101-0.131-0.101h-2.139
				c-0.073,0-0.132,0.045-0.132,0.101s0.059,0.101,0.132,0.101h-0.001c-0.02,0-0.04-0.001-0.056-0.007
				c0.007,0.025,0.011,0.052,0.011,0.078c0,0.188-0.162,0.338-0.358,0.338h0.004v0.731c-0.008,0.005-0.019,0.005-0.027,0.009
				c-0.13,0.069-0.306,0.11-0.503,0.11l0.002,0.31c0,0-0.001,0-0.002,0l0.002,0.31c0,0-0.001,0-0.002,0l0.002,0.308
				c0,0-0.001,0-0.002,0l0.002,0.31c0,0-0.001,0-0.002,0l0.002,0.309c0.197,0,0.371-0.042,0.501-0.11
				c0.129-0.066,0.303-0.107,0.494-0.107c0.194,0,0.374,0.042,0.502,0.107c0.129,0.066,0.307,0.109,0.502,0.109
				c0.197,0,0.374-0.047,0.503-0.115c0.128-0.063,0.299-0.103,0.487-0.103c0.194,0,0.366,0.038,0.494,0.104
				c0.129,0.068,0.31,0.113,0.506,0.113v-0.307c-0.197,0-0.377-0.047-0.506-0.115c-0.128-0.066-0.3-0.104-0.494-0.104
				c-0.188,0-0.359,0.039-0.487,0.102c-0.129,0.068-0.306,0.115-0.503,0.115c0.197,0,0.374-0.047,0.503-0.115
				c0.128-0.062,0.299-0.102,0.487-0.102c0.194,0,0.366,0.037,0.494,0.104c0.129,0.068,0.31,0.113,0.506,0.113v-0.307
				c-0.197,0-0.377-0.047-0.506-0.115c0.129,0.068,0.31,0.113,0.506,0.113v-0.309v-0.309v-0.311c-0.197,0-0.377-0.043-0.506-0.111
				C43.122,233.516,43.112,233.514,43.105,233.51z M41.645,233.631c-0.189,0-0.359-0.04-0.487-0.104h0.961
				C41.993,233.589,41.83,233.631,41.645,233.631z M41.645,233.941c-0.195,0-0.373-0.043-0.502-0.11
				C41.272,233.898,41.451,233.941,41.645,233.941z M41.645,234.25c-0.195,0-0.373-0.043-0.502-0.109
				C41.272,234.206,41.451,234.25,41.645,234.25z M40.641,234.65c-0.191,0-0.365,0.041-0.494,0.105
				C40.276,234.691,40.45,234.65,40.641,234.65c0.194,0,0.374,0.041,0.502,0.105C41.015,234.691,40.835,234.65,40.641,234.65z"/>
			<path fill="#F64246" d="M42.685,228.125v-2.184v-0.262c0.191,0.069,0.363,0.146,0.507,0.226
				c-0.154,0.017-0.328,0.038-0.507,0.038l0.003,0.998c0.579-0.043,0.973-0.196,1.018-0.438c-0.002,0.008-0.004,0.026-0.007,0.034
				c0,0,0.467-1.053,0.475-1.094c0.065-0.349-0.56-0.758-1.488-1.032v-2.57h-2.084v2.272c-0.001,0-0.003,0-0.004,0
				c-0.858,0-1.602,0.107-2.068,0.271v-4.23h-4.804c0.889-0.082,1.69-0.218,2.321-0.408c0.073-0.022,0.111-0.09,0.108-0.16
				c0.001-0.062-0.035-0.116-0.096-0.142c0.014,0.004,0.031,0.007,0.044,0.011c-0.069-0.032-0.073-0.113-0.016-0.285l0.017,0.012
				l0.242-0.102l-0.136-0.179c0.108-0.156,0.22-0.167,0.235-0.166h0.001c0.073,0.022,0.152-0.007,0.175-0.077
				c0.024-0.071-0.017-0.15-0.089-0.173c-0.065-0.02-0.148-0.035-0.217-0.055l0.016-0.045c0.048,0.031,0.092,0.069,0.151,0.078
				c0.176,0.029,0.397-0.06,0.542-0.144c0.201-0.116,0.388-0.359,0.468-0.471c0.072,0.036,0.174,0.027,0.259-0.045
				c0.102-0.087,0.131-0.213,0.065-0.281c0.008,0.009,0.018,0.021,0.022,0.032c0,0,0.142-0.267,0.309-0.355
				c0.167-0.089,0.449-0.066,0.449-0.066c0-0.205-0.168-0.371-0.384-0.371c-0.013,0-0.024,0.006-0.036,0.008l0.011-0.093
				l0.038,0.062l0.18-0.144l-0.025-0.041c0.195-0.25,0.308-0.543,0.308-0.854c0-0.452-0.249-0.849-0.632-1.151
				c-0.003-0.002-0.006-0.004-0.009-0.006c-0.071-0.056-0.139-0.115-0.219-0.163c0.056,0.035,0.096,0.078,0.146,0.117
				c-0.409-0.32-1.038-0.531-1.759-0.531c-0.175,0-0.333,0.031-0.496,0.054c-0.025-0.026-0.061-0.043-0.102-0.043
				c-0.049,0-0.086,0.029-0.11,0.066c-0.025,0.005-0.055,0.003-0.079,0.009c0.023,0.026,0.04,0.055,0.06,0.082
				c0.001,0.004,0.004,0.008,0.005,0.013c-0.121-0.155-0.274-0.296-0.463-0.408c0.017,0.014,0.025,0.033,0.041,0.047
				c-0.327-0.285-0.819-0.475-1.389-0.475c-0.443,0-0.848,0.109-1.16,0.292c0.013,0.079,0.02,0.152,0.027,0.238
				c0.285-0.195,0.687-0.318,1.133-0.318c0.859,0,1.538,0.46,1.564,1.015c0.006,0.039,0.008,0.078,0.008,0.117
				c0,0.221-0.085,0.421-0.216,0.586c-0.357-0.057-0.687-0.139-0.936-0.25c-0.374-0.149-0.9-0.256-1.504-0.3
				c-0.013-0.128-0.022-0.261-0.025-0.403c-0.001-0.025-0.005-0.053-0.006-0.079c0-0.021,0.002-0.043,0.001-0.065
				c-0.004-0.215-0.022-0.417-0.054-0.594c-0.042-0.182-0.211-0.307-0.41-0.331c0.209-0.02,0.385-0.139,0.465-0.312h0.001
				c0-0.001,0.003-0.002,0.004-0.004c0.029-0.065,0.044-0.135,0.044-0.21c0-0.002-0.002-0.004-0.002-0.006
				c-0.003-0.241-0.174-0.436-0.406-0.502v-0.009v-0.407h0.311v-0.295H32.21v-0.289h-0.309v0.289H31.59v0.295h0.312v0.404v0.009
				c-0.24,0.062-0.419,0.262-0.419,0.51l0,0l0,0c0,0.075,0.016,0.145,0.043,0.21c0.001,0.002,0.003,0.002,0.004,0.004l0,0
				c0.077,0.166,0.242,0.279,0.437,0.307c-0.124,0.02-0.232,0.081-0.306,0.171c0.024-0.024,0.04-0.056,0.04-0.091
				c0-0.074-0.063-0.133-0.141-0.133s-0.141,0.059-0.141,0.133c0,0.073,0.063,0.134,0.141,0.134c0.038,0,0.072-0.015,0.097-0.039
				c-0.038,0.048-0.069,0.102-0.083,0.162c-0.002,0.016-0.002,0.037-0.005,0.053c-0.312-0.182-0.717-0.291-1.159-0.291
				c-0.57,0-1.063,0.19-1.39,0.476c0.017-0.015,0.024-0.034,0.042-0.048c-0.189,0.112-0.342,0.252-0.463,0.407
				c0.001-0.003,0.003-0.006,0.004-0.01c0.021-0.028,0.037-0.057,0.061-0.083c-0.025-0.005-0.054-0.003-0.079-0.009
				c-0.025-0.038-0.061-0.066-0.112-0.066c-0.041,0-0.075,0.017-0.101,0.043c-0.163-0.023-0.321-0.054-0.497-0.054
				c-0.723,0-1.352,0.212-1.76,0.532c0.049-0.039,0.09-0.082,0.146-0.117c-0.082,0.049-0.151,0.109-0.223,0.166
				c-0.001,0-0.002,0.001-0.003,0.002c-0.384,0.302-0.634,0.701-0.634,1.153c0,0.311,0.113,0.604,0.308,0.854l-0.025,0.041
				l0.173,0.137l0.004,0.041c-0.188,0.026-0.329,0.173-0.329,0.36c0,0,0.282-0.022,0.447,0.066c0.167,0.089,0.309,0.356,0.309,0.356
				c0.005-0.011,0.014-0.023,0.022-0.032c-0.064,0.068-0.036,0.194,0.066,0.281c0.085,0.072,0.188,0.081,0.259,0.045
				c0.08,0.112,0.267,0.355,0.468,0.471c0.146,0.084,0.367,0.173,0.542,0.144c0.029-0.004,0.047-0.028,0.074-0.038l0.009,0.026
				c-0.042,0.012-0.095,0.021-0.137,0.034c-0.075,0.022-0.114,0.103-0.09,0.173c0.024,0.07,0.102,0.099,0.177,0.077
				c0.001,0,0.002,0,0.003-0.001c0.007,0,0.124,0.004,0.235,0.163l-0.14,0.183l0.241,0.102l0.023-0.017
				c0.058,0.175,0.054,0.257-0.014,0.29c0.01-0.003,0.022-0.005,0.032-0.008c-0.058,0.026-0.092,0.078-0.091,0.139
				c-0.004,0.07,0.035,0.137,0.108,0.16c0.63,0.19,1.432,0.326,2.321,0.408H25.65v4.236c-0.466-0.168-1.218-0.277-2.086-0.277
				c-0.002,0-0.004,0-0.006,0v-2.272h-2.083v2.57c-0.928,0.274-1.554,0.685-1.489,1.033c0.008,0.041,0.474,1.093,0.474,1.093
				c-0.001-0.008-0.003-0.025-0.006-0.034c0.045,0.241,0.44,0.396,1.018,0.438l0.003-0.998c-0.18,0-0.354-0.021-0.507-0.038
				c0.145-0.08,0.316-0.155,0.507-0.226v0.263v2.182c-0.792,0.292-1.353,0.62-1.298,0.785l0,0l0.193,1.038
				c-0.007-0.02,0-0.045,0.016-0.073c-0.016,0.028-0.023,0.054-0.016,0.073c0.016,0.079,0.108,0.137,0.24,0.225
				c0.208,0.146,0.333,0.402,0.236,0.521c0.171-0.139,0.28-0.346,0.28-0.575c0-0.24-0.115-0.456-0.299-0.595
				c0.19-0.11,0.418-0.219,0.649-0.299v2.824h2.083v-3.744c0.611-0.36,0.997-0.694,0.922-0.832c0,0-0.082-0.889-0.14-1.029
				c0.012,0.029,0.003,0.066-0.019,0.107c0.022-0.043,0.03-0.08,0.018-0.109c0,0,0,0.001,0.001,0.001
				c-0.001-0.002,0.001-0.005,0-0.007l0,0l0,0l-0.012-0.021c-0.135-0.109-0.407-0.199-0.767-0.254l-0.003,1.001c0,0,0,0-0.001,0.001
				v-1.859c0.004,0,0.009,0,0.014,0c0.867,0.028,1.621,0.164,2.079,0.346v1.529h-0.002l-0.01,4.332
				c0.003,0.127,0.026,0.24,0.042,0.358c0.006,0.065,0.012,0.13,0.022,0.192c0.005,0.026,0.004,0.057,0.01,0.082
				c0.011,0.054,0.028,0.104,0.042,0.154c0.031,0.125,0.071,0.245,0.117,0.363c0.005,0.014,0.009,0.025,0.015,0.039
				c0.009,0.023,0.016,0.047,0.026,0.07c0.091,0.207,0.208,0.399,0.343,0.58c0.04,0.056,0.078,0.119,0.118,0.168v-0.008
				c0.271,0.318,0.609,0.584,0.997,0.776c1.397,0.685,3.06,1.095,4.737,1.095c1.677,0,3.313-0.41,4.71-1.095
				c0.818-0.405,1.411-1.142,1.623-2.017c0.015-0.058,0.027-0.114,0.038-0.172c0.023-0.131,0.037-0.265,0.042-0.399
				c0.002-0.044,0.014-0.086,0.014-0.132v-4.275H38.53v-1.65c0.459-0.179,1.203-0.311,2.06-0.338c0.004,0,0.009,0,0.013,0v1.859l0,0
				l-0.003-1.002c-0.362,0.055-0.632,0.145-0.767,0.254l-0.012,0.021l0,0l0,0c-0.001,0.002,0.001,0.005,0,0.007v-0.001
				c-0.013,0.029-0.004,0.066,0.018,0.109c-0.021-0.043-0.03-0.08-0.018-0.108c-0.059,0.142-0.139,1.028-0.139,1.028
				c-0.074,0.138,0.311,0.472,0.92,0.832v3.744h2.084v-2.822c0.23,0.08,0.458,0.188,0.648,0.298
				c-0.184,0.139-0.298,0.354-0.298,0.595c0,0.229,0.108,0.438,0.279,0.575c-0.098-0.119,0.028-0.376,0.236-0.521
				c0.131-0.088,0.223-0.146,0.239-0.226c0.007-0.021,0-0.045-0.016-0.072c0.016,0.028,0.023,0.054,0.016,0.072l0.193-1.038l0,0
				C44.038,228.744,43.478,228.417,42.685,228.125z M20.409,229.844c0.015-0.02,0.032-0.039,0.054-0.062
				C20.44,229.803,20.423,229.823,20.409,229.844z M20.51,229.74c0.025-0.021,0.053-0.043,0.083-0.066
				C20.563,229.695,20.535,229.718,20.51,229.74z M20.657,229.628c0.038-0.024,0.078-0.05,0.121-0.076
				C20.735,229.578,20.695,229.604,20.657,229.628z M24.193,226.708c0.043-0.042,0.077-0.081,0.102-0.117
				C24.27,226.627,24.237,226.665,24.193,226.708z M23.902,226.943c-0.096,0.067-0.205,0.138-0.326,0.209
				C23.696,227.08,23.806,227.01,23.902,226.943z M24.142,226.756c-0.056,0.049-0.122,0.102-0.199,0.157
				C24.019,226.857,24.086,226.805,24.142,226.756z M20.654,226.122c-0.028,0.024-0.06,0.05-0.082,0.075
				C20.594,226.172,20.626,226.146,20.654,226.122z M20.512,226.287c-0.013,0.021-0.032,0.043-0.041,0.064
				C20.48,226.33,20.499,226.309,20.512,226.287z M20.747,226.042c0.036-0.026,0.08-0.052,0.122-0.078
				C20.827,225.99,20.783,226.016,20.747,226.042z M32.062,218.946c-0.283,0-0.554,0.013-0.825,0.025
				c0.268-0.012,0.535-0.026,0.814-0.027c0.185,0,0.359,0.012,0.54,0.018C32.414,218.957,32.244,218.946,32.062,218.946z
				 M38.362,214.936c-0.062-0.127-0.162-0.243-0.279-0.351C38.2,214.694,38.3,214.809,38.362,214.936z M38.15,215.032
				c0.06,0.125,0.094,0.264,0.094,0.411c0,0.2-0.079,0.374-0.187,0.53c-0.188-0.126-0.397-0.249-0.642-0.357
				c-0.505-0.223-1.011-0.325-1.36-0.318c-0.102,0.008-0.213,0.008-0.326,0.006c0-0.001,0.001-0.002,0.001-0.004
				c0-0.048-0.03-0.082-0.069-0.106c0.018-0.045,0.037-0.09,0.048-0.137c0.003,0,0.006,0.004,0.009,0.004
				c0.077,0,0.14-0.06,0.14-0.133c0-0.064-0.053-0.114-0.118-0.125c-0.001-0.054-0.017-0.104-0.025-0.157
				c0.071-0.007,0.128-0.059,0.128-0.127c0-0.074-0.063-0.133-0.142-0.133c-0.022,0-0.038,0.014-0.056,0.022
				c-0.026-0.059-0.051-0.118-0.086-0.173c0.001,0.002,0.003,0.003,0.004,0.005c0.012-0.002,0.025-0.001,0.037-0.003
				c0.005,0,0.008,0.005,0.014,0.005c0.009,0,0.014-0.007,0.023-0.009c0.182-0.031,0.375-0.054,0.574-0.054
				C37.145,214.18,37.925,214.543,38.15,215.032z M35.354,214.133c-0.008-0.015-0.013-0.03-0.021-0.044
				C35.342,214.103,35.347,214.118,35.354,214.133z M30.411,213.522c0.445,0,0.849,0.123,1.132,0.318
				c0.006-0.068,0.014-0.127,0.022-0.188c-0.022,0.153-0.042,0.313-0.044,0.491c-0.001,0.022,0.001,0.044,0.001,0.065
				c0,0.026-0.005,0.053-0.005,0.079c-0.003,0.141-0.013,0.272-0.025,0.399c-0.627,0.04-1.162,0.148-1.554,0.304
				c-0.237,0.107-0.551,0.184-0.889,0.241c-0.127-0.164-0.209-0.36-0.209-0.577c0-0.039,0.003-0.078,0.007-0.117
				C28.874,213.982,29.551,213.522,30.411,213.522z M28.759,214.087c-0.01,0.016-0.015,0.033-0.024,0.049
				C28.744,214.12,28.749,214.103,28.759,214.087z M27.877,214.18c0.202,0,0.391,0.023,0.574,0.054
				c0.009,0.002,0.014,0.009,0.023,0.009c0.006,0,0.009-0.005,0.014-0.005c0.012,0.002,0.026,0.001,0.038,0.003
				c0,0,0.001-0.001,0.001-0.002c-0.035,0.054-0.06,0.112-0.084,0.169c-0.019-0.009-0.035-0.022-0.057-0.022
				c-0.078,0-0.141,0.06-0.141,0.133c0,0.068,0.057,0.121,0.128,0.127c-0.009,0.052-0.024,0.103-0.025,0.156
				c-0.065,0.011-0.118,0.059-0.118,0.125c0,0.074,0.062,0.133,0.14,0.133c0.003,0,0.005-0.003,0.009-0.003
				c0.012,0.047,0.03,0.091,0.048,0.136c-0.039,0.024-0.069,0.058-0.069,0.106c0,0.002,0.002,0.003,0.002,0.005
				c-0.132,0.003-0.26,0.002-0.378-0.007c-0.35-0.007-0.855,0.096-1.361,0.318c-0.228,0.102-0.429,0.215-0.609,0.333
				c-0.097-0.15-0.167-0.316-0.167-0.505c0-0.146,0.034-0.285,0.094-0.411C26.165,214.543,26.945,214.18,27.877,214.18z
				 M26.008,214.585c-0.116,0.108-0.216,0.225-0.278,0.352C25.791,214.809,25.891,214.694,26.008,214.585z M30.906,218.982
				c-0.069,0.004-0.131,0.013-0.199,0.019C30.775,218.995,30.837,218.987,30.906,218.982z M43.413,226.042
				c-0.037-0.026-0.083-0.054-0.126-0.08C43.33,225.988,43.375,226.014,43.413,226.042z M43.655,226.298
				c0.01,0.019,0.026,0.036,0.033,0.054C43.682,226.333,43.665,226.314,43.655,226.298z M43.587,226.195
				c-0.021-0.023-0.052-0.047-0.078-0.07C43.536,226.148,43.566,226.172,43.587,226.195z M39.866,226.592
				c0.024,0.035,0.057,0.073,0.099,0.114C39.922,226.665,39.89,226.627,39.866,226.592z M40.584,227.152
				c-0.12-0.071-0.229-0.142-0.324-0.207C40.355,227.011,40.464,227.081,40.584,227.152z M40.209,226.907
				c-0.073-0.052-0.136-0.103-0.19-0.149C40.073,226.805,40.137,226.855,40.209,226.907z M43.378,229.55
				c0.043,0.026,0.085,0.052,0.123,0.078C43.463,229.602,43.422,229.576,43.378,229.55z M43.646,229.736
				c-0.023-0.02-0.049-0.039-0.078-0.061C43.597,229.697,43.623,229.717,43.646,229.736z M43.699,229.783
				c0.021,0.02,0.036,0.037,0.049,0.056C43.734,229.822,43.719,229.803,43.699,229.783z"/>
			<ellipse fill="#F64246" cx="38.592" cy="216.712" rx="0.141" ry="0.133"/>
			<ellipse fill="#F64246" cx="38.784" cy="216.372" rx="0.141" ry="0.132"/>
			<ellipse fill="#F64246" cx="38.913" cy="215.978" rx="0.14" ry="0.133"/>
			<ellipse fill="#F64246" cx="38.929" cy="215.555" rx="0.14" ry="0.133"/>
			<ellipse fill="#F64246" cx="38.825" cy="215.138" rx="0.141" ry="0.134"/>
			<ellipse fill="#F64246" cx="38.609" cy="214.761" rx="0.14" ry="0.133"/>
			<ellipse fill="#F64246" cx="38.32" cy="214.45" rx="0.141" ry="0.133"/>
			<ellipse fill="#F64246" cx="37.984" cy="214.192" rx="0.141" ry="0.133"/>
			<ellipse fill="#F64246" cx="37.584" cy="213.981" rx="0.142" ry="0.133"/>
			<ellipse fill="#F64246" cx="37.169" cy="213.831" rx="0.141" ry="0.133"/>
			<ellipse fill="#F64246" cx="36.705" cy="213.747" rx="0.141" ry="0.133"/>
			<ellipse fill="#F64246" cx="36.265" cy="213.725" rx="0.141" ry="0.133"/>
			<ellipse fill="#F64246" cx="35.832" cy="213.74" rx="0.141" ry="0.133"/>
			<ellipse fill="#F64246" cx="35.4" cy="213.74" rx="0.14" ry="0.133"/>
			<ellipse fill="#F64246" cx="35.073" cy="213.482" rx="0.14" ry="0.133"/>
			<ellipse fill="#F64246" cx="34.689" cy="213.269" rx="0.139" ry="0.133"/>
			<ellipse fill="#F64246" cx="34.266" cy="213.142" rx="0.141" ry="0.133"/>
			<ellipse fill="#F64246" cx="33.825" cy="213.066" rx="0.14" ry="0.133"/>
			<ellipse fill="#F64246" cx="33.395" cy="213.074" rx="0.141" ry="0.133"/>
			<ellipse fill="#F64246" cx="32.946" cy="213.15" rx="0.141" ry="0.133"/>
			<ellipse fill="#F64246" cx="32.531" cy="213.292" rx="0.141" ry="0.134"/>
			<ellipse fill="#F64246" cx="25.498" cy="216.712" rx="0.14" ry="0.133"/>
			<ellipse fill="#F64246" cx="25.307" cy="216.372" rx="0.141" ry="0.133"/>
			<ellipse fill="#F64246" cx="25.178" cy="215.978" rx="0.141" ry="0.133"/>
			<ellipse fill="#F64246" cx="25.162" cy="215.555" rx="0.141" ry="0.133"/>
			<ellipse fill="#F64246" cx="25.265" cy="215.139" rx="0.141" ry="0.133"/>
			<ellipse fill="#F64246" cx="25.483" cy="214.761" rx="0.14" ry="0.133"/>
			<ellipse fill="#F64246" cx="25.77" cy="214.45" rx="0.141" ry="0.133"/>
			<ellipse fill="#F64246" cx="26.105" cy="214.192" rx="0.141" ry="0.133"/>
			<ellipse fill="#F64246" cx="26.506" cy="213.981" rx="0.141" ry="0.133"/>
			<ellipse fill="#F64246" cx="26.92" cy="213.831" rx="0.142" ry="0.133"/>
			<ellipse fill="#F64246" cx="27.386" cy="213.747" rx="0.14" ry="0.133"/>
			<ellipse fill="#F64246" cx="27.826" cy="213.725" rx="0.14" ry="0.133"/>
			<ellipse fill="#F64246" cx="28.258" cy="213.74" rx="0.14" ry="0.133"/>
			<ellipse fill="#F64246" cx="28.691" cy="213.74" rx="0.141" ry="0.133"/>
			<ellipse fill="#F64246" cx="29.017" cy="213.482" rx="0.141" ry="0.133"/>
			<ellipse fill="#F64246" cx="29.402" cy="213.269" rx="0.141" ry="0.133"/>
			<ellipse fill="#F64246" cx="29.824" cy="213.142" rx="0.141" ry="0.133"/>
			<ellipse fill="#F64246" cx="30.265" cy="213.066" rx="0.142" ry="0.133"/>
			<ellipse fill="#F64246" cx="30.696" cy="213.074" rx="0.14" ry="0.133"/>
			<ellipse fill="#F64246" cx="31.144" cy="213.15" rx="0.14" ry="0.133"/>
		</g>
	</g>
	<g>
		<rect id="black_stripe" y="286.872" fill="#1A1A1A" width="110" height="21.362"/>
		<rect y="308.234" fill="#F64246" width="110" height="21.361"/>
		<rect id="gold_stripe" y="329.596" fill="#F4BE00" width="110" height="21.362"/>
	</g>
	<g>
		<rect x="73.333" y="382.496" fill="#F64246" width="36.667" height="64.086"/>
		<rect x="36.666" y="382.496" fill="#FFFFFF" width="36.667" height="64.086"/>
		<rect y="382.496" fill="#0071B8" width="36.667" height="64.086"/>
	</g>
</g>
</svg>
