<?xml version="1.0" encoding="utf-8"?>
<!-- Generator: Adobe Illustrator 16.0.3, SVG Export Plug-In . SVG Version: 6.00 Build 0)  -->
<!DOCTYPE svg PUBLIC "-//W3C//DTD SVG 1.1//EN" "http://www.w3.org/Graphics/SVG/1.1/DTD/svg11.dtd">
<svg version="1.1" id="Layer_1" xmlns="http://www.w3.org/2000/svg" xmlns:xlink="http://www.w3.org/1999/xlink" x="0px" y="0px"
	 width="167.386px" height="163.741px" viewBox="2.5 33.734 167.386 163.741" enable-background="new 2.5 33.734 167.386 163.741"
	 xml:space="preserve">
<path fill="#B6D6F0" d="M141.915,174.228c-11.371-4.322-25.703-6.604-25.703-6.604l-2.501-14.321h-7.957l-0.42-12.435
	c19.108-1.477,25.863-6.969,25.863-6.969s-6,1.334-9-9.333s2.666-18.5,2.666-43.833c0-17.436-11.369-27.293-23.135-31.744
	c-0.022-0.021-0.053-0.048-0.072-0.068c-1.368-1.521-7.421-3.446-15.634-2.854c-14.348,0.003-38.338,9.339-38.338,34.668
	c0,25.333,5.666,33.166,2.666,43.833s-9,9.333-9,9.333s6.805,5.536,26.087,6.987c-0.336,5.435-0.805,12.188-0.805,12.188h-8.186
	l-2.955,14.551c0,0-28.887,8.422-40.257,13.879S2.5,197.475,2.5,197.475l167.386-0.002
	C168.067,184.34,153.285,178.549,141.915,174.228z"/>
<path fill="#E6EFF7" d="M85.868,64.4c-15.152,0-22.664,4-22.664,4l-7.322-24.834c0,0,7.799-9.832,30.148-9.832
	c22.351,0,30.149,9.832,30.149,9.832L108.858,68.4c0,0-7.511-4-22.664-4"/>
<polygon fill="#C133B1" points="95.686,47.964 89.62,47.964 89.62,41.9 83.415,41.9 83.415,47.964 77.352,47.964 77.352,54.17 
	83.415,54.17 83.415,60.234 89.62,60.234 89.62,54.17 95.686,54.17 "/>
</svg>
