<?xml version="1.0" encoding="utf-8"?>
<!-- Generator: Adobe Illustrator 16.0.3, SVG Export Plug-In . SVG Version: 6.00 Build 0)  -->
<!DOCTYPE svg PUBLIC "-//W3C//DTD SVG 1.1//EN" "http://www.w3.org/Graphics/SVG/1.1/DTD/svg11.dtd">
<svg version="1.1" id="Layer_1" xmlns="http://www.w3.org/2000/svg" xmlns:xlink="http://www.w3.org/1999/xlink" x="0px" y="0px"
	 width="200.636px" height="468.591px" viewBox="0 0 200.636 468.591" enable-background="new 0 0 200.636 468.591"
	 xml:space="preserve">
<rect fill="#9CC6E6" width="200" height="120"/>
<rect x="0.636" y="348.59" fill="#B6D6F0" width="200" height="120.001"/>
<g>
	<path fill="#FFFFFF" d="M46.024,70.143c0.111-0.147,0.323-0.186,0.464-0.08c1.328,0.989,2.676,1.936,4.044,2.839
		c0.169,0.112,0.233,0.28,0.167,0.488c-0.592,1.973-1.147,3.962-1.667,5.967c-0.059,0.212-0.035,0.351,0.018,0.383
		c0.08,0.05,0.214,0.009,0.339-0.192c1.03-1.665,2.06-3.33,3.09-4.994c0.097-0.156,0.304-0.215,0.476-0.109
		c1.234,0.758,2.482,1.481,3.744,2.172c0.201,0.11,0.241,0.34,0.153,0.503c-3.021,5.583-6.041,11.166-9.061,16.749
		c-0.087,0.162-0.287,0.234-0.504,0.116c-1.932-1.055-3.838-2.174-5.716-3.358c-0.121-0.076-0.245-0.28-0.19-0.432
		c0.407-1.614,0.835-3.218,1.284-4.814c0.087-0.258,0.032-0.42-0.053-0.476c-0.085-0.056-0.2-0.005-0.345,0.214
		c-0.858,1.295-1.716,2.591-2.574,3.886c-0.102,0.154-0.368,0.167-0.576,0.028c-1.506-1.008-2.993-2.058-4.458-3.151
		c-0.174-0.13-0.194-0.342-0.067-0.511C38.402,80.295,42.213,75.219,46.024,70.143z"/>
	<path fill="#FFFFFF" d="M54.064,84.529c1.47-2.734,4.418-2.493,6.605-1.508c3.041,1.38,4.029,4.174,3.117,6.599
		c-0.193,0.499-0.387,0.999-0.58,1.498c-0.048,0.123-0.204,0.175-0.353,0.118c-1.652-0.646-3.29-1.337-4.912-2.076
		c-0.117-0.053-0.207-0.008-0.262,0.111c-0.573,1.253-1.147,2.507-1.72,3.76c-0.176,0.383-0.027,0.625,0.249,0.75
		c0.214,0.097,0.556,0.076,0.716-0.286c0.218-0.489,0.436-0.979,0.653-1.468c0.043-0.096,0.175-0.153,0.355-0.073
		c1.267,0.626,2.544,1.226,3.833,1.796c0.173,0.097,0.257,0.242,0.2,0.389c-0.203,0.523-0.407,1.047-0.61,1.571
		c-1.194,3.153-4.43,2.986-7.37,1.631c-3.428-1.58-4.38-4.396-2.964-7.033C52.036,88.382,53.05,86.456,54.064,84.529z
		 M58.413,87.666c-0.033,0.072,0.031,0.159,0.117,0.198c0.661,0.3,0.749,0.336,0.802,0.216c0.685-1.54,0.731-1.72,0.281-1.923
		c-0.225-0.102-0.487-0.048-0.652,0.311C58.778,86.867,58.595,87.266,58.413,87.666z"/>
	<path fill="#FFFFFF" d="M70.705,98.06c0.059-0.449,0.024-0.568-0.039-0.586c-0.063-0.018-0.155,0.065-0.341,0.478
		c-0.682,1.503-1.376,3.002-2.081,4.498c-0.07,0.116-0.192,0.163-0.325,0.123c-1.404-0.417-2.802-0.864-4.192-1.341
		c-0.131-0.045-0.228-0.189-0.217-0.325c0.631-5.208,1.417-10.38,2.359-15.509c0.01-0.109,0.093-0.162,0.177-0.13
		c1.2,0.457,2.408,0.887,3.623,1.29c0.14,0.046,0.199,0.149,0.166,0.25c-0.221,1.49-0.43,2.982-0.626,4.477
		c-0.019,0.16,0.017,0.254,0.046,0.263c0.029,0.01,0.105-0.022,0.19-0.188c0.703-1.325,1.394-2.654,2.073-3.988
		c0.067-0.118,0.203-0.158,0.288-0.132c1.081,0.33,2.167,0.639,3.257,0.927c0.114,0.03,0.179,0.129,0.181,0.238
		c-0.148,1.495-0.285,2.992-0.41,4.491c-0.009,0.161,0.032,0.252,0.062,0.26s0.109-0.054,0.178-0.199
		c0.619-1.366,1.226-2.735,1.822-4.109c0.059-0.122,0.192-0.17,0.278-0.15c1.229,0.294,2.462,0.562,3.699,0.803
		c0.115,0.022,0.21,0.148,0.157,0.272c-1.895,4.847-3.944,9.65-6.145,14.401c-0.062,0.12-0.181,0.175-0.316,0.144
		c-1.423-0.325-2.841-0.679-4.252-1.062c-0.134-0.036-0.239-0.175-0.237-0.311C70.275,101.313,70.485,99.686,70.705,98.06z"/>
	<path fill="#FFFFFF" d="M93.469,101.418c0.227,0.011,0.352,0.148,0.346,0.279c-0.072,1.631-0.144,3.263-0.215,4.895
		c-0.008,0.184-0.185,0.281-0.39,0.272c-3.598-0.171-7.189-0.524-10.759-1.059c-0.136-0.021-0.29-0.151-0.266-0.307
		c0.23-1.501,0.46-3.003,0.69-4.504c0.024-0.155,0.08-0.307,0.197-0.422c1.967-2.721,3.803-5.497,5.507-8.318
		c0.043-0.128-0.004-0.239-0.123-0.252c-1.288-0.138-2.574-0.303-3.857-0.495c-0.146-0.022-0.219-0.14-0.199-0.27
		c0.24-1.571,0.48-3.142,0.721-4.712c0.024-0.156,0.154-0.27,0.265-0.253c2.916,0.437,5.85,0.725,8.789,0.864
		c0.14,0.007,0.245,0.169,0.238,0.327c-0.058,1.518-0.116,3.035-0.173,4.553c-0.005,0.132-0.073,0.314-0.138,0.442
		c-1.494,2.841-3.116,5.646-4.865,8.407c-0.047,0.154,0.009,0.265,0.203,0.282C90.782,101.264,92.125,101.354,93.469,101.418z"/>
	<path fill="#FFFFFF" d="M95.136,95.396c0.128-3.102,2.813-4.174,5.163-4.238c3.27-0.079,5.35,2.013,5.581,4.592
		c0.043,0.534,0.086,1.068,0.128,1.602c0.011,0.131-0.106,0.247-0.263,0.258c-1.742,0.134-3.486,0.221-5.233,0.261
		c-0.125,0.002-0.186,0.083-0.183,0.214c0.029,1.378,0.058,2.756,0.087,4.134c0.008,0.421,0.242,0.575,0.54,0.567
		c0.23-0.005,0.521-0.173,0.51-0.568c-0.018-0.535-0.034-1.07-0.051-1.605c-0.004-0.106,0.09-0.214,0.283-0.221
		c1.385,0.014,2.772,0,4.16-0.044c0.195,0.012,0.332,0.106,0.346,0.264c0.044,0.56,0.088,1.12,0.133,1.68
		c0.293,3.359-2.651,4.608-5.82,4.667c-3.694,0.069-5.718-2.045-5.596-5.036C94.992,99.749,95.064,97.572,95.136,95.396z
		 M100.292,96.322c0.001,0.079,0.095,0.13,0.188,0.127c0.711-0.017,0.804-0.022,0.8-0.153c-0.054-1.685-0.089-1.867-0.573-1.854
		c-0.242,0.006-0.45,0.168-0.442,0.563C100.273,95.444,100.282,95.883,100.292,96.322z"/>
	<path fill="#FFFFFF" d="M107.151,96.091c-0.216,0.02-0.228-0.112-0.34-1.344c-0.17-2.082,1.444-4.07,4.436-4.497
		c3.164-0.463,5.276,0.924,5.701,2.943c0.471,2.332,0.94,4.664,1.41,6.997c0.042,0.206,0.139,0.189,0.85,0.041
		c0.129-0.027,0.247,0.056,0.27,0.158c0.113,0.533,0.227,1.065,0.339,1.598c0.277,1.259-0.853,3.069-2.763,3.411
		c-1.56,0.276-2.237-0.025-2.833-0.545c-0.196-0.157-0.305-0.193-0.372-0.184c-0.033,0.005-0.16,0.078-0.332,0.315
		c-0.312,0.444-1.06,1.059-2.254,1.206c-1.439,0.184-3.647-0.538-3.867-3.166c-0.057-0.647-0.115-1.294-0.172-1.941
		c-0.176-2.073,1.398-3.32,3.027-4.136c2.164-1.102,2.225-1.426,2.094-2.333c-0.055-0.365-0.264-0.52-0.536-0.48
		c-0.482,0.069-0.461,0.225-0.294,1.425c0.019,0.13-0.094,0.226-0.248,0.247C109.895,95.93,108.522,96.025,107.151,96.091z
		 M113.018,99.12c-0.016-0.104-0.091-0.172-0.223-0.18c-0.189,0.029-0.792,0.353-0.713,0.927c0.09,0.644,0.179,1.287,0.268,1.93
		c0.044,0.313,0.324,0.407,0.588,0.37c0.262-0.038,0.506-0.208,0.458-0.52C113.27,100.805,113.144,99.962,113.018,99.12z"/>
	<path fill="#FFFFFF" d="M121.499,104.423c-0.135,0.03-0.297-0.069-0.319-0.171c-1.409-6.378-2.818-12.756-4.228-19.134
		c-0.051-0.231,0.04-0.333,0.231-0.375c1.282-0.287,2.558-0.604,3.829-0.951c0.188-0.052,0.291,0.002,0.333,0.154
		c1.751,6.33,3.503,12.659,5.255,18.988c0.028,0.101-0.077,0.24-0.211,0.276C124.767,103.652,123.137,104.057,121.499,104.423z"/>
	<path fill="#FFFFFF" d="M125.241,92.64c-0.209,0.061-0.246-0.065-0.592-1.254c-0.564-2.011,0.652-4.274,3.535-5.276
		c3.049-1.073,5.411-0.128,6.216,1.772c0.909,2.199,1.819,4.397,2.729,6.596c0.08,0.194,0.173,0.158,0.85-0.127
		c0.123-0.052,0.258,0.005,0.299,0.102c0.213,0.501,0.427,1.002,0.641,1.503c0.514,1.182-0.267,3.185-2.096,3.896
		c-1.496,0.578-2.225,0.414-2.914,0.02c-0.225-0.115-0.34-0.13-0.404-0.107c-0.032,0.012-0.144,0.107-0.27,0.375
		c-0.225,0.498-0.848,1.247-2.003,1.623c-1.391,0.46-3.712,0.179-4.429-2.36c-0.181-0.624-0.361-1.248-0.541-1.873
		c-0.568-2.001,0.752-3.529,2.21-4.647c1.934-1.503,1.933-1.835,1.63-2.698c-0.123-0.348-0.359-0.459-0.622-0.368
		c-0.466,0.162-0.415,0.311-0.021,1.457c0.043,0.125-0.051,0.24-0.199,0.291C127.925,91.951,126.584,92.31,125.241,92.64z
		 M131.627,94.475c-0.035-0.099-0.123-0.151-0.254-0.133c-0.184,0.066-0.719,0.501-0.531,1.05c0.211,0.614,0.422,1.229,0.633,1.843
		c0.103,0.299,0.398,0.337,0.651,0.249s0.462-0.302,0.356-0.6C132.198,96.08,131.913,95.277,131.627,94.475z"/>
	<path fill="#FFFFFF" d="M141.053,98.014c-0.128,0.056-0.299,0.015-0.361-0.129c-2.045-4.692-4.091-9.384-6.136-14.077
		c-0.042-0.097,0.008-0.205,0.116-0.252c1.137-0.499,2.265-1.021,3.385-1.569c0.186-0.091,0.892,0.794,1.001,0.74
		c0.026-0.013,0.069-0.064,0.119-0.236c0.216-0.787,0.541-1.331,1.654-1.921c1.293-0.685,3.069-0.554,3.971,0.993
		c2.138,3.722,4.276,7.445,6.415,11.167c0.039,0.069,0.004,0.15-0.088,0.203c-1.413,0.81-2.84,1.584-4.281,2.324
		c-0.125,0.064-0.255,0.042-0.303-0.052c-1.632-3.199-3.264-6.397-4.895-9.596c-0.18-0.352-0.463-0.355-0.688-0.242
		c-0.224,0.113-0.39,0.342-0.215,0.696c1.602,3.224,3.203,6.447,4.805,9.671c0.047,0.095,0.008,0.173-0.148,0.251
		C143.965,96.695,142.515,97.372,141.053,98.014z"/>
	<path fill="#FFFFFF" d="M158.221,88.491c-0.148,0.102-0.812-0.244-0.93-0.165c-0.06,0.04-0.119,0.143-0.253,0.391
		c-0.253,0.517-0.78,1.085-1.472,1.527c-1.506,0.969-3.725,1.21-5.902-2.523c-0.932-1.581-1.864-3.161-2.797-4.742
		c-2.014-3.457-0.947-5.313,0.371-6.167c0.588-0.378,1.17-0.542,1.731-0.475c0.2,0.024,0.308,0.017,0.358-0.018
		c0.025-0.017,0.047-0.095-0.042-0.227c-0.86-1.273-1.72-2.546-2.58-3.819c-0.073-0.109-0.051-0.283,0.069-0.364
		c1.039-0.708,2.068-1.441,3.084-2.199c0.117-0.087,0.259-0.095,0.338,0.011c3.942,5.251,7.885,10.502,11.828,15.754
		c0.078,0.104-0.002,0.297-0.118,0.384C160.694,86.766,159.464,87.643,158.221,88.491z M151.704,79.673
		c-0.221-0.327-0.621-0.406-0.885-0.23c-0.239,0.159-0.215,0.427-0.07,0.646c1.214,1.839,2.428,3.678,3.641,5.518
		c0.088,0.132,0.276,0.418,0.648,0.17c0.115-0.076,0.199-0.196,0.241-0.32c0.056-0.164,0.081-0.372-0.052-0.568
		C154.053,83.151,152.878,81.412,151.704,79.673z"/>
</g>
<g>
	<path fill="#FFFFFF" d="M53.316,44.282c-0.155-0.161-0.29-0.183-0.382-0.129c-0.091,0.054-0.071,0.193,0.039,0.38
		c1.416,2.413,2.832,4.826,4.248,7.239c0.132,0.226,0.04,0.632-0.246,0.803c-2.274,1.359-4.497,2.839-6.661,4.439
		c-0.232,0.172-0.648,0.103-0.857-0.175c-6.31-8.404-12.621-16.809-18.931-25.212c-0.131-0.174-0.044-0.512,0.229-0.713
		c3.083-2.29,6.254-4.404,9.499-6.343c0.458-0.274,0.833-0.292,0.966-0.067c1.276,2.175,2.553,4.351,3.83,6.526
		c0.088,0.15,0.208,0.231,0.314,0.169c0.107-0.063,0.17-0.2,0.167-0.45c-0.576-2.599-1.099-5.218-1.568-7.855
		c0.011-0.255,0.161-0.536,0.452-0.693c3.421-1.854,6.915-3.52,10.467-4.999c0.242-0.101,0.474-0.055,0.556,0.147
		c0.033,0.08,0.066,0.161,0.039,0.266c-0.725,5.489-1.094,10.941-1.117,16.319c-0.025,0.207,0.061,0.504,0.1,0.583
		c0.039,0.078,0.208,0.285,0.316,0.376c4.626,3.696,8.918,7.665,12.858,11.862c0.187,0.206,0.165,0.402-0.094,0.509
		c-2.651,1.098-5.257,2.342-7.806,3.733c-0.166,0.09-0.354,0.045-0.5-0.123C57.316,48.64,55.342,46.441,53.316,44.282z"/>
	<path fill="#FFFFFF" d="M75.876,43.973c0.048,0.167-0.037,0.373-0.214,0.425c-2.181,0.642-4.34,1.377-6.473,2.206
		c-0.174,0.068-0.428-0.066-0.492-0.228c-3.077-7.81-6.153-15.619-9.23-23.429c-0.112-0.283,0.038-0.576,0.384-0.71
		c2.723-1.055,5.479-1.994,8.261-2.818c0.353-0.104,0.648,0.037,0.709,0.246C71.173,27.767,73.525,35.87,75.876,43.973z
		 M67.594,17.667c0.074,0.25-0.103,0.529-0.459,0.637c-2.417,0.731-4.814,1.548-7.187,2.451c-0.292,0.111-0.677-0.02-0.771-0.263
		c-0.649-1.676-1.299-3.353-1.948-5.029c-0.079-0.203,0.135-0.566,0.444-0.683c2.533-0.964,5.092-1.836,7.672-2.615
		c0.252-0.076,0.604-0.044,0.667,0.164C66.539,14.109,67.066,15.888,67.594,17.667z"/>
	<path fill="#FFFFFF" d="M73.643,26.996c-0.38,0.1-0.436-0.109-0.962-2.085c-0.932-3.279,1.852-7.35,8.165-8.433
		c6.681-1.086,10.593,1.803,10.772,5.158c0.272,3.919,0.544,7.838,0.816,11.757c0.024,0.348,0.175,0.332,1.279,0.269
		c0.201-0.011,0.36,0.155,0.369,0.329c0.046,0.897,0.092,1.795,0.138,2.693c0.082,2.132-1.768,4.732-4.295,5.006
		c-2.099,0.232-3.003-0.278-3.853-1.165c-0.278-0.266-0.432-0.329-0.526-0.314c-0.046,0.007-0.22,0.123-0.441,0.512
		c-0.407,0.729-1.356,1.724-2.935,2.048c-1.881,0.371-5.035-0.378-6.206-4.558c-0.279-1.036-0.558-2.072-0.837-3.108
		c-0.92-3.311,1.371-5.833,4.15-7.413c3.68-2.093,3.883-2.54,3.629-4.061c-0.095-0.601-0.482-0.849-0.99-0.764
		c-0.905,0.154-0.858,0.414-0.509,2.382c0.038,0.214-0.159,0.381-0.433,0.432C78.524,26.026,76.078,26.463,73.643,26.996z
		 M84.091,31.062c-0.027-0.171-0.151-0.284-0.366-0.293c-0.313,0.048-1.285,0.614-1.114,1.557c0.188,1.056,0.375,2.112,0.563,3.168
		c0.092,0.514,0.521,0.658,0.912,0.593c0.392-0.066,0.749-0.343,0.668-0.858C84.533,33.84,84.312,32.451,84.091,31.062z"/>
	<path fill="#FFFFFF" d="M100.288,18.407c-0.016-6.735,6.338-9.983,13.541-8.997c7.207,0.95,12.52,5.774,10.717,12.265
		c-1.07,4.155-2.143,8.311-3.213,12.466c-1.787,6.458-6.959,8.445-11.891,7.808c-4.926-0.688-9.353-3.928-9.362-10.672
		C100.149,26.987,100.218,22.697,100.288,18.407z M109.969,31.844c-0.08,0.648,0.113,1.152,0.67,1.227
		c0.557,0.075,0.877-0.36,0.971-1.006c0.6-4.161,1.199-8.322,1.799-12.483c0.081-0.559-0.126-1.206-0.777-1.293
		c-0.65-0.087-1.016,0.438-1.09,1.042C111.017,23.501,110.494,27.673,109.969,31.844z"/>
	<path fill="#FFFFFF" d="M127.307,19.263c0.059-0.209,0.212-0.303,0.447-0.236c2.771,0.781,5.518,1.676,8.232,2.685
		c0.349,0.129,0.258,1.583,0.54,1.691c0.113,0.043,0.258,0.006,0.45-0.152c0.946-0.752,2.234-0.299,3.996,0.458
		c0.171,0.074,0.289,0.267,0.22,0.427c-0.831,1.915-1.661,3.83-2.492,5.746c-0.069,0.159-0.228,0.232-0.493,0.118
		c-2.729-1.159-4.237-0.44-5.479,2.848c-1.68,4.402-3.357,8.805-5.037,13.207c-0.078,0.204-0.313,0.299-0.531,0.218
		c-2.125-0.798-4.277-1.504-6.448-2.117c-0.179-0.05-0.277-0.213-0.22-0.422C122.764,35.575,125.036,27.419,127.307,19.263z"/>
	<path fill="#FFFFFF" d="M139.895,32.845c-0.363-0.167-0.272-0.364,0.576-2.224c1.366-3.121,6.133-4.492,11.852-1.214
		c6.021,3.523,7.346,8.375,5.329,11.062c-2.298,3.186-4.597,6.372-6.896,9.558c-0.203,0.284-0.072,0.37,0.861,1.062
		c0.17,0.126,0.193,0.361,0.088,0.5c-0.539,0.719-1.079,1.438-1.619,2.156c-1.303,1.69-4.475,2.436-6.682,0.975
		c-1.834-1.208-2.228-2.189-2.338-3.427c-0.052-0.386-0.133-0.536-0.218-0.585c-0.042-0.024-0.254-0.049-0.68,0.106
		c-0.792,0.295-2.186,0.44-3.644-0.331c-1.729-0.935-3.726-3.533-1.974-7.504c0.442-0.977,0.886-1.954,1.329-2.932
		c1.392-3.142,4.797-3.62,8.011-3.036c4.259,0.776,4.716,0.574,5.487-0.762c0.31-0.524,0.16-0.967-0.3-1.233
		c-0.818-0.472-0.948-0.241-1.933,1.5c-0.106,0.189-0.371,0.189-0.621,0.05C144.358,35.237,142.145,33.996,139.895,32.845z
		 M145.556,42.73c0.089-0.149,0.062-0.317-0.104-0.465c-0.281-0.167-1.417-0.366-1.886,0.47c-0.527,0.934-1.055,1.868-1.582,2.802
		c-0.257,0.455-0.008,0.845,0.346,1.049s0.816,0.226,1.082-0.224C144.127,45.152,144.842,43.941,145.556,42.73z"/>
</g>
<path fill-rule="evenodd" clip-rule="evenodd" fill="#0B6EB8" d="M64.482,52.986c-0.276-0.363-1.188-1.858-1.188-4.415
	c0-4.976,3.348-8.353,6.755-8.353c1.609,0,2.41,0.275,2.738,0.348c0.77-0.931,10.053-12.869,25.306-12.869
	c12.686,0,25.794,5.237,25.794,23.492c0,9.839-6.133,16.487-10.359,18.082c-1.828,0.689-2.092,1.98-2.094,3.009
	c0,1.049,0.139,3.411,0.385,5.231c0.122,0.899,1.52,1.436,2.417,2.708c0.898,1.272,1.386,2.113,1.543,3.417
	c0.122,1,0,1.271-0.72,0.324c-0.727-0.955-2.214-3.31-5.553-3.31c-0.271,0-0.957-0.207-1.854,0.691s-2.17,2.392-2.618,2.544
	c-0.615,0.208-1.945,1.422-2.469,2.245s-0.824,1.29-0.824,0.224c0-1.05,0.044-1.853,1.272-3.441
	c1.237-1.599,2.017-2.529,2.245-2.768c-1.942,0.594-3.434,0.522-5.836,1.944c-0.839,0.497-1.024,0.343-0.324-0.611
	c0.782-1.066,1.557-1.744,3.467-2.531c1.797-0.741,4.24-1.042,4.808-1.13c0.526-0.081,1.095-0.756,1.228-2.038
	c0.1-0.967,0.338-4.017-0.125-5.137c-0.291-0.704-2.258-1.038-4.041-4.863c-0.769,0.474-2.506,1.187-3.999,1.573
	c-0.693,0.179-0.858,2.508-0.939,4.188c-0.082,1.72,0.225,4.189,0.3,4.862c0.075,0.673,0.219,1.053-0.567,1.433
	c-2.12,1.022-2.01,1.671-3.284,2.96c-1.072,1.084-1.449,1.924-1.623,2.347c-0.281,0.678-0.435,0.287-0.427-0.331
	c0.011-1.034,0.169-2.37,0.749-3.426c-1.367,0.593-2.99,1.291-4.112,1.59c-1.123,0.299-2.4,0.105-3.795,0.604
	c-1.162,0.415-1.206,0.524-1.805,0.749c-0.599,0.224-0.32-0.276,0.405-0.974c0.651-0.625,2.994-1.805,4.267-2.178
	c1.271-0.375,2.817-1.253,3.098-1.418c-0.414-0.482-1.673-0.745-2.799-0.745c-0.662,0-1.388,0.068-2.062,0.144
	c-0.573,0.063-0.654-0.139,0.289-0.761c1.021-0.673,3.149-0.657,4.198-0.657c1.047,0,2.113,0.062,2.877,0.062
	c0.581,0,1.163-0.541,1.379-1.96c0.177-1.164,0.407-4.321,0.413-5.896c-1.285-0.848-5.068-2.383-5.068-9.31
	c-1.702-3.331-3.882-3.936-6.147-3.936c-3.345,0-4.744,2.809-12.119,0.387c-1.41-0.464-2.806-0.215-4.696,1.394
	c-3.013,2.563-6.778,8.721-8.272,14.133c-0.889,3.219-1.357,6.423-1.768,6.423c-0.599,0-0.481-2.704-0.286-4.097
	C59.684,65.488,62.25,57.809,64.482,52.986z"/>
<rect x="0.079" y="174.542" fill="#E6EFF7" width="200" height="120"/>
<path fill="#0B6EB8" d="M71.488,197.499c0-2.89-0.996-4.336-2.988-4.336c-0.547,0-0.957,0.04-1.23,0.117
	c-0.625,0.117-1.152,0.176-1.582,0.176c-0.508,0-0.938-0.185-1.289-0.557c-0.352-0.371-0.527-0.83-0.527-1.377
	c0-1.367,0.858-2.051,2.578-2.051c0.234,0,0.508,0.02,0.82,0.059l3.105,0.41c1.172,0.156,2.383,0.234,3.634,0.234
	c1.21,0,2.538-0.097,3.984-0.293l2.637-0.352c0.312-0.039,0.586-0.059,0.82-0.059c1.719,0,2.578,0.684,2.578,2.051
	c0,0.547-0.176,1.006-0.527,1.377c-0.352,0.372-0.781,0.557-1.289,0.557c-0.391,0-0.918-0.059-1.582-0.176
	c-0.273-0.078-0.684-0.117-1.23-0.117c-1.992,0-2.988,1.446-2.988,4.336v23.498c0,2.93,0.996,4.395,2.988,4.395
	c0.312,0,0.723-0.039,1.23-0.117c0.741-0.117,1.269-0.176,1.582-0.176c1.211,0,1.816,0.625,1.816,1.875
	c0,1.406-0.859,2.109-2.578,2.109c-0.079,0-0.215,0-0.41,0c-0.156-0.04-0.293-0.059-0.41-0.059l-3.047-0.469
	c-1.017-0.156-2.091-0.234-3.223-0.234c-1.641,0-3.106,0.098-4.396,0.293l-2.695,0.41c-0.078,0-0.215,0.019-0.41,0.059
	c-0.195,0-0.352,0-0.469,0c-1.68,0-2.52-0.703-2.52-2.109c0-1.25,0.605-1.875,1.816-1.875c0.195,0,0.723,0.039,1.582,0.117
	c0.43,0.117,0.84,0.176,1.23,0.176c1.992,0,2.988-1.465,2.988-4.395V197.499z"/>
<path fill="#0B6EB8" d="M70.63,241.281l15.734,32.756v-23.614c0-3.047-0.021-4.726-0.059-5.04c-0.352-2.03-1.329-3.047-2.93-3.047
	c-0.313,0-0.782,0.05-1.406,0.146c-0.626,0.099-1.095,0.146-1.406,0.146c-0.509,0-0.948-0.185-1.319-0.557
	c-0.371-0.37-0.557-0.811-0.557-1.318c0-1.406,0.879-2.109,2.638-2.109c0.352,0,0.604,0.021,0.762,0.059l2.637,0.352
	c1.172,0.156,2.265,0.234,3.281,0.234c1.016,0,2.363-0.107,4.043-0.322c0.586-0.071,1.27-0.16,2.051-0.268
	c0.078,0,0.215-0.018,0.41-0.055c0.156,0,0.293,0,0.41,0c1.68,0,2.521,0.674,2.521,2.021c0,1.31-0.796,1.963-2.387,1.963
	c-0.278,0-0.497,0-0.656,0h-0.596c-1.194,0-1.97,0.254-2.328,0.762c-0.357,0.507-0.576,1.618-0.655,3.334v3.334v5.968v15.62
	c0,2.691-0.305,4.584-0.913,5.676c-0.608,1.091-1.658,1.637-3.149,1.637c-1.924,0-3.552-1.366-4.887-4.102l-15.427-31.936v27.248
	c0,2.93,0.996,4.395,2.988,4.395c0.312,0,0.781-0.029,1.406-0.088c0.624-0.059,1.093-0.088,1.406-0.088
	c1.25,0,1.875,0.627,1.875,1.877c0,1.328-0.879,1.99-2.637,1.99c-0.079,0-0.196,0-0.352,0c-0.196-0.039-0.332-0.059-0.41-0.059
	l-2.402-0.352c-1.329-0.194-2.578-0.293-3.75-0.293c-1.017,0-2.325,0.099-3.927,0.293l-2.871,0.352c-0.078,0-0.215,0.02-0.41,0.059
	c-0.195,0-0.352,0-0.469,0c-1.68,0-2.52-0.683-2.52-2.051c0-1.21,0.624-1.816,1.875-1.816c0.195,0,0.723,0.039,1.582,0.117
	c0.43,0.117,0.84,0.176,1.23,0.176c1.992,0,2.988-1.465,2.988-4.395v-4.102v-5.156v-5.039v-9.26c0-2.93-1.008-4.395-3.023-4.395
	c-0.271,0-0.659,0.04-1.163,0.117c-0.737,0.117-1.28,0.176-1.629,0.176c-1.24,0-1.86-0.645-1.86-1.934
	c0-1.367,0.838-2.051,2.516-2.051c0.233,0,0.545,0.021,0.936,0.059c1.949,0.196,3.45,0.293,4.504,0.293
	c0.584,0,1.461-0.059,2.631-0.176s2.047-0.176,2.633-0.176c1.209,0,2.008,0.41,2.398,1.23L70.63,241.281z"/>
<path fill="#0B6EB8" d="M119.999,266.257c0-0.157,0-0.529,0-1.118c-0.039-0.629-0.059-1.16-0.059-1.592l-11.368-18.088
	c-0.742-1.179-1.211-1.866-1.406-2.063c-0.586-0.589-1.309-0.884-2.168-0.884c-0.469,0-0.82,0.099-1.055,0.293
	c-0.117,0-0.293,0-0.527,0c-0.273,0-0.469,0-0.586,0c-1.797,0-2.695-0.683-2.695-2.051c0-1.406,0.782-2.109,2.344-2.109
	c0.624,0,1.406,0.079,2.344,0.234c1.875,0.313,3.633,0.469,5.274,0.469c1.21,0,3.026-0.176,5.449-0.527
	c0.82-0.117,1.523-0.176,2.109-0.176c1.602,0,2.402,0.654,2.402,1.963c0,1.271-0.958,1.904-2.871,1.904H116.6h-1.465h-1.172
	c-0.469-0.038-0.703,0.119-0.703,0.471c0,0.158,0.019,0.266,0.059,0.324c0.038,0.059,0.136,0.225,0.293,0.5l8.965,15.289
	l9.083-15.236c0.194-0.312,0.293-0.624,0.293-0.938c0-0.352-0.255-0.527-0.762-0.527h-0.117l-1.055,0.117l-1.523,0.176
	c-0.665,0.079-1.173,0.117-1.524,0.117c-1.602,0-2.402-0.692-2.402-2.08c0-1.386,0.781-2.08,2.344-2.08
	c0.587,0,1.29,0.059,2.11,0.176c2.187,0.313,4.081,0.469,5.684,0.469c1.679,0,3.535-0.155,5.566-0.469
	c0.781-0.117,1.445-0.176,1.992-0.176c1.484,0,2.227,0.674,2.227,2.021c0,1.23-0.723,1.846-2.168,1.846
	c-0.586,0-1.035-0.029-1.348-0.088c-0.625-0.059-1.055-0.088-1.289-0.088c-1.016,0-1.837,0.469-2.461,1.406l-0.879,1.348
	l-11.544,18.107v2.461c0,3.984,0.166,6.466,0.498,7.441c0.332,0.977,1.162,1.465,2.491,1.465c0.312,0,0.791-0.049,1.436-0.146
	c0.645-0.097,1.122-0.146,1.436-0.146c1.21,0,1.816,0.625,1.816,1.875c0,1.406-0.879,2.109-2.637,2.109c-0.04,0-0.157,0-0.352,0
	c-0.157-0.039-0.293-0.059-0.41-0.059l-3.224-0.41c-1.211-0.155-2.402-0.234-3.574-0.234c-1.25,0-2.441,0.079-3.574,0.234
	l-2.988,0.41c-0.079,0-0.196,0.02-0.352,0.059c-0.196,0-0.333,0-0.41,0c-1.758,0-2.637-0.683-2.637-2.051
	c0-1.289,0.624-1.934,1.875-1.934c0.312,0,0.771,0.05,1.377,0.146c0.605,0.098,1.063,0.146,1.377,0.146
	c1.641,0,2.637-1.041,2.988-3.123C119.978,271.088,119.999,269.361,119.999,266.257z"/>
<g>
	<path fill="#C133B1" d="M114.011,233.534c0,0,24.427-12.417,24.427-30.375c0-8.917-4.989-15.927-12.91-15.927
		c-9.187,0-11.517,8.096-11.517,8.096h0.129c0,0-2.223-8.096-11.409-8.096c-7.919,0-12.911,7.01-12.911,15.927
		c0,17.958,24.317,30.375,24.317,30.375H114.011z"/>
</g>
<path fill="#FFFFFF" d="M135.377,366.147c-4.459,2.886-13.23-6.162-19.7,3.81c1.021,4.492,7.864,6.697,11.14,1.93
	c3.123,4.06,3.644,14.4-18.426,17.217c0.051-5.573-0.863-13.157-3.74-21.302c1.768-0.52,2.821-1.168,3.779-2.595
	c-4.719,2.092-10.589-4.491-12.794-2.838c-0.288,0.217-0.464,0.504-0.552,0.843c-3.595-1.823-7.647,0.208-4.361,5.985
	c2.379-1.937,4.433,0.21,5.28,2.202c-2.881-0.136-5.596-0.537-8.685-2.284c1.146,1.736,3.124,2.793,5.385,3.387
	c-0.841,0.105-1.722,0.131-2.597,0.067c1.867,1.312,3.972,1.563,6.024,1.13c-0.005,0.027-0.008,0.056-0.008,0.086
	c0.564,6.336-4.71,6.48-5.61,15.432c-23.034-2.637-22.544-13.213-19.376-17.33c3.275,4.768,10.118,2.562,11.139-1.93
	c-6.469-9.972-15.242-0.924-19.701-3.81c0.405,1.572,1.508,3.194,3.081,3.81c-1.411,1.428-3,3.276-3,7.46v63.717l4.458-3.742
	v-48.638c0.41,0.426,0.844,0.835,1.298,1.227v46.324l4.459-3.743v-39.589c0.423,0.224,0.855,0.438,1.296,0.645v37.856l4.459-3.742
	v-32.384c0.429,0.138,0.861,0.269,1.297,0.394v30.903l4.459-3.743v-26.088c0.431,0.085,0.863,0.165,1.297,0.242v24.758l4.459-3.742
	v-20.38c0.177,0.02,0.356,0.04,0.534,0.059c0.438,5.124,1.379,12.015,3.097,18.59l-11.771,12.843l4.085-0.809l-6.225,7.756
	l-6.128-2.756l-1.995,1.832l-0.211,3.599l2.173-2.205l5.334,0.876l-7.578,4.452l-0.059-0.026l0.059,0.026l-0.205,0.121l1.605,4.701
	l0.568-3.956l1.508,0.665l4.961-4.735l-0.211,9.454l3.259,1.458l-1.395-3.063l-1.75-0.114l3.178,0.195l-1.686-8.27l5.887,3.031
	l0-0.001l0.161,2.84l2.238-2.644l-0.13-2.4l-7.702-2.156l6.711-6.218l-0.129,5.683l5.465-8.196c0,19.547-5.383,21.249-9.842,19.66
	c0.519,3.647,7.216,5.173,10.409,2.578l4.622,5.124l4.621-5.124c3.194,2.595,9.892,1.069,10.409-2.578
	c-4.459,1.589-9.842-0.113-9.842-19.66l5.465,8.196l-0.129-5.683l6.712,6.218l-7.702,2.156l-0.13,2.4l2.237,2.644l0.16-2.84
	l0.002,0.001l5.887-3.031l-1.687,8.27l3.179-0.195l-1.752,0.114l-1.395,3.063l3.26-1.458l-0.211-9.454l4.961,4.735l1.508-0.665
	l0.568,3.956l1.604-4.701l-0.204-0.121l0.059-0.026l-0.059,0.026l-7.578-4.452l5.334-0.876l2.173,2.205l-0.212-3.599l-1.994-1.832
	l-6.129,2.756l-6.224-7.756l4.085,0.809l-11.772-12.843c1.719-6.575,2.659-13.466,3.097-18.59c0.179-0.019,0.357-0.039,0.535-0.059
	v20.38l4.459,3.742v-24.758c0.434-0.077,0.867-0.157,1.298-0.242v26.088l4.458,3.743v-30.903c0.436-0.125,0.869-0.256,1.297-0.394
	v32.384l4.46,3.742v-37.856c0.441-0.207,0.873-0.421,1.296-0.645v39.589l4.461,3.743V389.98c0.454-0.392,0.887-0.801,1.296-1.227
	v48.638l4.458,3.742v-63.717c0-4.184-1.588-6.032-2.998-7.46C133.87,369.342,134.973,367.72,135.377,366.147z"/>
<text transform="matrix(1 0 0 1 29.0669 415.5029)" fill="#0B6EB8" font-family="'FetteUNZFraktur'" font-size="34.5895">Germany</text>
</svg>
