<?xml version="1.0" encoding="utf-8"?>
<!-- Generator: Adobe Illustrator 16.0.3, SVG Export Plug-In . SVG Version: 6.00 Build 0)  -->
<!DOCTYPE svg PUBLIC "-//W3C//DTD SVG 1.1//EN" "http://www.w3.org/Graphics/SVG/1.1/DTD/svg11.dtd">
<svg version="1.1" id="Layer_1" xmlns="http://www.w3.org/2000/svg" xmlns:xlink="http://www.w3.org/1999/xlink" x="0px" y="0px"
	 width="200.637px" height="468.592px" viewBox="0 0 200.637 468.592" enable-background="new 0 0 200.637 468.592"
	 xml:space="preserve">
<rect x="0" y="0" fill="#9CC6E6" width="200" height="120"/>
<rect x="0.636" y="348.59" fill="#B6D6F0" width="200" height="120.002"/>
<g>
	<path fill="#FFFFFF" d="M46.024,70.143c0.11-0.147,0.323-0.187,0.464-0.08c1.328,0.989,2.676,1.936,4.044,2.839
		c0.169,0.112,0.233,0.28,0.167,0.488c-0.592,1.973-1.146,3.962-1.667,5.967c-0.059,0.212-0.035,0.351,0.018,0.383
		c0.08,0.05,0.215,0.009,0.34-0.192c1.029-1.665,2.06-3.329,3.09-4.993c0.097-0.156,0.304-0.216,0.476-0.109
		c1.234,0.758,2.482,1.481,3.744,2.172c0.201,0.11,0.241,0.34,0.153,0.503c-3.021,5.583-6.041,11.166-9.062,16.749
		c-0.087,0.162-0.287,0.234-0.504,0.116c-1.932-1.055-3.838-2.174-5.716-3.358c-0.121-0.076-0.245-0.279-0.19-0.432
		c0.407-1.614,0.835-3.218,1.284-4.814c0.087-0.258,0.032-0.42-0.053-0.476s-0.2-0.005-0.345,0.214
		c-0.858,1.295-1.717,2.591-2.574,3.886c-0.103,0.154-0.368,0.167-0.576,0.028c-1.506-1.008-2.993-2.058-4.458-3.151
		c-0.174-0.13-0.194-0.342-0.067-0.511C38.402,80.295,42.213,75.219,46.024,70.143z"/>
	<path fill="#FFFFFF" d="M54.064,84.529c1.47-2.734,4.418-2.493,6.604-1.508c3.041,1.38,4.029,4.174,3.117,6.599
		c-0.193,0.499-0.387,0.999-0.58,1.498c-0.048,0.123-0.204,0.175-0.353,0.118c-1.652-0.646-3.29-1.337-4.912-2.076
		c-0.117-0.053-0.207-0.008-0.262,0.111c-0.573,1.253-1.147,2.507-1.721,3.76c-0.176,0.383-0.026,0.625,0.249,0.75
		c0.214,0.097,0.557,0.076,0.716-0.286c0.219-0.489,0.437-0.979,0.653-1.468c0.043-0.096,0.175-0.153,0.355-0.073
		c1.267,0.626,2.544,1.227,3.833,1.796c0.173,0.098,0.257,0.242,0.199,0.39c-0.202,0.522-0.406,1.047-0.609,1.57
		c-1.194,3.153-4.431,2.986-7.37,1.631c-3.428-1.579-4.38-4.396-2.964-7.032C52.036,88.382,53.05,86.456,54.064,84.529z
		 M58.413,87.666c-0.033,0.072,0.031,0.159,0.117,0.198c0.661,0.3,0.749,0.336,0.802,0.216c0.686-1.54,0.731-1.72,0.281-1.923
		c-0.225-0.102-0.487-0.048-0.652,0.312C58.778,86.867,58.595,87.266,58.413,87.666z"/>
	<path fill="#FFFFFF" d="M70.705,98.06c0.06-0.449,0.024-0.568-0.039-0.586c-0.062-0.019-0.154,0.064-0.341,0.478
		c-0.682,1.503-1.376,3.002-2.081,4.498c-0.07,0.116-0.191,0.163-0.325,0.123c-1.403-0.417-2.802-0.864-4.191-1.341
		c-0.131-0.045-0.229-0.189-0.218-0.325c0.632-5.208,1.418-10.38,2.359-15.509c0.01-0.109,0.093-0.162,0.177-0.13
		c1.2,0.457,2.408,0.887,3.623,1.29c0.141,0.046,0.199,0.148,0.166,0.25c-0.221,1.489-0.43,2.981-0.626,4.477
		c-0.019,0.16,0.018,0.254,0.046,0.263c0.029,0.011,0.105-0.021,0.19-0.188c0.703-1.325,1.394-2.654,2.073-3.988
		c0.066-0.118,0.203-0.158,0.288-0.132c1.081,0.33,2.167,0.639,3.257,0.927c0.114,0.03,0.179,0.129,0.181,0.238
		c-0.147,1.495-0.285,2.992-0.41,4.491c-0.009,0.161,0.032,0.252,0.062,0.26c0.029,0.008,0.108-0.054,0.178-0.199
		c0.619-1.366,1.226-2.734,1.822-4.108c0.059-0.122,0.191-0.17,0.277-0.15c1.229,0.294,2.463,0.562,3.699,0.803
		c0.115,0.022,0.21,0.148,0.157,0.272c-1.896,4.847-3.944,9.649-6.146,14.4c-0.062,0.12-0.181,0.176-0.315,0.145
		c-1.423-0.325-2.841-0.679-4.252-1.062c-0.134-0.035-0.239-0.175-0.237-0.311C70.275,101.313,70.485,99.686,70.705,98.06z"/>
	<path fill="#FFFFFF" d="M93.469,101.418c0.227,0.012,0.352,0.148,0.346,0.279c-0.072,1.631-0.145,3.263-0.215,4.895
		c-0.009,0.185-0.186,0.281-0.391,0.272c-3.598-0.171-7.188-0.524-10.759-1.059c-0.136-0.021-0.29-0.151-0.266-0.308
		c0.229-1.501,0.46-3.003,0.689-4.504c0.024-0.155,0.08-0.307,0.197-0.422c1.967-2.721,3.803-5.497,5.507-8.318
		c0.043-0.128-0.004-0.238-0.123-0.252c-1.288-0.138-2.574-0.303-3.856-0.495c-0.146-0.021-0.22-0.14-0.199-0.27
		c0.24-1.571,0.479-3.142,0.721-4.712c0.024-0.156,0.154-0.271,0.266-0.253c2.916,0.437,5.85,0.725,8.788,0.864
		c0.141,0.007,0.245,0.169,0.238,0.326c-0.058,1.519-0.116,3.035-0.173,4.554c-0.005,0.132-0.073,0.313-0.138,0.441
		c-1.494,2.841-3.116,5.646-4.865,8.407c-0.047,0.154,0.009,0.265,0.203,0.282C90.782,101.264,92.125,101.354,93.469,101.418z"/>
	<path fill="#FFFFFF" d="M95.136,95.396c0.128-3.103,2.812-4.174,5.162-4.238c3.271-0.079,5.351,2.013,5.581,4.592
		c0.043,0.534,0.086,1.068,0.128,1.603c0.012,0.131-0.105,0.247-0.263,0.258c-1.742,0.134-3.486,0.221-5.232,0.261
		c-0.125,0.002-0.187,0.083-0.184,0.214c0.029,1.378,0.059,2.756,0.087,4.135c0.008,0.421,0.242,0.574,0.54,0.566
		c0.23-0.005,0.521-0.173,0.51-0.567c-0.018-0.535-0.033-1.07-0.051-1.605c-0.004-0.106,0.09-0.214,0.283-0.221
		c1.385,0.014,2.772,0,4.16-0.044c0.195,0.012,0.332,0.105,0.346,0.264c0.044,0.56,0.088,1.12,0.133,1.68
		c0.293,3.359-2.65,4.608-5.819,4.667c-3.694,0.069-5.719-2.045-5.597-5.036C94.992,99.749,95.064,97.572,95.136,95.396z
		 M100.292,96.322c0.001,0.079,0.096,0.13,0.188,0.127c0.711-0.017,0.804-0.021,0.8-0.153c-0.054-1.685-0.089-1.866-0.573-1.854
		c-0.242,0.006-0.45,0.168-0.441,0.562C100.273,95.444,100.282,95.883,100.292,96.322z"/>
	<path fill="#FFFFFF" d="M107.151,96.091c-0.216,0.021-0.229-0.111-0.34-1.344c-0.17-2.082,1.443-4.069,4.436-4.497
		c3.164-0.463,5.276,0.924,5.701,2.943c0.471,2.332,0.94,4.664,1.41,6.997c0.042,0.206,0.139,0.188,0.85,0.041
		c0.129-0.027,0.247,0.056,0.271,0.158c0.112,0.532,0.227,1.064,0.339,1.598c0.277,1.259-0.854,3.069-2.763,3.411
		c-1.561,0.275-2.237-0.025-2.833-0.545c-0.196-0.157-0.306-0.193-0.372-0.185c-0.033,0.005-0.16,0.078-0.332,0.315
		c-0.312,0.444-1.061,1.059-2.254,1.206c-1.439,0.184-3.647-0.538-3.867-3.166c-0.058-0.647-0.115-1.294-0.172-1.941
		c-0.177-2.072,1.397-3.319,3.026-4.136c2.164-1.102,2.226-1.426,2.095-2.333c-0.056-0.365-0.265-0.52-0.536-0.479
		c-0.482,0.068-0.461,0.225-0.294,1.425c0.019,0.13-0.095,0.226-0.248,0.247C109.895,95.93,108.522,96.025,107.151,96.091z
		 M113.018,99.12c-0.017-0.104-0.091-0.172-0.224-0.18c-0.188,0.029-0.792,0.353-0.713,0.927c0.09,0.645,0.18,1.287,0.269,1.93
		c0.044,0.313,0.323,0.407,0.588,0.37c0.262-0.038,0.506-0.208,0.458-0.52C113.27,100.805,113.144,99.962,113.018,99.12z"/>
	<path fill="#FFFFFF" d="M121.499,104.423c-0.135,0.03-0.297-0.068-0.318-0.171c-1.409-6.378-2.818-12.756-4.229-19.134
		c-0.051-0.23,0.04-0.333,0.231-0.375c1.281-0.287,2.558-0.604,3.829-0.951c0.188-0.052,0.291,0.002,0.333,0.154
		c1.751,6.33,3.503,12.659,5.255,18.988c0.027,0.101-0.077,0.239-0.211,0.275C124.767,103.652,123.137,104.057,121.499,104.423z"/>
	<path fill="#FFFFFF" d="M125.241,92.64c-0.209,0.061-0.246-0.065-0.592-1.254c-0.564-2.012,0.651-4.274,3.535-5.276
		c3.049-1.073,5.411-0.128,6.216,1.771c0.909,2.199,1.819,4.397,2.729,6.597c0.08,0.193,0.174,0.158,0.851-0.127
		c0.123-0.053,0.258,0.005,0.299,0.102c0.213,0.501,0.427,1.002,0.641,1.503c0.515,1.183-0.267,3.186-2.096,3.896
		c-1.496,0.578-2.225,0.414-2.914,0.02c-0.225-0.115-0.34-0.13-0.404-0.106c-0.031,0.012-0.144,0.106-0.27,0.375
		c-0.225,0.498-0.848,1.247-2.003,1.623c-1.392,0.46-3.712,0.179-4.429-2.36c-0.182-0.624-0.361-1.248-0.541-1.873
		c-0.568-2.001,0.752-3.529,2.21-4.647c1.934-1.503,1.933-1.835,1.63-2.697c-0.123-0.349-0.359-0.459-0.622-0.368
		c-0.466,0.162-0.415,0.311-0.021,1.457c0.043,0.125-0.051,0.24-0.198,0.291C127.925,91.951,126.584,92.31,125.241,92.64z
		 M131.627,94.475c-0.035-0.1-0.123-0.151-0.254-0.134c-0.184,0.066-0.719,0.502-0.531,1.051c0.212,0.613,0.423,1.229,0.634,1.843
		c0.103,0.299,0.397,0.337,0.65,0.249s0.462-0.302,0.356-0.6C132.198,96.08,131.913,95.277,131.627,94.475z"/>
	<path fill="#FFFFFF" d="M141.053,98.014c-0.129,0.056-0.3,0.015-0.361-0.129c-2.045-4.692-4.091-9.385-6.136-14.077
		c-0.042-0.098,0.008-0.205,0.115-0.252c1.138-0.499,2.266-1.021,3.386-1.569c0.186-0.091,0.892,0.794,1.001,0.74
		c0.025-0.014,0.068-0.064,0.119-0.236c0.216-0.787,0.541-1.331,1.653-1.921c1.293-0.685,3.069-0.554,3.972,0.993
		c2.138,3.722,4.275,7.444,6.414,11.167c0.039,0.068,0.005,0.149-0.088,0.203c-1.413,0.81-2.84,1.584-4.28,2.323
		c-0.125,0.064-0.256,0.042-0.304-0.052c-1.632-3.199-3.264-6.396-4.895-9.596c-0.18-0.353-0.463-0.355-0.688-0.242
		c-0.224,0.113-0.39,0.342-0.215,0.696c1.603,3.224,3.203,6.447,4.806,9.671c0.047,0.095,0.008,0.173-0.148,0.251
		C143.965,96.695,142.515,97.372,141.053,98.014z"/>
	<path fill="#FFFFFF" d="M158.221,88.491c-0.148,0.103-0.812-0.244-0.931-0.165c-0.06,0.04-0.119,0.144-0.253,0.391
		c-0.253,0.518-0.78,1.086-1.472,1.527c-1.506,0.969-3.726,1.21-5.902-2.522c-0.932-1.581-1.864-3.161-2.797-4.742
		c-2.014-3.457-0.947-5.313,0.371-6.167c0.588-0.378,1.17-0.542,1.731-0.476c0.199,0.024,0.308,0.018,0.357-0.018
		c0.025-0.017,0.047-0.095-0.042-0.228c-0.86-1.272-1.72-2.546-2.58-3.818c-0.073-0.109-0.051-0.283,0.069-0.364
		c1.039-0.708,2.067-1.44,3.084-2.199c0.117-0.087,0.259-0.095,0.338,0.012c3.942,5.251,7.885,10.502,11.828,15.754
		c0.078,0.104-0.002,0.297-0.118,0.384C160.694,86.766,159.464,87.643,158.221,88.491z M151.704,79.673
		c-0.221-0.326-0.621-0.405-0.885-0.229c-0.239,0.159-0.215,0.427-0.07,0.646c1.214,1.84,2.429,3.679,3.642,5.519
		c0.088,0.132,0.275,0.418,0.647,0.17c0.115-0.076,0.199-0.196,0.241-0.32c0.056-0.164,0.081-0.372-0.052-0.567
		C154.053,83.151,152.878,81.412,151.704,79.673z"/>
</g>
<path fill="#FFFFFF" d="M133.734,388.899h-5.994v-2.739c1.107-0.641,1.716-1.329,1.716-2.047c0-0.078-0.015-0.156-0.029-0.233h0.029
	v-5.95h-0.046c0.029-0.11,0.046-0.222,0.046-0.334c0-1.001-1.18-1.946-3.26-2.783c0.028-0.249,0.048-0.502,0.048-0.76
	c0-3.587-2.907-6.494-6.493-6.494c0-2.357-1.91-4.269-4.268-4.269c-1.298,0-2.446,0.592-3.229,1.505
	c-1.097-0.846-2.467-1.354-3.958-1.354c-0.748,0-1.464,0.133-2.133,0.366c-0.907-2.656-3.418-4.567-6.38-4.567
	c-1.483,0-2.85,0.483-3.963,1.294c-1.653-2.42-4.432-4.009-7.583-4.009c-3.327,0-6.231,1.775-7.841,4.425
	c-1.21-0.873-2.692-1.394-4.298-1.394c-4.067,0-7.364,3.298-7.364,7.365c0,0.54,0.062,1.064,0.172,1.571
	c-2.222,0.15-3.982,1.979-3.982,4.24c0,1.59,0.879,2.96,2.169,3.694h-0.031c0,0,1.245,4.501,0,7.685s-1.412,6.184,1.672,6.184
	c0.77,0,1.251-0.2,1.541-0.546v48.182c-1.107,0.641-1.716,1.329-1.716,2.047c0,0.113,0.017,0.224,0.046,0.335h-0.046v5.95h0.029
	c-0.014,0.077-0.029,0.154-0.029,0.232c0,3.415,13.632,6.184,30.449,6.184c16.815,0,30.448-2.769,30.448-6.184
	c0-0.078-0.015-0.155-0.029-0.232h0.029v-5.95h-0.046c0.029-0.111,0.046-0.222,0.046-0.335c0-0.718-0.608-1.406-1.716-2.047v-2.739
	h5.994c6.161,0,11.173-5.012,11.173-11.173v-23.947C144.907,393.911,139.895,388.899,133.734,388.899z M137.459,424.019
	c0,2.054-1.671,3.724-3.725,3.724h-5.994v-31.395h5.994c2.054,0,3.725,1.67,3.725,3.724V424.019z"/>
<g>
	<path fill="#FFFFFF" d="M53.316,44.282c-0.155-0.161-0.29-0.183-0.382-0.129s-0.071,0.193,0.039,0.38
		c1.416,2.413,2.832,4.826,4.248,7.239c0.132,0.226,0.04,0.632-0.246,0.803c-2.274,1.359-4.497,2.839-6.661,4.439
		c-0.232,0.172-0.648,0.103-0.857-0.176c-6.31-8.403-12.621-16.809-18.931-25.212c-0.131-0.174-0.044-0.512,0.229-0.713
		c3.083-2.29,6.254-4.403,9.499-6.343c0.458-0.274,0.833-0.292,0.967-0.067c1.275,2.176,2.553,4.352,3.829,6.526
		c0.089,0.15,0.208,0.231,0.314,0.169c0.107-0.062,0.17-0.2,0.167-0.45c-0.576-2.599-1.099-5.218-1.568-7.854
		c0.012-0.255,0.161-0.536,0.452-0.693c3.421-1.854,6.915-3.52,10.467-4.999c0.242-0.101,0.475-0.055,0.557,0.147
		c0.033,0.08,0.065,0.161,0.039,0.266c-0.726,5.489-1.095,10.941-1.117,16.319c-0.025,0.207,0.061,0.504,0.1,0.583
		c0.039,0.078,0.208,0.285,0.316,0.376c4.626,3.695,8.918,7.665,12.857,11.861c0.188,0.206,0.165,0.402-0.094,0.51
		c-2.65,1.098-5.257,2.342-7.806,3.732c-0.166,0.09-0.354,0.045-0.5-0.123C57.316,48.64,55.342,46.441,53.316,44.282z"/>
	<path fill="#FFFFFF" d="M75.876,43.973c0.048,0.167-0.037,0.373-0.214,0.425c-2.181,0.642-4.34,1.377-6.473,2.206
		c-0.174,0.067-0.428-0.066-0.492-0.229c-3.077-7.81-6.153-15.619-9.23-23.429c-0.111-0.283,0.038-0.576,0.385-0.71
		c2.723-1.055,5.479-1.994,8.261-2.818c0.353-0.104,0.648,0.037,0.709,0.246C71.173,27.767,73.525,35.87,75.876,43.973z
		 M67.594,17.667c0.073,0.25-0.104,0.529-0.459,0.638c-2.418,0.73-4.814,1.548-7.188,2.45c-0.292,0.111-0.677-0.02-0.771-0.263
		c-0.649-1.676-1.3-3.353-1.948-5.029c-0.079-0.202,0.135-0.565,0.443-0.683c2.533-0.964,5.093-1.836,7.673-2.615
		c0.252-0.076,0.604-0.044,0.667,0.164C66.539,14.109,67.066,15.888,67.594,17.667z"/>
	<path fill="#FFFFFF" d="M73.643,26.996c-0.38,0.101-0.437-0.108-0.962-2.085c-0.933-3.279,1.852-7.35,8.165-8.433
		c6.681-1.086,10.593,1.803,10.771,5.158c0.272,3.919,0.544,7.838,0.816,11.757c0.023,0.348,0.175,0.332,1.278,0.269
		c0.201-0.011,0.36,0.155,0.369,0.329c0.046,0.897,0.092,1.795,0.139,2.693c0.082,2.132-1.769,4.731-4.296,5.006
		c-2.099,0.231-3.003-0.278-3.853-1.165c-0.278-0.266-0.432-0.329-0.526-0.314c-0.046,0.008-0.22,0.123-0.44,0.513
		c-0.407,0.729-1.356,1.724-2.936,2.048c-1.881,0.371-5.034-0.378-6.206-4.559c-0.278-1.035-0.558-2.071-0.837-3.107
		c-0.92-3.312,1.371-5.833,4.15-7.413c3.68-2.093,3.883-2.54,3.629-4.062c-0.095-0.601-0.482-0.849-0.99-0.764
		c-0.904,0.154-0.857,0.414-0.509,2.382c0.038,0.214-0.159,0.381-0.433,0.433C78.524,26.026,76.078,26.463,73.643,26.996z
		 M84.091,31.062c-0.026-0.171-0.15-0.284-0.365-0.293c-0.313,0.048-1.285,0.613-1.114,1.557c0.188,1.056,0.375,2.112,0.562,3.168
		c0.093,0.514,0.521,0.658,0.912,0.593c0.393-0.065,0.749-0.343,0.668-0.857C84.533,33.84,84.312,32.451,84.091,31.062z"/>
	<path fill="#FFFFFF" d="M100.288,18.407c-0.016-6.735,6.338-9.983,13.541-8.997c7.207,0.95,12.521,5.774,10.717,12.265
		c-1.069,4.155-2.143,8.312-3.213,12.467c-1.787,6.458-6.959,8.444-11.891,7.808c-4.926-0.688-9.354-3.928-9.362-10.672
		C100.149,26.987,100.218,22.697,100.288,18.407z M109.969,31.844c-0.08,0.647,0.112,1.151,0.67,1.227
		c0.557,0.075,0.877-0.36,0.971-1.006c0.6-4.161,1.199-8.322,1.799-12.483c0.081-0.559-0.126-1.206-0.777-1.293
		c-0.649-0.087-1.016,0.438-1.09,1.042C111.017,23.501,110.494,27.673,109.969,31.844z"/>
	<path fill="#FFFFFF" d="M127.307,19.263c0.059-0.209,0.212-0.304,0.446-0.236c2.771,0.781,5.519,1.676,8.232,2.685
		c0.349,0.129,0.258,1.583,0.54,1.691c0.113,0.043,0.258,0.006,0.45-0.152c0.945-0.752,2.233-0.299,3.996,0.458
		c0.171,0.074,0.289,0.268,0.22,0.428c-0.831,1.915-1.661,3.829-2.492,5.745c-0.069,0.159-0.228,0.232-0.493,0.118
		c-2.729-1.159-4.236-0.439-5.479,2.849c-1.681,4.401-3.357,8.805-5.037,13.207c-0.078,0.203-0.313,0.299-0.531,0.218
		c-2.125-0.798-4.277-1.504-6.448-2.117c-0.179-0.05-0.276-0.213-0.22-0.422C122.764,35.575,125.036,27.419,127.307,19.263z"/>
	<path fill="#FFFFFF" d="M139.895,32.845c-0.363-0.167-0.272-0.364,0.576-2.225c1.365-3.121,6.133-4.492,11.852-1.214
		c6.021,3.523,7.346,8.375,5.329,11.062c-2.298,3.186-4.597,6.371-6.896,9.558c-0.202,0.284-0.071,0.37,0.861,1.062
		c0.17,0.126,0.193,0.361,0.088,0.5c-0.539,0.72-1.079,1.438-1.619,2.156c-1.303,1.69-4.475,2.437-6.682,0.976
		c-1.834-1.208-2.229-2.189-2.338-3.428c-0.052-0.386-0.133-0.536-0.218-0.585c-0.042-0.023-0.254-0.049-0.681,0.106
		c-0.792,0.295-2.186,0.439-3.644-0.331c-1.729-0.936-3.727-3.533-1.975-7.504c0.442-0.978,0.887-1.954,1.329-2.933
		c1.393-3.142,4.797-3.619,8.012-3.035c4.259,0.775,4.716,0.573,5.486-0.763c0.311-0.523,0.16-0.967-0.3-1.232
		c-0.818-0.473-0.948-0.241-1.933,1.5c-0.106,0.188-0.371,0.188-0.621,0.05C144.358,35.237,142.145,33.996,139.895,32.845z
		 M145.556,42.73c0.089-0.149,0.062-0.317-0.104-0.465c-0.281-0.167-1.417-0.366-1.886,0.47c-0.527,0.934-1.055,1.868-1.582,2.802
		c-0.257,0.455-0.008,0.845,0.346,1.049c0.354,0.204,0.816,0.227,1.082-0.224C144.127,45.152,144.842,43.941,145.556,42.73z"/>
</g>
<path fill="#0B6EB8" d="M64.482,52.986c-0.276-0.363-1.188-1.858-1.188-4.415c0-4.976,3.349-8.353,6.755-8.353
	c1.609,0,2.41,0.274,2.738,0.348c0.771-0.931,10.053-12.869,25.306-12.869c12.687,0,25.795,5.237,25.795,23.492
	c0,9.839-6.134,16.487-10.359,18.082c-1.828,0.688-2.092,1.979-2.094,3.009c0,1.049,0.139,3.411,0.385,5.231
	c0.122,0.898,1.52,1.436,2.417,2.708c0.897,1.271,1.386,2.112,1.543,3.417c0.122,1,0,1.271-0.72,0.323
	c-0.728-0.955-2.214-3.31-5.554-3.31c-0.271,0-0.957-0.207-1.854,0.69c-0.897,0.898-2.17,2.393-2.618,2.545
	c-0.615,0.208-1.945,1.422-2.469,2.244c-0.524,0.823-0.824,1.29-0.824,0.225c0-1.05,0.044-1.854,1.272-3.441
	c1.236-1.599,2.017-2.528,2.244-2.768c-1.941,0.594-3.434,0.521-5.836,1.943c-0.839,0.497-1.023,0.344-0.323-0.61
	c0.781-1.066,1.557-1.744,3.467-2.531c1.797-0.741,4.24-1.042,4.808-1.13c0.526-0.081,1.096-0.756,1.229-2.038
	c0.1-0.967,0.338-4.017-0.125-5.137c-0.291-0.704-2.259-1.038-4.041-4.863c-0.77,0.474-2.506,1.187-3.999,1.573
	c-0.693,0.179-0.858,2.508-0.939,4.188c-0.082,1.721,0.226,4.189,0.3,4.862c0.075,0.673,0.22,1.053-0.566,1.433
	c-2.12,1.022-2.01,1.671-3.284,2.96c-1.072,1.084-1.449,1.925-1.623,2.348c-0.281,0.678-0.435,0.287-0.427-0.331
	c0.011-1.034,0.169-2.37,0.749-3.426c-1.367,0.593-2.99,1.291-4.112,1.59c-1.123,0.299-2.4,0.104-3.795,0.604
	c-1.162,0.415-1.206,0.524-1.805,0.749c-0.6,0.225-0.32-0.275,0.404-0.974c0.651-0.625,2.994-1.806,4.268-2.178
	c1.271-0.375,2.816-1.254,3.098-1.419c-0.414-0.481-1.673-0.744-2.799-0.744c-0.662,0-1.388,0.067-2.062,0.144
	c-0.572,0.063-0.653-0.139,0.289-0.761c1.021-0.673,3.149-0.657,4.198-0.657c1.047,0,2.113,0.062,2.877,0.062
	c0.581,0,1.163-0.54,1.379-1.96c0.178-1.163,0.407-4.32,0.413-5.896c-1.285-0.848-5.067-2.383-5.067-9.31
	c-1.702-3.331-3.883-3.937-6.147-3.937c-3.345,0-4.744,2.809-12.119,0.387c-1.41-0.464-2.806-0.215-4.696,1.395
	c-3.013,2.562-6.777,8.721-8.271,14.133c-0.889,3.219-1.357,6.423-1.768,6.423c-0.6,0-0.481-2.704-0.286-4.097
	C59.684,65.488,62.25,57.809,64.482,52.986z"/>
<rect x="0.079" y="174.542" fill="#E6EFF7" width="200" height="120"/>
<path fill="#0B6EB8" d="M71.488,197.499c0-2.89-0.996-4.336-2.988-4.336c-0.547,0-0.957,0.04-1.229,0.117
	c-0.625,0.117-1.152,0.176-1.582,0.176c-0.508,0-0.938-0.185-1.289-0.557c-0.353-0.371-0.527-0.83-0.527-1.377
	c0-1.367,0.858-2.051,2.578-2.051c0.234,0,0.508,0.02,0.82,0.059l3.104,0.41c1.172,0.156,2.383,0.233,3.634,0.233
	c1.211,0,2.538-0.097,3.984-0.293l2.637-0.352c0.312-0.039,0.586-0.059,0.82-0.059c1.719,0,2.578,0.684,2.578,2.051
	c0,0.547-0.176,1.006-0.527,1.377c-0.352,0.372-0.78,0.557-1.289,0.557c-0.391,0-0.918-0.059-1.582-0.176
	c-0.272-0.078-0.684-0.117-1.229-0.117c-1.992,0-2.988,1.446-2.988,4.336v23.498c0,2.93,0.996,4.396,2.988,4.396
	c0.312,0,0.723-0.039,1.229-0.117c0.741-0.117,1.27-0.176,1.582-0.176c1.211,0,1.816,0.625,1.816,1.875
	c0,1.405-0.859,2.108-2.578,2.108c-0.079,0-0.215,0-0.41,0c-0.156-0.04-0.293-0.059-0.41-0.059l-3.047-0.469
	c-1.017-0.156-2.091-0.234-3.223-0.234c-1.641,0-3.106,0.098-4.396,0.293l-2.694,0.41c-0.078,0-0.215,0.019-0.41,0.059
	c-0.195,0-0.353,0-0.469,0c-1.681,0-2.521-0.703-2.521-2.108c0-1.25,0.605-1.875,1.816-1.875c0.194,0,0.723,0.039,1.582,0.116
	c0.43,0.117,0.84,0.177,1.229,0.177c1.992,0,2.988-1.465,2.988-4.396v-23.497H71.488z"/>
<path fill="#0B6EB8" d="M70.63,241.281l15.734,32.756v-23.614c0-3.047-0.021-4.726-0.059-5.039c-0.353-2.03-1.329-3.048-2.931-3.048
	c-0.312,0-0.782,0.051-1.405,0.146c-0.627,0.099-1.096,0.146-1.406,0.146c-0.509,0-0.948-0.185-1.319-0.557
	c-0.371-0.37-0.557-0.811-0.557-1.318c0-1.405,0.879-2.108,2.638-2.108c0.353,0,0.604,0.021,0.762,0.059l2.638,0.353
	c1.172,0.155,2.265,0.233,3.28,0.233c1.017,0,2.363-0.106,4.043-0.321c0.586-0.071,1.271-0.16,2.052-0.269
	c0.078,0,0.215-0.018,0.409-0.055c0.156,0,0.294,0,0.41,0c1.681,0,2.521,0.674,2.521,2.021c0,1.311-0.796,1.963-2.387,1.963
	c-0.278,0-0.497,0-0.656,0h-0.596c-1.194,0-1.971,0.254-2.328,0.763c-0.357,0.507-0.576,1.617-0.655,3.334v3.334v5.968v15.62
	c0,2.69-0.305,4.584-0.913,5.676c-0.608,1.091-1.658,1.637-3.149,1.637c-1.924,0-3.552-1.365-4.887-4.102l-15.427-31.937v27.248
	c0,2.931,0.996,4.396,2.988,4.396c0.312,0,0.78-0.029,1.405-0.088c0.624-0.06,1.094-0.088,1.406-0.088
	c1.25,0,1.875,0.627,1.875,1.877c0,1.327-0.879,1.989-2.637,1.989c-0.079,0-0.196,0-0.353,0c-0.195-0.039-0.332-0.059-0.41-0.059
	l-2.401-0.352c-1.329-0.194-2.578-0.294-3.75-0.294c-1.018,0-2.325,0.1-3.927,0.294l-2.871,0.352c-0.078,0-0.215,0.02-0.41,0.059
	c-0.195,0-0.353,0-0.469,0c-1.681,0-2.521-0.683-2.521-2.051c0-1.21,0.624-1.815,1.875-1.815c0.195,0,0.723,0.038,1.582,0.116
	c0.43,0.117,0.84,0.177,1.23,0.177c1.991,0,2.987-1.466,2.987-4.396v-4.102v-5.156v-5.039v-9.26c0-2.931-1.008-4.396-3.022-4.396
	c-0.271,0-0.659,0.04-1.163,0.117c-0.737,0.117-1.28,0.176-1.629,0.176c-1.24,0-1.86-0.645-1.86-1.934
	c0-1.367,0.838-2.051,2.516-2.051c0.233,0,0.546,0.021,0.937,0.059c1.949,0.196,3.45,0.293,4.504,0.293
	c0.584,0,1.461-0.059,2.631-0.176s2.047-0.176,2.633-0.176c1.209,0,2.009,0.41,2.398,1.229L70.63,241.281z"/>
<path fill="#0B6EB8" d="M119.999,266.257c0-0.156,0-0.528,0-1.117c-0.039-0.629-0.059-1.16-0.059-1.593l-11.368-18.088
	c-0.742-1.179-1.211-1.866-1.406-2.062c-0.586-0.589-1.309-0.884-2.168-0.884c-0.469,0-0.819,0.099-1.055,0.293
	c-0.117,0-0.293,0-0.527,0c-0.272,0-0.469,0-0.586,0c-1.797,0-2.694-0.684-2.694-2.052c0-1.405,0.781-2.108,2.344-2.108
	c0.624,0,1.406,0.079,2.344,0.233c1.875,0.313,3.633,0.47,5.274,0.47c1.21,0,3.025-0.177,5.448-0.527
	c0.82-0.117,1.523-0.176,2.109-0.176c1.602,0,2.402,0.653,2.402,1.963c0,1.271-0.958,1.904-2.871,1.904H116.6h-1.465h-1.173
	c-0.469-0.038-0.702,0.118-0.702,0.471c0,0.158,0.019,0.266,0.059,0.324c0.038,0.059,0.136,0.225,0.293,0.5l8.965,15.289
	l9.083-15.236c0.194-0.312,0.293-0.624,0.293-0.938c0-0.352-0.255-0.526-0.762-0.526h-0.117l-1.055,0.117l-1.523,0.176
	c-0.665,0.079-1.173,0.117-1.523,0.117c-1.603,0-2.402-0.692-2.402-2.08c0-1.387,0.781-2.08,2.344-2.08
	c0.587,0,1.29,0.059,2.11,0.176c2.187,0.312,4.081,0.469,5.684,0.469c1.68,0,3.535-0.154,5.566-0.469
	c0.781-0.117,1.445-0.176,1.992-0.176c1.483,0,2.227,0.674,2.227,2.021c0,1.23-0.723,1.847-2.168,1.847
	c-0.586,0-1.035-0.029-1.348-0.089c-0.625-0.059-1.056-0.088-1.289-0.088c-1.017,0-1.837,0.47-2.461,1.406l-0.879,1.348
	l-11.544,18.107v2.461c0,3.984,0.166,6.466,0.498,7.441c0.332,0.977,1.161,1.465,2.49,1.465c0.312,0,0.791-0.049,1.437-0.146
	c0.645-0.097,1.122-0.146,1.436-0.146c1.21,0,1.816,0.625,1.816,1.875c0,1.406-0.879,2.108-2.637,2.108c-0.04,0-0.157,0-0.353,0
	c-0.157-0.038-0.293-0.059-0.41-0.059l-3.224-0.41c-1.211-0.155-2.402-0.233-3.574-0.233c-1.25,0-2.44,0.078-3.574,0.233
	l-2.987,0.41c-0.079,0-0.196,0.021-0.353,0.059c-0.196,0-0.333,0-0.41,0c-1.758,0-2.637-0.683-2.637-2.051
	c0-1.289,0.624-1.934,1.875-1.934c0.312,0,0.771,0.05,1.377,0.146c0.605,0.099,1.063,0.146,1.377,0.146
	c1.642,0,2.637-1.041,2.988-3.123C119.978,271.088,119.999,269.361,119.999,266.257z"/>
<g>
	<path fill="#C133B1" d="M114.011,233.534c0,0,24.427-12.417,24.427-30.375c0-8.917-4.989-15.927-12.91-15.927
		c-9.188,0-11.517,8.096-11.517,8.096h0.129c0,0-2.224-8.096-11.409-8.096c-7.919,0-12.911,7.01-12.911,15.927
		c0,17.958,24.317,30.375,24.317,30.375H114.011z"/>
</g>
<path fill="#E6EFF7" d="M78.252,391.926v45.427c1.974,0.777,4.97,1.43,8.635,1.883v-45.693
	C83.415,393.149,80.452,392.594,78.252,391.926z"/>
<path fill="#E6EFF7" d="M99.008,394.179c-2.41,0-4.738-0.07-6.942-0.2v45.731c2.193,0.139,4.525,0.213,6.942,0.213
	c1.667,0,3.293-0.036,4.861-0.104v-45.737C102.296,394.145,100.672,394.179,99.008,394.179z"/>
<path fill="#E6EFF7" d="M110.551,393.604v45.699c3.579-0.415,6.563-1.016,8.636-1.737v-45.475
	C116.927,392.721,113.973,393.241,110.551,393.604z"/>
<g enable-background="new    ">
	<path fill="#0B6EB8" d="M48.073,406.598c0.299-0.046,0.582-0.138,0.848-0.276c0.265-0.139,0.524-0.3,0.778-0.484
		c0.208-0.161,0.427-0.34,0.657-0.536c0.23-0.195,0.473-0.386,0.727-0.57c0.161-0.115,0.277-0.23,0.346-0.347
		c0.069-0.114,0.092-0.229,0.069-0.346c-0.046-0.184-0.167-0.368-0.363-0.553s-0.41-0.393-0.64-0.623
		c-0.069-0.092-0.15-0.185-0.242-0.276c-0.092-0.092-0.173-0.196-0.242-0.312c-0.138-0.185-0.265-0.415-0.38-0.692
		c-0.116-0.276-0.173-0.588-0.173-0.934c0-0.368,0.104-0.772,0.311-1.211c0.208-0.438,0.588-0.876,1.142-1.314
		c0.507-0.415,1.193-0.823,2.058-1.228c0.865-0.403,1.965-0.789,3.303-1.158v0.519c-0.393,0.161-0.732,0.312-1.021,0.449
		c-0.289,0.139-0.536,0.277-0.744,0.415c-0.392,0.323-0.542,0.629-0.45,0.917c0.092,0.288,0.461,0.524,1.107,0.709
		c0.461,0.139,0.876,0.438,1.245,0.899c0.369,0.462,0.554,0.992,0.554,1.591c0,0.139-0.012,0.283-0.035,0.433
		c-0.023,0.15-0.058,0.294-0.104,0.433c-0.185,0.507-0.553,0.991-1.106,1.452c-0.554,0.462-1.373,0.854-2.456,1.177
		c1.891,0.369,3.292,1.118,4.203,2.248c0.911,1.13,1.366,2.41,1.366,3.839c0,0.323-0.023,0.652-0.069,0.986
		c-0.046,0.335-0.116,0.675-0.208,1.021c-0.577,2.053-1.978,3.932-4.203,5.638c-2.226,1.707-5.171,2.571-8.837,2.595h-0.415
		c-4.059-0.093-7.12-0.963-9.184-2.611c-2.064-1.648-3.488-3.465-4.272-5.448c-0.369-0.922-0.628-1.827-0.778-2.716
		c-0.15-0.887-0.225-1.7-0.225-2.438v-0.657c0.253-3.343,1.239-5.908,2.958-7.695c1.717-1.787,3.58-2.935,5.586-3.442
		c0.415-0.092,0.824-0.161,1.228-0.207c0.403-0.046,0.801-0.069,1.193-0.069c0.991,0,1.908,0.139,2.75,0.415
		c0.841,0.276,1.539,0.681,2.093,1.211L47,397.017c0.184-0.115,0.369-0.219,0.553-0.312l0.069-0.034
		c0.161-0.092,0.323-0.19,0.484-0.294c0.161-0.104,0.334-0.225,0.519-0.363v0.519c-0.208,0.162-0.403,0.3-0.588,0.415
		c-0.185,0.116-0.358,0.231-0.519,0.346c-0.139,0.093-0.271,0.19-0.398,0.294c-0.127,0.104-0.259,0.214-0.398,0.329
		c0.415,0.276,0.755,0.623,1.021,1.038c0.265,0.415,0.467,0.888,0.605,1.418l-0.519-0.035c-0.023-0.022-0.041-0.057-0.052-0.104
		c-0.012-0.046-0.029-0.092-0.052-0.139c-0.139-0.346-0.341-0.686-0.605-1.02c-0.266-0.334-0.583-0.629-0.951-0.883
		c-0.369,0.347-0.635,0.687-0.795,1.021c-0.162,0.335-0.242,0.663-0.242,0.986c0,0.438,0.092,0.87,0.276,1.297
		s0.381,0.859,0.588,1.297c0.022,0.047,0.052,0.099,0.086,0.156s0.063,0.109,0.086,0.155L48.073,406.598z M45.893,397.64
		c-0.069-0.023-0.185-0.075-0.346-0.156c-0.162-0.08-0.358-0.167-0.588-0.259c-0.323-0.115-0.686-0.226-1.089-0.329
		c-0.404-0.104-0.825-0.155-1.263-0.155c-0.138,0-0.276,0.006-0.415,0.017c-0.138,0.013-0.276,0.029-0.415,0.053
		c-1.015,0.207-1.949,0.951-2.802,2.23c-0.853,1.28-1.292,3.58-1.314,6.9c0,0.323,0.005,0.657,0.018,1.003
		c0.011,0.347,0.028,0.704,0.052,1.073c0.138,4.75,0.87,7.979,2.196,9.685c1.326,1.707,3.142,2.56,5.448,2.56
		c2.582,0,4.317-0.61,5.206-1.833c0.887-1.222,1.332-3.332,1.332-6.33c0-1.476-0.086-2.796-0.259-3.961
		c-0.173-1.164-0.628-1.746-1.366-1.746c-0.208,0-0.45,0.063-0.727,0.19s-0.588,0.328-0.934,0.604
		c0.416,0.716,0.715,1.407,0.899,2.076s0.277,1.314,0.277,1.937c0.022,1.545-0.438,2.854-1.384,3.926
		c-0.946,1.072-1.983,1.725-3.113,1.954c-0.116,0.023-0.242,0.041-0.38,0.053c-0.139,0.012-0.277,0.017-0.415,0.017
		c-0.162,0-0.329-0.011-0.502-0.034c-0.173-0.022-0.352-0.058-0.536-0.104c-0.946-0.3-1.677-0.727-2.196-1.28
		c-0.519-0.554-0.905-1.13-1.159-1.729c-0.208-0.507-0.34-1.009-0.398-1.505c-0.058-0.495-0.086-0.904-0.086-1.228l0.554-0.034
		c0.161,1.36,0.45,2.403,0.865,3.13s0.865,1.228,1.349,1.505c0.161,0.092,0.323,0.161,0.484,0.207
		c0.161,0.047,0.323,0.069,0.484,0.069c0.392,0,0.727-0.121,1.003-0.363c0.277-0.242,0.415-0.559,0.415-0.951
		c0-0.207-0.041-0.426-0.121-0.657c-0.081-0.23-0.213-0.472-0.397-0.727c-0.093-0.138-0.19-0.271-0.294-0.397
		c-0.104-0.126-0.202-0.26-0.294-0.397c-0.369-0.53-0.738-1.084-1.106-1.66c-0.369-0.576-0.704-1.153-1.003-1.729
		c-0.369-0.715-0.674-1.424-0.917-2.128c-0.242-0.703-0.363-1.377-0.363-2.023c0-0.207,0.018-0.409,0.052-0.605
		c0.035-0.195,0.075-0.386,0.121-0.57c0.253-0.83,0.675-1.631,1.263-2.404c0.588-0.772,1.216-1.458,1.885-2.058
		c0.415-0.392,0.818-0.738,1.21-1.038c0.392-0.299,0.749-0.553,1.072-0.761V397.64z"/>
	<path fill="#0B6EB8" d="M70.417,401.998l3.805,5.984l-7.609,4.912c0.415,1.291,0.968,2.226,1.66,2.802s1.418,0.899,2.179,0.968
		c0.069,0.023,0.126,0.035,0.173,0.035h0.208c0.646,0,1.268-0.144,1.868-0.433c0.6-0.288,1.107-0.675,1.522-1.158l0.277,0.483
		c-0.369,0.347-0.738,0.67-1.107,0.969c-0.369,0.3-0.75,0.6-1.142,0.899c-0.761,0.577-1.504,1.142-2.231,1.695
		c-0.726,0.553-1.413,1.095-2.058,1.625c-2.029-0.645-3.511-1.51-4.444-2.594c-0.934-1.084-1.551-2.202-1.851-3.355
		c-0.069-0.23-0.121-0.461-0.156-0.691s-0.064-0.461-0.086-0.692c-0.023-0.346-0.046-0.703-0.069-1.072
		c-0.023-0.368-0.035-0.749-0.035-1.141v-0.45c0-0.161,0.011-0.322,0.035-0.484c0.046-1.152,0.271-2.254,0.674-3.303
		c0.403-1.05,1.112-1.805,2.127-2.266L70.417,401.998z M66.335,404.42v7.645l3.528-2.18L66.335,404.42z"/>
	<path fill="#0B6EB8" d="M82.938,406.356l4.358-4.116l3.009,4.636l-3.563,3.839l-2.698-4.358l-1.107,0.796v7.921
		c0.069,0.531,0.259,0.957,0.571,1.28c0.311,0.323,0.72,0.484,1.228,0.484c0.438,0,0.939-0.133,1.504-0.398
		c0.565-0.265,1.193-0.709,1.885-1.331l0.277,0.483l-6.538,5.466c-0.254-0.208-0.548-0.45-0.882-0.727
		c-0.334-0.276-0.698-0.576-1.09-0.899c-0.6-0.461-1.245-0.899-1.937-1.314s-1.396-0.68-2.11-0.796
		c-0.046,0-0.086-0.005-0.121-0.017s-0.075-0.018-0.121-0.018v-0.588c0.115,0.023,0.242,0.029,0.38,0.018
		c0.139-0.012,0.288-0.04,0.45-0.087c0.323-0.069,0.628-0.219,0.917-0.449c0.288-0.23,0.432-0.589,0.432-1.072v-6.85
		c0-0.622-0.138-1.072-0.415-1.349s-0.6-0.415-0.969-0.415h-0.138c-0.023,0-0.058,0.012-0.104,0.034
		c-0.208,0.023-0.41,0.093-0.605,0.208c-0.196,0.115-0.363,0.266-0.501,0.449l-0.277-0.588l4.912-4.601
		c0.807,0.416,1.545,1.016,2.214,1.799C82.569,404.558,82.914,405.411,82.938,406.356z"/>
	<path fill="#0B6EB8" d="M102.551,401.721c0.807,0.23,1.544,0.657,2.213,1.28c0.669,0.622,1.049,1.279,1.142,1.972
		c0.022,0.046,0.034,0.092,0.034,0.138v0.277c0,0.046-0.012,0.092-0.034,0.138c0,0.069-0.006,0.127-0.017,0.173
		c-0.013,0.047-0.029,0.093-0.053,0.139l5.707-4.116c0.023,0.047,0.035,0.081,0.035,0.104l1.142,1.107
		c0.415,0.393,0.87,0.772,1.366,1.142s1.101,0.68,1.816,0.934v0.519c-0.093,0-0.18-0.005-0.26-0.017
		c-0.082-0.012-0.168-0.018-0.26-0.018c-0.393,0-0.721,0.139-0.986,0.415c-0.265,0.276-0.396,0.703-0.396,1.279v7.748
		c0,0.438,0.062,0.848,0.189,1.229c0.127,0.38,0.387,0.57,0.778,0.57c0.185,0,0.397-0.04,0.64-0.121
		c0.242-0.08,0.524-0.225,0.848-0.432v0.519l-4.912,4.081c-1.223-0.783-1.982-1.51-2.282-2.179s-0.45-1.199-0.45-1.591v-10.135
		c0-0.53-0.068-0.905-0.207-1.124c-0.139-0.22-0.334-0.329-0.588-0.329c-0.162,0-0.335,0.041-0.52,0.121
		c-0.185,0.081-0.369,0.19-0.553,0.328c-0.093,0.047-0.18,0.099-0.26,0.156c-0.081,0.058-0.156,0.109-0.225,0.155
		c-0.115,0.093-0.225,0.173-0.328,0.242c-0.104,0.069-0.203,0.139-0.295,0.208v8.578c0,0.507,0.08,0.98,0.242,1.418
		c0.161,0.438,0.438,0.657,0.83,0.657v0.484c-0.207,0.023-0.443,0.086-0.709,0.19c-0.266,0.104-0.524,0.248-0.778,0.432
		c-0.392,0.301-0.772,0.657-1.142,1.072s-0.669,0.854-0.898,1.314c-0.277-0.438-0.571-0.841-0.883-1.21
		c-0.311-0.369-0.629-0.681-0.951-0.935c-0.369-0.276-0.721-0.484-1.055-0.622c-0.334-0.139-0.64-0.208-0.917-0.208v-0.553
		c0.645,0.022,1.032-0.185,1.159-0.623c0.127-0.438,0.189-0.911,0.189-1.418v-8.06c0-0.646-0.068-1.09-0.207-1.332
		c-0.138-0.242-0.334-0.363-0.588-0.363c-0.185,0-0.404,0.059-0.657,0.174c-0.254,0.115-0.507,0.241-0.761,0.38
		c-0.023,0.023-0.052,0.041-0.086,0.052c-0.035,0.012-0.064,0.018-0.087,0.018c-0.092,0.069-0.19,0.127-0.294,0.173
		c-0.104,0.047-0.213,0.093-0.329,0.139v8.924c0,0.577,0.081,1.015,0.242,1.314c0.161,0.3,0.45,0.519,0.865,0.657v0.484
		c-0.692,0.023-1.355,0.334-1.989,0.934c-0.635,0.6-1.159,1.292-1.574,2.075c-0.162-0.161-0.323-0.334-0.484-0.519l-0.484-0.554
		c-0.438-0.484-0.922-0.922-1.453-1.314c-0.531-0.392-1.176-0.588-1.937-0.588v-0.553c0.484,0.022,0.887-0.063,1.21-0.26
		c0.323-0.195,0.496-0.663,0.519-1.401c0-0.114-0.006-0.235-0.017-0.362c-0.012-0.127-0.029-0.26-0.052-0.398v-7.402
		c0-0.599-0.086-1.043-0.259-1.331s-0.386-0.433-0.64-0.433c-0.185,0-0.386,0.063-0.605,0.19c-0.22,0.127-0.444,0.306-0.675,0.536
		l-0.276-0.588l4.358-4.082c0.161,0.093,0.34,0.19,0.536,0.294s0.386,0.225,0.571,0.363c0.438,0.323,0.859,0.709,1.263,1.159
		c0.403,0.449,0.674,0.916,0.813,1.4c0.046,0.116,0.074,0.22,0.086,0.312c0.011,0.093,0.017,0.185,0.017,0.276v0.173
		c0,0.023-0.012,0.059-0.035,0.104L102.551,401.721z"/>
	<path fill="#0B6EB8" d="M126.244,402.24c0.16,0.255,0.402,0.525,0.727,0.813c0.322,0.288,0.703,0.582,1.141,0.882
		c0.508,0.369,1.078,0.721,1.713,1.055c0.633,0.335,1.273,0.617,1.92,0.848c0.184,0.047,0.362,0.093,0.535,0.139
		c0.174,0.046,0.34,0.092,0.502,0.138v0.484h-0.449c-0.508-0.022-0.877,0.116-1.107,0.415c-0.23,0.3-0.346,0.635-0.346,1.004v7.574
		c0,0.646,0.086,1.113,0.26,1.401c0.172,0.288,0.443,0.433,0.812,0.433c0.184,0,0.392-0.035,0.623-0.104
		c0.229-0.068,0.484-0.173,0.76-0.311v0.483c-0.668,0.438-1.371,0.975-2.109,1.609c-0.738,0.634-1.58,1.285-2.525,1.954
		l-0.139-0.139c-0.022-0.023-0.057-0.047-0.104-0.069c-0.115-0.138-0.242-0.259-0.38-0.363c-0.139-0.104-0.276-0.213-0.415-0.328
		c-0.415-0.369-0.802-0.761-1.158-1.176c-0.358-0.416-0.549-0.877-0.571-1.384v-0.069c0-0.022,0.011-0.058,0.034-0.104v-0.139
		c-0.484,0.276-0.957,0.583-1.418,0.917s-0.911,0.686-1.35,1.055c-0.414,0.323-0.818,0.635-1.21,0.934
		c-0.393,0.3-0.784,0.588-1.177,0.865c-0.622-0.415-1.123-0.778-1.504-1.09s-0.687-0.616-0.916-0.917
		c-0.255-0.346-0.416-0.714-0.484-1.106c-0.07-0.392-0.104-0.888-0.104-1.487v-8.163c0-0.139,0.006-0.288,0.018-0.45
		c0.011-0.161,0.052-0.334,0.121-0.519c0.092-0.253,0.271-0.513,0.536-0.778c0.265-0.265,0.674-0.501,1.229-0.709
		c0.414-0.185,0.881-0.381,1.4-0.588c0.519-0.208,1.043-0.438,1.574-0.691c0.668-0.3,1.314-0.641,1.937-1.021
		c0.622-0.381,1.164-0.802,1.626-1.263V402.24z M122.716,416.145c0,0.531,0.074,0.929,0.225,1.193
		c0.149,0.266,0.363,0.397,0.64,0.397c0.115,0,0.236-0.017,0.363-0.052c0.127-0.034,0.26-0.086,0.398-0.155l1.383-0.83v-9.271
		c-0.646-0.229-1.188-0.523-1.625-0.882c-0.438-0.357-0.854-0.731-1.246-1.124l-0.138-0.139V416.145z"/>
	<path fill="#0B6EB8" d="M141.774,406.08l5.707-4.082c0.185,0.208,0.381,0.422,0.589,0.641c0.207,0.219,0.414,0.444,0.622,0.674
		c0.438,0.438,0.917,0.854,1.435,1.246c0.52,0.392,1.09,0.634,1.713,0.726v0.52c-0.669,0.022-1.199,0.161-1.592,0.415
		c-0.392,0.254-0.588,0.854-0.588,1.799v7.332c0,0.069,0.012,0.15,0.035,0.242c0.022,0.347,0.109,0.657,0.26,0.935
		c0.149,0.276,0.408,0.427,0.777,0.449c0.186,0,0.387-0.04,0.605-0.121c0.219-0.08,0.479-0.213,0.779-0.397l0.275,0.242
		l-5.153,4.358c-1.222-0.922-1.983-1.753-2.282-2.491c-0.301-0.737-0.45-1.44-0.45-2.109v-9.028c0-0.576-0.081-0.979-0.242-1.21
		s-0.369-0.347-0.622-0.347c-0.162,0-0.329,0.035-0.502,0.104s-0.352,0.161-0.536,0.276c-0.138,0.093-0.276,0.196-0.415,0.312
		l-0.415,0.346v9.028c0,0.092,0.011,0.196,0.034,0.311c0.023,0.208,0.092,0.41,0.208,0.605c0.114,0.196,0.312,0.341,0.588,0.433
		v0.484c-0.554,0.161-1.159,0.449-1.815,0.864c-0.658,0.415-1.332,1.223-2.023,2.422c-0.162-0.462-0.456-0.899-0.883-1.314
		s-0.882-0.784-1.366-1.107c-0.346-0.207-0.681-0.386-1.003-0.536c-0.323-0.149-0.6-0.247-0.83-0.294v-0.553
		c0.553,0.022,1.008-0.081,1.366-0.312c0.357-0.23,0.536-0.761,0.536-1.592v-7.367c0-0.069-0.006-0.155-0.018-0.26
		c-0.012-0.104-0.018-0.213-0.018-0.328c-0.068-0.322-0.178-0.617-0.328-0.882s-0.363-0.398-0.64-0.398
		c-0.185-0.022-0.393,0.029-0.623,0.156s-0.496,0.34-0.796,0.64l-0.276-0.554l4.636-4.358c1.083,0.554,1.891,1.142,2.421,1.765
		C141.474,404.385,141.751,405.158,141.774,406.08z"/>
	<path fill="#0B6EB8" d="M154.848,406.598c-0.715-0.138-1.251-0.489-1.608-1.055c-0.357-0.564-0.536-1.205-0.536-1.92
		c0-0.138,0.005-0.276,0.017-0.415s0.029-0.288,0.053-0.449c0.184-0.969,0.697-1.862,1.539-2.681s2.012-1.263,3.511-1.332v0.519
		c-0.784,0.208-1.366,0.45-1.747,0.727c-0.38,0.277-0.582,0.565-0.605,0.865c0,0.323,0.202,0.634,0.605,0.934
		c0.404,0.3,0.986,0.554,1.747,0.761c0.507,0.139,0.911,0.398,1.211,0.778c0.3,0.381,0.519,0.79,0.657,1.229
		c0.115,0.369,0.195,0.721,0.242,1.055c0.045,0.334,0.068,0.594,0.068,0.778l5.466-3.874c0.554,0.438,1.021,0.916,1.401,1.436
		c0.38,0.519,0.674,1.055,0.881,1.608c0.139,0.369,0.242,0.743,0.312,1.124c0.068,0.38,0.104,0.732,0.104,1.055v8.959
		c-0.116,2.721-0.969,5.016-2.561,6.883c-1.591,1.868-4.093,3.471-7.506,4.809v-0.52c0.023-0.022,0.047-0.04,0.07-0.052
		c0.021-0.012,0.045-0.017,0.068-0.017c1.592-0.969,2.785-2.03,3.58-3.183c0.795-1.153,1.193-2.79,1.193-4.912v-11.726
		c0-0.6-0.086-1.055-0.26-1.366c-0.172-0.312-0.432-0.467-0.777-0.467c-0.231,0-0.514,0.086-0.848,0.259
		c-0.335,0.174-0.709,0.433-1.125,0.778v8.129c0,0.577,0.109,0.957,0.329,1.142c0.219,0.185,0.479,0.276,0.778,0.276h0.242
		c0.161,0,0.328-0.022,0.502-0.069c0.172-0.046,0.316-0.092,0.432-0.138l0.104-0.035c0.023-0.022,0.047-0.034,0.07-0.034v0.519
		c-0.577,0.208-1.154,0.548-1.73,1.021s-1.152,0.986-1.729,1.539c-0.231,0.208-0.468,0.421-0.709,0.641
		c-0.242,0.219-0.49,0.42-0.744,0.604c-0.139-0.115-0.283-0.23-0.433-0.346c-0.15-0.115-0.282-0.242-0.397-0.38
		c-0.23-0.208-0.45-0.415-0.658-0.623c-0.207-0.208-0.414-0.403-0.622-0.588c-0.346-0.323-0.698-0.605-1.055-0.848
		c-0.358-0.242-0.756-0.397-1.193-0.467v-0.554c0.415,0.023,0.796-0.092,1.142-0.346s0.519-0.588,0.519-1.003V406.598z"/>
</g>
</svg>
