<?xml version="1.0" encoding="utf-8"?>
<!-- Generator: Adobe Illustrator 16.0.3, SVG Export Plug-In . SVG Version: 6.00 Build 0)  -->
<!DOCTYPE svg PUBLIC "-//W3C//DTD SVG 1.1//EN" "http://www.w3.org/Graphics/SVG/1.1/DTD/svg11.dtd">
<svg version="1.1" id="Layer_1" xmlns="http://www.w3.org/2000/svg" xmlns:xlink="http://www.w3.org/1999/xlink" x="0px" y="0px"
	 width="71.977px" height="424.441px" viewBox="0 0 71.977 424.441" enable-background="new 0 0 71.977 424.441"
	 xml:space="preserve">
<g>
	<path fill="#E4F0F7" stroke="#3383B9" stroke-width="3" stroke-miterlimit="10" d="M2.5,42.561C2.5,29.883,6.055,17.965,12.51,9
		c6.24-8.667,39.739-8.667,45.979,0C64.946,17.966,68.5,29.884,68.5,42.56l-0.002,261.812c0.002,6.777-5.232,18.216-10.773,30.323
		c-4.85,10.596-10.344,22.604-13.375,33.791c-2.674,9.857-3.508,19.146-4.18,26.609c-0.482,5.34-0.896,9.951-1.838,12.91
		c-0.971,3.055-2.047,3.054-2.833,3.055c-0.824-0.001-2.07,0-3.198-3.594c-1.04-3.312-1.525-8.389-2.088-14.264
		c-0.741-7.741-1.663-17.376-4.28-27.414c-2.909-11.16-8.406-22.926-13.257-33.304C7.443,321.288,2.5,310.708,2.5,304.373V42.561"/>
	<g>
		<line fill="none" stroke="#C1D3E0" stroke-miterlimit="10" x1="12.999" y1="310.737" x2="57.999" y2="310.737"/>
		<line fill="none" stroke="#C1D3E0" stroke-miterlimit="10" x1="12.999" y1="305.246" x2="57.999" y2="305.246"/>
		<line fill="none" stroke="#C1D3E0" stroke-miterlimit="10" x1="12.999" y1="299.753" x2="57.999" y2="299.753"/>
		<line fill="none" stroke="#C1D3E0" stroke-miterlimit="10" x1="12.999" y1="294.262" x2="57.999" y2="294.262"/>
		<line fill="none" stroke="#C1D3E0" stroke-miterlimit="10" x1="12.999" y1="288.77" x2="58" y2="288.77"/>
		<line fill="none" stroke="#C1D3E0" stroke-miterlimit="10" x1="12.999" y1="283.278" x2="57.999" y2="283.278"/>
		<line fill="none" stroke="#C1D3E0" stroke-miterlimit="10" x1="12.999" y1="277.787" x2="57.999" y2="277.787"/>
		<line fill="none" stroke="#C1D3E0" stroke-miterlimit="10" x1="12.999" y1="272.294" x2="57.999" y2="272.294"/>
		<line fill="none" stroke="#C1D3E0" stroke-miterlimit="10" x1="12.999" y1="266.803" x2="57.999" y2="266.803"/>
		<line fill="none" stroke="#C1D3E0" stroke-miterlimit="10" x1="12.999" y1="261.311" x2="57.999" y2="261.311"/>
		<line fill="none" stroke="#C1D3E0" stroke-miterlimit="10" x1="12.999" y1="255.82" x2="58" y2="255.82"/>
		<line fill="none" stroke="#C1D3E0" stroke-miterlimit="10" x1="12.999" y1="250.328" x2="57.999" y2="250.328"/>
		<line fill="none" stroke="#C1D3E0" stroke-miterlimit="10" x1="12.999" y1="244.836" x2="58" y2="244.836"/>
		<line fill="none" stroke="#C1D3E0" stroke-miterlimit="10" x1="12.999" y1="239.344" x2="57.999" y2="239.344"/>
		<line fill="none" stroke="#C1D3E0" stroke-miterlimit="10" x1="12.999" y1="233.853" x2="58" y2="233.853"/>
		<line fill="none" stroke="#C1D3E0" stroke-miterlimit="10" x1="12.999" y1="228.361" x2="57.999" y2="228.361"/>
		<line fill="none" stroke="#C1D3E0" stroke-miterlimit="10" x1="12.999" y1="222.87" x2="57.999" y2="222.87"/>
		<line fill="none" stroke="#C1D3E0" stroke-miterlimit="10" x1="12.999" y1="217.377" x2="58" y2="217.377"/>
		<line fill="none" stroke="#C1D3E0" stroke-miterlimit="10" x1="12.999" y1="211.885" x2="58" y2="211.885"/>
		<line fill="none" stroke="#C1D3E0" stroke-miterlimit="10" x1="12.999" y1="206.394" x2="58" y2="206.394"/>
		<line fill="none" stroke="#C1D3E0" stroke-miterlimit="10" x1="12.999" y1="200.902" x2="58" y2="200.902"/>
		<line fill="none" stroke="#C1D3E0" stroke-miterlimit="10" x1="12.999" y1="195.411" x2="57.999" y2="195.411"/>
		<line fill="none" stroke="#C1D3E0" stroke-miterlimit="10" x1="12.999" y1="189.919" x2="58" y2="189.919"/>
		<line fill="none" stroke="#C1D3E0" stroke-miterlimit="10" x1="12.999" y1="184.427" x2="58" y2="184.427"/>
		<line fill="none" stroke="#C1D3E0" stroke-miterlimit="10" x1="12.998" y1="178.935" x2="58" y2="178.935"/>
		<line fill="none" stroke="#C1D3E0" stroke-miterlimit="10" x1="12.999" y1="173.444" x2="58" y2="173.444"/>
		<line fill="none" stroke="#C1D3E0" stroke-miterlimit="10" x1="12.999" y1="167.952" x2="58" y2="167.952"/>
		<line fill="none" stroke="#C1D3E0" stroke-miterlimit="10" x1="12.999" y1="162.46" x2="58" y2="162.46"/>
		<line fill="none" stroke="#C1D3E0" stroke-miterlimit="10" x1="12.999" y1="156.968" x2="58" y2="156.968"/>
		<line fill="none" stroke="#C1D3E0" stroke-miterlimit="10" x1="12.999" y1="151.477" x2="58" y2="151.477"/>
		<line fill="none" stroke="#C1D3E0" stroke-miterlimit="10" x1="12.999" y1="145.985" x2="58" y2="145.985"/>
		<line fill="none" stroke="#C1D3E0" stroke-miterlimit="10" x1="12.999" y1="140.494" x2="58" y2="140.494"/>
		<line fill="none" stroke="#C1D3E0" stroke-miterlimit="10" x1="12.999" y1="135.001" x2="58" y2="135.001"/>
		<line fill="none" stroke="#C1D3E0" stroke-miterlimit="10" x1="12.999" y1="129.51" x2="58" y2="129.51"/>
		<line fill="none" stroke="#C1D3E0" stroke-miterlimit="10" x1="12.999" y1="124.018" x2="58" y2="124.018"/>
		<line fill="none" stroke="#C1D3E0" stroke-miterlimit="10" x1="12.998" y1="118.526" x2="58" y2="118.526"/>
		<line fill="none" stroke="#C1D3E0" stroke-miterlimit="10" x1="12.998" y1="113.035" x2="58" y2="113.035"/>
		<line fill="none" stroke="#C1D3E0" stroke-miterlimit="10" x1="12.998" y1="107.543" x2="58" y2="107.543"/>
		<line fill="none" stroke="#C1D3E0" stroke-miterlimit="10" x1="12.998" y1="102.051" x2="58" y2="102.051"/>
		<line fill="none" stroke="#C1D3E0" stroke-miterlimit="10" x1="12.998" y1="96.56" x2="58" y2="96.56"/>
		<line fill="none" stroke="#C1D3E0" stroke-miterlimit="10" x1="12.999" y1="91.068" x2="58" y2="91.068"/>
		<line fill="none" stroke="#C1D3E0" stroke-miterlimit="10" x1="12.999" y1="85.577" x2="58" y2="85.577"/>
		<line fill="none" stroke="#C1D3E0" stroke-miterlimit="10" x1="12.999" y1="80.084" x2="58" y2="80.084"/>
		<line fill="none" stroke="#C1D3E0" stroke-miterlimit="10" x1="12.999" y1="74.593" x2="58" y2="74.593"/>
		<line fill="none" stroke="#C1D3E0" stroke-miterlimit="10" x1="12.999" y1="69.101" x2="58" y2="69.101"/>
		<line fill="none" stroke="#C1D3E0" stroke-miterlimit="10" x1="12.998" y1="63.609" x2="58" y2="63.609"/>
		<line fill="none" stroke="#C1D3E0" stroke-miterlimit="10" x1="12.998" y1="58.118" x2="58" y2="58.118"/>
		<line fill="none" stroke="#C1D3E0" stroke-miterlimit="10" x1="12.998" y1="52.626" x2="58" y2="52.626"/>
		<line fill="none" stroke="#C1D3E0" stroke-miterlimit="10" x1="12.998" y1="47.134" x2="58" y2="47.134"/>
		<line fill="none" stroke="#C1D3E0" stroke-miterlimit="10" x1="12.998" y1="41.643" x2="58" y2="41.643"/>
		<line fill="none" stroke="#C1D3E0" stroke-miterlimit="10" x1="12.998" y1="36.151" x2="58" y2="36.151"/>
	</g>
	<g>
		<path fill="#FFFFFF" d="M37.499,36.151c5.5-0.001,10,4.499,10,10v254.631c0,5.502-4.498,10.001-10,10.002l-4-0.001
			c-5.501,0-10.001-4.499-9.999-9.999V46.15c-0.001-5.5,4.499-10,9.999-9.999H37.499z"/>
		<g>
			<path fill="#FFFFFF" d="M33.499,311.283c-2.794,0-5.428-1.095-7.417-3.083c-1.989-1.989-3.083-4.623-3.083-7.416V46.15
				c0-2.793,1.094-5.427,3.083-7.416c1.988-1.988,4.622-3.083,7.415-3.083h4.001c2.794,0,5.428,1.095,7.417,3.083
				c1.988,1.989,3.083,4.623,3.083,7.417v254.631c0,5.79-4.71,10.501-10.5,10.502L33.499,311.283z"/>
			<path fill="#3383B9" d="M37.5,36.151c5.499,0,9.998,4.5,9.998,10v254.631c0,5.502-4.498,10.001-10,10.002l-4-0.001
				c-5.501,0-10.001-4.499-9.999-9.999V46.15c-0.001-5.5,4.498-9.999,9.997-9.999c0.001,0,0.001,0,0.002,0h4H37.5 M37.501,35.151
				h-0.003h-4c-2.929,0-5.688,1.147-7.77,3.23c-2.083,2.083-3.229,4.842-3.229,7.769v254.634c-0.001,2.927,1.146,5.687,3.229,7.77
				c2.083,2.082,4.842,3.229,7.77,3.229l4,0.001c6.065-0.001,11-4.937,11-11.002V46.151C48.499,40.085,43.565,35.151,37.501,35.151
				L37.501,35.151z"/>
		</g>
	</g>
	<g>
		<defs>
			<rect id="SVGID_1_" x="17.999" y="302.747" width="35" height="15.978"/>
		</defs>
		<clipPath id="SVGID_2_">
			<use xlink:href="#SVGID_1_"  overflow="visible"/>
		</clipPath>
		<path clip-path="url(#SVGID_2_)" fill="#C133B1" d="M37.499,35.901c5.5-0.001,10,4.499,10,10v254.631
			c0,5.502-4.498,10.001-10,10.002l-4-0.001c-5.501,0-10.001-4.499-9.999-9.999V45.9c-0.001-5.5,4.499-10,9.999-9.999H37.499z"/>
	</g>
	<path fill="#3383B9" d="M35.5,378.661c5.045,0,9.172,4.5,9.17,10v20.399c0.002,5.5-4.125,10.001-9.17,10
		c-5.045,0-9.172-4.499-9.172-10v-20.399C26.328,383.161,30.455,378.661,35.5,378.661z"/>
	<text transform="matrix(1 0 0 1 23.728 24.9009)" fill="#AFC8D9" font-family="'OpenSans-Bold'" font-size="11">HOT</text>
	<text transform="matrix(1 0 0 1 20.438 329.6938)" fill="#AFC8D9" font-family="'OpenSans-Bold'" font-size="11">COLD</text>
</g>
</svg>
