<?xml version="1.0" encoding="utf-8"?>
<!-- Generator: Adobe Illustrator 16.0.3, SVG Export Plug-In . SVG Version: 6.00 Build 0)  -->
<!DOCTYPE svg PUBLIC "-//W3C//DTD SVG 1.1//EN" "http://www.w3.org/Graphics/SVG/1.1/DTD/svg11.dtd">
<svg version="1.1" id="Layer_1" xmlns="http://www.w3.org/2000/svg" xmlns:xlink="http://www.w3.org/1999/xlink" x="0px" y="0px"
	 width="26px" height="240.149px" viewBox="0 0 26 240.149" enable-background="new 0 0 26 240.149" xml:space="preserve">
<g>
	<path fill="#E6AFE0" d="M13.314,24.546c0,0,12.686-6.449,12.686-15.773c0-4.63-2.592-8.273-6.706-8.273
		c-4.77,0-5.98,4.203-5.98,4.203h0.066c0,0-1.156-4.203-5.925-4.203C3.341,0.5,0.75,4.143,0.75,8.773
		c0,9.324,12.631,15.773,12.631,15.773H13.314z"/>
	<g>
		<path fill="#C133B1" d="M13.345,18.386c0,0,6.186-3.145,6.186-7.691c0-2.258-1.264-4.034-3.27-4.034
			c-2.325,0-2.916,2.05-2.916,2.05h0.033c0,0-0.563-2.05-2.889-2.05c-2.006,0-3.27,1.776-3.27,4.034
			c0,4.546,6.158,7.691,6.158,7.691H13.345z"/>
	</g>
</g>
<g>
	<path fill="#E6AFE0" d="M25.368,61.153c0-5.976-4.843-10.819-10.819-10.819c-5.975,0-10.819,4.844-10.819,10.819
		c0,0.309,0,0.679-0.001,1.086l-2.212,3.81c-0.315,0.542-0.06,0.986,0.567,0.986h1.633c-0.006,2.122-0.012,4.064-0.012,4.689
		c0,1.92,1.763,2.561,4.062,2.561c0.84,0,1.717-0.004,2.585-0.01v4.3h10.121v-6.784C23.421,69.187,25.368,64.94,25.368,61.153z"/>
	<circle fill="#C133B1" cx="14.51" cy="60.665" r="6.744"/>
</g>
<g>
	<path fill="#E6AFE0" d="M18.096,129.604c-0.972-1.343-2.8-3.898-4.721-6.744c-1.921,2.846-3.75,5.401-4.722,6.744l-3.856-2.793
		c1.938-2.675,3.97-5.612,5.739-8.295c-2.009-3.202-3.672-6.202-3.972-7.771c-0.462-2.427,0.397-4.094,1.202-5.065
		c1.531-1.85,3.901-2.509,5.609-2.509c1.708,0,4.079,0.66,5.609,2.509c0.804,0.971,1.666,2.639,1.201,5.065
		c-0.299,1.57-1.961,4.57-3.971,7.771c1.769,2.683,3.802,5.62,5.739,8.295L18.096,129.604z M13.375,107.93
		c-0.627,0-1.52,0.275-1.94,0.783c-0.156,0.187-0.317,0.486-0.193,1.137c0.126,0.662,0.928,2.189,2.133,4.189
		c1.205-2,2.007-3.527,2.133-4.189c0.124-0.651-0.037-0.95-0.193-1.137C14.895,108.205,14.001,107.93,13.375,107.93z"/>
	<path fill="#C133B1" d="M16.214,118.515c1.769,2.683,3.802,5.62,5.739,8.295l-3.857,2.793c-0.972-1.343-2.8-3.898-4.721-6.744"/>
	<path fill="#FFFFFF" d="M13.375,114.039c1.205-2,2.007-3.527,2.133-4.189c0.124-0.651-0.037-0.95-0.193-1.137
		c-0.42-0.508-1.313-0.783-1.94-0.783c-0.627,0-1.52,0.275-1.94,0.783"/>
	<path fill="#C133B1" d="M11.242,109.85c0.126,0.662,0.928,2.189,2.133,4.189l-2.839,4.476c-2.009-3.202-3.672-6.202-3.972-7.771
		c-0.462-2.427,0.397-4.094,1.202-5.065c1.531-1.85,3.901-2.509,5.609-2.509c0,0-1.307,0.276-1.94,2.084
		C10.802,107.062,11.118,109.199,11.242,109.85z"/>
</g>
<g>
	<path fill="#E6AFE0" d="M19.743,178.544c0,1.751-1.432,3.185-3.184,3.185H10.19c-1.751,0-3.184-1.433-3.184-3.185v-13.89
		c0-1.751,1.433-3.184,3.184-3.184h6.369c1.752,0,3.184,1.433,3.184,3.184V178.544z"/>
	<path fill="#C133B1" d="M17.022,175.809c0,0.875-0.717,1.592-1.592,1.592h-1.122c-0.876,0-1.593-0.716-1.593-1.592v-8.419
		c0-0.875,0.716-1.592,1.593-1.592h1.122c0.875,0,1.592,0.717,1.592,1.592V175.809z"/>
	<path fill="#C133B1" d="M16.532,157.609l-1.811-0.876v-0.764c0-0.584-0.478-1.062-1.061-1.062h-0.571
		c-0.583,0-1.062,0.478-1.062,1.062v0.764l-1.811,0.876c-0.525,0.254-0.955,0.939-0.955,1.523v0.571
		c0,0.583,0.478,1.062,1.061,1.062h6.103c0.583,0,1.062-0.478,1.062-1.062v-0.571C17.488,158.548,17.057,157.863,16.532,157.609z"/>
</g>
<g>
	<path fill="#E6AFE0" d="M22.199,223.63c0,4.873-3.951,8.824-8.825,8.824c-4.873,0-8.824-3.951-8.824-8.824
		s8.824-15.587,8.824-15.587S22.199,218.757,22.199,223.63z"/>
	<path fill="#C133B1" d="M17.351,223.5c0,2.197-1.781,3.977-3.977,3.977s-3.977-1.78-3.977-3.977c0-2.195,3.977-7.024,3.977-7.024
		S17.351,221.304,17.351,223.5z"/>
</g>
</svg>
